{"asset":{"version":"2.0","generator":"Dustbound CC-BY GMC wheel extraction"},"scene":0,"scenes":[{"nodes":[0]}],"nodes":[{"name":"ProfessionalTireRim","mesh":0}],"meshes":[{"name":"ProfessionalTireRim","primitives":[{"attributes":{"POSITION":0,"NORMAL":1,"TEXCOORD_0":2},"indices":3,"material":0,"mode":4}]}],"materials":[{"doubleSided":true,"name":"clay.001","pbrMetallicRoughness":{"baseColorTexture":{"index":0},"metallicRoughnessTexture":{"index":1}}}],"samplers":[{"magFilter":9729,"minFilter":9987,"wrapS":10497,"wrapT":10497}],"images":[{"uri":"textures/clay.001_baseColor.jpeg"},{"uri":"textures/clay.001_metallicRoughness.png"}],"textures":[{"sampler":0,"source":0},{"sampler":0,"source":1}],"buffers":[{"byteLength":69632,"uri":"wheel.bin"}],"bufferViews":[{"buffer":0,"byteOffset":0,"byteLength":18552,"target":34962},{"buffer":0,"byteOffset":18552,"byteLength":18552,"target":34962},{"buffer":0,"byteOffset":37104,"byteLength":12368,"target":34962},{"buffer":0,"byteOffset":49472,"byteLength":20160,"target":34963}],"accessors":[{"bufferView":0,"componentType":5126,"count":1546,"type":"VEC3","min":[-0.16933587193489075,-0.3785403370857239,-0.3785421848297119],"max":[0.16933587193489075,0.3785381019115448,0.3785364627838135]},{"bufferView":1,"componentType":5126,"count":1546,"type":"VEC3"},{"bufferView":2,"componentType":5126,"count":1546,"type":"VEC2"},{"bufferView":3,"componentType":5125,"count":5040,"type":"SCALAR"}],"extras":{"source_author":"Karol Miklas","license":"CC-BY-4.0"}}