# Original Dustbound Expeditions low-poly model
mtllib dustbound.mtl
v 0.00000 -0.09000 0.00000
v 0.65748 0.05133 0.00000
v 0.42098 0.05133 0.29764
v 0.00000 -0.09000 0.00000
v 0.00000 -0.09000 0.00000
v 0.42098 0.05133 0.29764
v 0.13280 0.05133 0.63459
v 0.00000 -0.09000 0.00000
v 0.00000 -0.09000 0.00000
v 0.13280 0.05133 0.63459
v -0.37662 0.05133 0.54964
v -0.00000 -0.09000 0.00000
v -0.00000 -0.09000 0.00000
v -0.37662 0.05133 0.54964
v -0.58790 0.05133 0.18030
v -0.00000 -0.09000 0.00000
v -0.00000 -0.09000 0.00000
v -0.58790 0.05133 0.18030
v -0.63943 0.05133 -0.19610
v -0.00000 -0.09000 -0.00000
v -0.00000 -0.09000 -0.00000
v -0.63943 0.05133 -0.19610
v -0.27753 0.05133 -0.40504
v -0.00000 -0.09000 -0.00000
v -0.00000 -0.09000 -0.00000
v -0.27753 0.05133 -0.40504
v 0.09673 0.05133 -0.46225
v 0.00000 -0.09000 -0.00000
v 0.00000 -0.09000 -0.00000
v 0.09673 0.05133 -0.46225
v 0.44104 0.05133 -0.31182
v 0.00000 -0.09000 -0.00000
v 0.00000 -0.09000 -0.00000
v 0.44104 0.05133 -0.31182
v 0.65748 0.05133 0.00000
v 0.00000 -0.09000 0.00000
v 0.65748 0.05133 0.00000
v 1.06382 0.42133 0.00000
v 0.68116 0.42133 0.48159
v 0.42098 0.05133 0.29764
v 0.42098 0.05133 0.29764
v 0.68116 0.42133 0.48159
v 0.21487 0.42133 1.02679
v 0.13280 0.05133 0.63459
v 0.13280 0.05133 0.63459
v 0.21487 0.42133 1.02679
v -0.60938 0.42133 0.88933
v -0.37662 0.05133 0.54964
v -0.37662 0.05133 0.54964
v -0.60938 0.42133 0.88933
v -0.95124 0.42133 0.29173
v -0.58790 0.05133 0.18030
v -0.58790 0.05133 0.18030
v -0.95124 0.42133 0.29173
v -1.03462 0.42133 -0.31730
v -0.63943 0.05133 -0.19610
v -0.63943 0.05133 -0.19610
v -1.03462 0.42133 -0.31730
v -0.44906 0.42133 -0.65537
v -0.27753 0.05133 -0.40504
v -0.27753 0.05133 -0.40504
v -0.44906 0.42133 -0.65537
v 0.15652 0.42133 -0.74794
v 0.09673 0.05133 -0.46225
v 0.09673 0.05133 -0.46225
v 0.15652 0.42133 -0.74794
v 0.71362 0.42133 -0.50454
v 0.44104 0.05133 -0.31182
v 0.44104 0.05133 -0.31182
v 0.71362 0.42133 -0.50454
v 1.06382 0.42133 0.00000
v 0.65748 0.05133 0.00000
v 1.06382 0.42133 0.00000
v 1.06382 0.87867 0.00000
v 0.68116 0.87867 0.48159
v 0.68116 0.42133 0.48159
v 0.68116 0.42133 0.48159
v 0.68116 0.87867 0.48159
v 0.21487 0.87867 1.02679
v 0.21487 0.42133 1.02679
v 0.21487 0.42133 1.02679
v 0.21487 0.87867 1.02679
v -0.60938 0.87867 0.88933
v -0.60938 0.42133 0.88933
v -0.60938 0.42133 0.88933
v -0.60938 0.87867 0.88933
v -0.95124 0.87867 0.29173
v -0.95124 0.42133 0.29173
v -0.95124 0.42133 0.29173
v -0.95124 0.87867 0.29173
v -1.03462 0.87867 -0.31730
v -1.03462 0.42133 -0.31730
v -1.03462 0.42133 -0.31730
v -1.03462 0.87867 -0.31730
v -0.44906 0.87867 -0.65537
v -0.44906 0.42133 -0.65537
v -0.44906 0.42133 -0.65537
v -0.44906 0.87867 -0.65537
v 0.15652 0.87867 -0.74794
v 0.15652 0.42133 -0.74794
v 0.15652 0.42133 -0.74794
v 0.15652 0.87867 -0.74794
v 0.71362 0.87867 -0.50454
v 0.71362 0.42133 -0.50454
v 0.71362 0.42133 -0.50454
v 0.71362 0.87867 -0.50454
v 1.06382 0.87867 0.00000
v 1.06382 0.42133 0.00000
v 1.06382 0.87867 0.00000
v 0.65748 1.24867 0.00000
v 0.42098 1.24867 0.29764
v 0.68116 0.87867 0.48159
v 0.68116 0.87867 0.48159
v 0.42098 1.24867 0.29764
v 0.13280 1.24867 0.63459
v 0.21487 0.87867 1.02679
v 0.21487 0.87867 1.02679
v 0.13280 1.24867 0.63459
v -0.37662 1.24867 0.54964
v -0.60938 0.87867 0.88933
v -0.60938 0.87867 0.88933
v -0.37662 1.24867 0.54964
v -0.58790 1.24867 0.18030
v -0.95124 0.87867 0.29173
v -0.95124 0.87867 0.29173
v -0.58790 1.24867 0.18030
v -0.63943 1.24867 -0.19610
v -1.03462 0.87867 -0.31730
v -1.03462 0.87867 -0.31730
v -0.63943 1.24867 -0.19610
v -0.27753 1.24867 -0.40504
v -0.44906 0.87867 -0.65537
v -0.44906 0.87867 -0.65537
v -0.27753 1.24867 -0.40504
v 0.09673 1.24867 -0.46225
v 0.15652 0.87867 -0.74794
v 0.15652 0.87867 -0.74794
v 0.09673 1.24867 -0.46225
v 0.44104 1.24867 -0.31182
v 0.71362 0.87867 -0.50454
v 0.71362 0.87867 -0.50454
v 0.44104 1.24867 -0.31182
v 0.65748 1.24867 0.00000
v 1.06382 0.87867 0.00000
v 0.65748 1.24867 0.00000
v 0.00000 1.39000 0.00000
v 0.00000 1.39000 0.00000
v 0.42098 1.24867 0.29764
v 0.42098 1.24867 0.29764
v 0.00000 1.39000 0.00000
v 0.00000 1.39000 0.00000
v 0.13280 1.24867 0.63459
v 0.13280 1.24867 0.63459
v 0.00000 1.39000 0.00000
v -0.00000 1.39000 0.00000
v -0.37662 1.24867 0.54964
v -0.37662 1.24867 0.54964
v -0.00000 1.39000 0.00000
v -0.00000 1.39000 0.00000
v -0.58790 1.24867 0.18030
v -0.58790 1.24867 0.18030
v -0.00000 1.39000 0.00000
v -0.00000 1.39000 -0.00000
v -0.63943 1.24867 -0.19610
v -0.63943 1.24867 -0.19610
v -0.00000 1.39000 -0.00000
v -0.00000 1.39000 -0.00000
v -0.27753 1.24867 -0.40504
v -0.27753 1.24867 -0.40504
v -0.00000 1.39000 -0.00000
v 0.00000 1.39000 -0.00000
v 0.09673 1.24867 -0.46225
v 0.09673 1.24867 -0.46225
v 0.00000 1.39000 -0.00000
v 0.00000 1.39000 -0.00000
v 0.44104 1.24867 -0.31182
v 0.44104 1.24867 -0.31182
v 0.00000 1.39000 -0.00000
v 0.00000 1.39000 0.00000
v 0.65748 1.24867 0.00000
vt 0.00000 0.00000
vt 1.00000 0.00000
vt 1.00000 1.00000
vt 0.00000 1.00000
vt 0.00000 0.00000
vt 1.00000 0.00000
vt 1.00000 1.00000
vt 0.00000 1.00000
vt 0.00000 0.00000
vt 1.00000 0.00000
vt 1.00000 1.00000
vt 0.00000 1.00000
vt 0.00000 0.00000
vt 1.00000 0.00000
vt 1.00000 1.00000
vt 0.00000 1.00000
vt 0.00000 0.00000
vt 1.00000 0.00000
vt 1.00000 1.00000
vt 0.00000 1.00000
vt 0.00000 0.00000
vt 1.00000 0.00000
vt 1.00000 1.00000
vt 0.00000 1.00000
vt 0.00000 0.00000
vt 1.00000 0.00000
vt 1.00000 1.00000
vt 0.00000 1.00000
vt 0.00000 0.00000
vt 1.00000 0.00000
vt 1.00000 1.00000
vt 0.00000 1.00000
vt 0.00000 0.00000
vt 1.00000 0.00000
vt 1.00000 1.00000
vt 0.00000 1.00000
vt 0.00000 0.00000
vt 1.00000 0.00000
vt 1.00000 1.00000
vt 0.00000 1.00000
vt 0.00000 0.00000
vt 1.00000 0.00000
vt 1.00000 1.00000
vt 0.00000 1.00000
vt 0.00000 0.00000
vt 1.00000 0.00000
vt 1.00000 1.00000
vt 0.00000 1.00000
vt 0.00000 0.00000
vt 1.00000 0.00000
vt 1.00000 1.00000
vt 0.00000 1.00000
vt 0.00000 0.00000
vt 1.00000 0.00000
vt 1.00000 1.00000
vt 0.00000 1.00000
vt 0.00000 0.00000
vt 1.00000 0.00000
vt 1.00000 1.00000
vt 0.00000 1.00000
vt 0.00000 0.00000
vt 1.00000 0.00000
vt 1.00000 1.00000
vt 0.00000 1.00000
vt 0.00000 0.00000
vt 1.00000 0.00000
vt 1.00000 1.00000
vt 0.00000 1.00000
vt 0.00000 0.00000
vt 1.00000 0.00000
vt 1.00000 1.00000
vt 0.00000 1.00000
vt 0.00000 0.00000
vt 1.00000 0.00000
vt 1.00000 1.00000
vt 0.00000 1.00000
vt 0.00000 0.00000
vt 1.00000 0.00000
vt 1.00000 1.00000
vt 0.00000 1.00000
vt 0.00000 0.00000
vt 1.00000 0.00000
vt 1.00000 1.00000
vt 0.00000 1.00000
vt 0.00000 0.00000
vt 1.00000 0.00000
vt 1.00000 1.00000
vt 0.00000 1.00000
vt 0.00000 0.00000
vt 1.00000 0.00000
vt 1.00000 1.00000
vt 0.00000 1.00000
vt 0.00000 0.00000
vt 1.00000 0.00000
vt 1.00000 1.00000
vt 0.00000 1.00000
vt 0.00000 0.00000
vt 1.00000 0.00000
vt 1.00000 1.00000
vt 0.00000 1.00000
vt 0.00000 0.00000
vt 1.00000 0.00000
vt 1.00000 1.00000
vt 0.00000 1.00000
vt 0.00000 0.00000
vt 1.00000 0.00000
vt 1.00000 1.00000
vt 0.00000 1.00000
vt 0.00000 0.00000
vt 1.00000 0.00000
vt 1.00000 1.00000
vt 0.00000 1.00000
vt 0.00000 0.00000
vt 1.00000 0.00000
vt 1.00000 1.00000
vt 0.00000 1.00000
vt 0.00000 0.00000
vt 1.00000 0.00000
vt 1.00000 1.00000
vt 0.00000 1.00000
vt 0.00000 0.00000
vt 1.00000 0.00000
vt 1.00000 1.00000
vt 0.00000 1.00000
vt 0.00000 0.00000
vt 1.00000 0.00000
vt 1.00000 1.00000
vt 0.00000 1.00000
vt 0.00000 0.00000
vt 1.00000 0.00000
vt 1.00000 1.00000
vt 0.00000 1.00000
vt 0.00000 0.00000
vt 1.00000 0.00000
vt 1.00000 1.00000
vt 0.00000 1.00000
vt 0.00000 0.00000
vt 1.00000 0.00000
vt 1.00000 1.00000
vt 0.00000 1.00000
vt 0.00000 0.00000
vt 1.00000 0.00000
vt 1.00000 1.00000
vt 0.00000 1.00000
vt 0.00000 0.00000
vt 1.00000 0.00000
vt 1.00000 1.00000
vt 0.00000 1.00000
vt 0.00000 0.00000
vt 1.00000 0.00000
vt 1.00000 1.00000
vt 0.00000 1.00000
vt 0.00000 0.00000
vt 1.00000 0.00000
vt 1.00000 1.00000
vt 0.00000 1.00000
vt 0.00000 0.00000
vt 1.00000 0.00000
vt 1.00000 1.00000
vt 0.00000 1.00000
vt 0.00000 0.00000
vt 1.00000 0.00000
vt 1.00000 1.00000
vt 0.00000 1.00000
vt 0.00000 0.00000
vt 1.00000 0.00000
vt 1.00000 1.00000
vt 0.00000 1.00000
vt 0.00000 0.00000
vt 1.00000 0.00000
vt 1.00000 1.00000
vt 0.00000 1.00000
vt 0.00000 0.00000
vt 1.00000 0.00000
vt 1.00000 1.00000
vt 0.00000 1.00000
vt 0.00000 0.00000
vt 1.00000 0.00000
vt 1.00000 1.00000
vt 0.00000 1.00000
vn 0.37166 -0.92268 0.10257
vn 0.19171 -0.92687 0.32273
vn -0.08300 -0.91138 0.40312
vn -0.32830 -0.91131 0.24845
vn -0.41671 -0.90902 -0.00537
vn -0.31694 -0.92541 -0.20778
vn -0.06411 -0.94937 -0.30754
vn 0.18946 -0.94325 -0.27272
vn 0.37741 -0.91983 -0.10713
vn 0.83929 -0.49187 0.23163
vn 0.44123 -0.50359 0.74277
vn -0.17871 -0.46327 0.86801
vn -0.70673 -0.46311 0.53485
vn -0.88898 -0.45780 -0.01145
vn -0.72455 -0.49941 -0.47499
vn -0.16613 -0.58077 -0.79694
vn 0.47388 -0.55694 -0.68210
vn 0.84167 -0.48426 -0.23892
vn 0.96396 0.00000 0.26604
vn 0.51072 0.00000 0.85975
vn -0.20166 0.00000 0.97946
vn -0.79739 0.00000 0.60346
vn -0.99992 0.00000 -0.01288
vn -0.83631 0.00000 -0.54826
vn -0.20408 0.00000 -0.97895
vn 0.57055 0.00000 -0.82126
vn 0.96199 0.00000 -0.27307
vn 0.83929 0.49187 0.23163
vn 0.44123 0.50359 0.74277
vn -0.17871 0.46327 0.86801
vn -0.70673 0.46311 0.53485
vn -0.88898 0.45780 -0.01145
vn -0.72455 0.49941 -0.47499
vn -0.16613 0.58077 -0.79694
vn 0.47388 0.55694 -0.68210
vn 0.84167 0.48426 -0.23892
vn 0.37166 0.92268 0.10257
vn 0.19171 0.92687 0.32273
vn -0.08300 0.91138 0.40312
vn -0.32830 0.91131 0.24845
vn -0.41671 0.90902 -0.00537
vn -0.31694 0.92541 -0.20778
vn -0.06411 0.94937 -0.30754
vn 0.18946 0.94325 -0.27272
vn 0.37741 0.91983 -0.10713
o CanyonRock
usemtl Stone
f 1/1/1 2/2/1 3/3/1 4/4/1
f 5/5/2 6/6/2 7/7/2 8/8/2
f 9/9/3 10/10/3 11/11/3 12/12/3
f 13/13/4 14/14/4 15/15/4 16/16/4
f 17/17/5 18/18/5 19/19/5 20/20/5
f 21/21/6 22/22/6 23/23/6 24/24/6
f 25/25/7 26/26/7 27/27/7 28/28/7
f 29/29/8 30/30/8 31/31/8 32/32/8
f 33/33/9 34/34/9 35/35/9 36/36/9
f 37/37/10 38/38/10 39/39/10 40/40/10
f 41/41/11 42/42/11 43/43/11 44/44/11
f 45/45/12 46/46/12 47/47/12 48/48/12
f 49/49/13 50/50/13 51/51/13 52/52/13
f 53/53/14 54/54/14 55/55/14 56/56/14
f 57/57/15 58/58/15 59/59/15 60/60/15
f 61/61/16 62/62/16 63/63/16 64/64/16
f 65/65/17 66/66/17 67/67/17 68/68/17
f 69/69/18 70/70/18 71/71/18 72/72/18
f 73/73/19 74/74/19 75/75/19 76/76/19
f 77/77/20 78/78/20 79/79/20 80/80/20
f 81/81/21 82/82/21 83/83/21 84/84/21
f 85/85/22 86/86/22 87/87/22 88/88/22
f 89/89/23 90/90/23 91/91/23 92/92/23
f 93/93/24 94/94/24 95/95/24 96/96/24
f 97/97/25 98/98/25 99/99/25 100/100/25
f 101/101/26 102/102/26 103/103/26 104/104/26
f 105/105/27 106/106/27 107/107/27 108/108/27
f 109/109/28 110/110/28 111/111/28 112/112/28
f 113/113/29 114/114/29 115/115/29 116/116/29
f 117/117/30 118/118/30 119/119/30 120/120/30
f 121/121/31 122/122/31 123/123/31 124/124/31
f 125/125/32 126/126/32 127/127/32 128/128/32
f 129/129/33 130/130/33 131/131/33 132/132/33
f 133/133/34 134/134/34 135/135/34 136/136/34
f 137/137/35 138/138/35 139/139/35 140/140/35
f 141/141/36 142/142/36 143/143/36 144/144/36
f 145/145/37 146/146/37 147/147/37 148/148/37
f 149/149/38 150/150/38 151/151/38 152/152/38
f 153/153/39 154/154/39 155/155/39 156/156/39
f 157/157/40 158/158/40 159/159/40 160/160/40
f 161/161/41 162/162/41 163/163/41 164/164/41
f 165/165/42 166/166/42 167/167/42 168/168/42
f 169/169/43 170/170/43 171/171/43 172/172/43
f 173/173/44 174/174/44 175/175/44 176/176/44
f 177/177/45 178/178/45 179/179/45 180/180/45
