{"asset":{"version":"2.0","generator":"Dustbound original component-preserving asset generator"},"scene":0,"scenes":[{"nodes":[0]}],"nodes":[{"name":"canyon_rock","children":[1]},{"name":"CanyonRock","mesh":0,"translation":[0.014599999999999946,0.6499999999999999,0.13942500000000002]}],"meshes":[{"name":"CanyonRock","primitives":[{"attributes":{"POSITION":0,"NORMAL":1,"TEXCOORD_0":2},"indices":3,"material":0,"mode":4}]}],"materials":[{"name":"Stone","pbrMetallicRoughness":{"baseColorFactor":[1.0,1.0,1.0,1.0],"roughnessFactor":0.96,"metallicFactor":0.0,"baseColorTexture":{"index":0}}}],"samplers":[{"magFilter":9729,"minFilter":9987,"wrapS":10497,"wrapT":10497}],"images":[{"uri":"../textures/canyon_stone.png"}],"textures":[{"source":0,"sampler":0}],"buffers":[{"byteLength":6840,"uri":"data:application/octet-stream;base64,"}],"bufferViews":[{"buffer":0,"byteOffset":0,"byteLength":2160,"target":34962},{"buffer":0,"byteOffset":2160,"byteLength":2160,"target":34962},{"buffer":0,"byteOffset":4320,"byteLength":1440,"target":34962},{"buffer":0,"byteOffset":5760,"byteLength":1080,"target":34963}],"accessors":[{"bufferView":0,"componentType":5126,"count":180,"type":"VEC3","min":[-1.04922,-0.7399999999999999,-0.8873650000000001],"max":[1.04922,0.74,0.8873650000000001]},{"bufferView":1,"componentType":5126,"count":180,"type":"VEC3"},{"bufferView":2,"componentType":5126,"count":180,"type":"VEC2"},{"bufferView":3,"componentType":5125,"count":270,"type":"SCALAR"}]}