# Original Dustbound Expeditions low-poly model
mtllib dustbound.mtl
v 0.00000 0.37000 0.00000
v 0.20826 0.43734 0.00000
v 0.18036 0.43734 0.07810
v 0.00000 0.37000 0.00000
v 0.00000 0.37000 0.00000
v 0.18036 0.43734 0.07810
v 0.10413 0.43734 0.13527
v 0.00000 0.37000 0.00000
v 0.00000 0.37000 0.00000
v 0.10413 0.43734 0.13527
v 0.00000 0.43734 0.15620
v 0.00000 0.37000 0.00000
v 0.00000 0.37000 0.00000
v 0.00000 0.43734 0.15620
v -0.10413 0.43734 0.13527
v -0.00000 0.37000 0.00000
v -0.00000 0.37000 0.00000
v -0.10413 0.43734 0.13527
v -0.18036 0.43734 0.07810
v -0.00000 0.37000 0.00000
v -0.00000 0.37000 0.00000
v -0.18036 0.43734 0.07810
v -0.20826 0.43734 0.00000
v -0.00000 0.37000 0.00000
v -0.00000 0.37000 0.00000
v -0.20826 0.43734 0.00000
v -0.18036 0.43734 -0.07810
v -0.00000 0.37000 -0.00000
v -0.00000 0.37000 -0.00000
v -0.18036 0.43734 -0.07810
v -0.10413 0.43734 -0.13527
v -0.00000 0.37000 -0.00000
v -0.00000 0.37000 -0.00000
v -0.10413 0.43734 -0.13527
v -0.00000 0.43734 -0.15620
v -0.00000 0.37000 -0.00000
v -0.00000 0.37000 -0.00000
v -0.00000 0.43734 -0.15620
v 0.10413 0.43734 -0.13527
v 0.00000 0.37000 -0.00000
v 0.00000 0.37000 -0.00000
v 0.10413 0.43734 -0.13527
v 0.18036 0.43734 -0.07810
v 0.00000 0.37000 -0.00000
v 0.00000 0.37000 -0.00000
v 0.18036 0.43734 -0.07810
v 0.20826 0.43734 0.00000
v 0.00000 0.37000 0.00000
v 0.20826 0.43734 0.00000
v 0.37528 0.62603 0.00000
v 0.32500 0.62603 0.14073
v 0.18036 0.43734 0.07810
v 0.18036 0.43734 0.07810
v 0.32500 0.62603 0.14073
v 0.18764 0.62603 0.24375
v 0.10413 0.43734 0.13527
v 0.10413 0.43734 0.13527
v 0.18764 0.62603 0.24375
v 0.00000 0.62603 0.28146
v 0.00000 0.43734 0.15620
v 0.00000 0.43734 0.15620
v 0.00000 0.62603 0.28146
v -0.18764 0.62603 0.24375
v -0.10413 0.43734 0.13527
v -0.10413 0.43734 0.13527
v -0.18764 0.62603 0.24375
v -0.32500 0.62603 0.14073
v -0.18036 0.43734 0.07810
v -0.18036 0.43734 0.07810
v -0.32500 0.62603 0.14073
v -0.37528 0.62603 0.00000
v -0.20826 0.43734 0.00000
v -0.20826 0.43734 0.00000
v -0.37528 0.62603 0.00000
v -0.32500 0.62603 -0.14073
v -0.18036 0.43734 -0.07810
v -0.18036 0.43734 -0.07810
v -0.32500 0.62603 -0.14073
v -0.18764 0.62603 -0.24375
v -0.10413 0.43734 -0.13527
v -0.10413 0.43734 -0.13527
v -0.18764 0.62603 -0.24375
v -0.00000 0.62603 -0.28146
v -0.00000 0.43734 -0.15620
v -0.00000 0.43734 -0.15620
v -0.00000 0.62603 -0.28146
v 0.18764 0.62603 -0.24375
v 0.10413 0.43734 -0.13527
v 0.10413 0.43734 -0.13527
v 0.18764 0.62603 -0.24375
v 0.32500 0.62603 -0.14073
v 0.18036 0.43734 -0.07810
v 0.18036 0.43734 -0.07810
v 0.32500 0.62603 -0.14073
v 0.37528 0.62603 0.00000
v 0.20826 0.43734 0.00000
v 0.37528 0.62603 0.00000
v 0.46797 0.89869 0.00000
v 0.40527 0.89869 0.17549
v 0.32500 0.62603 0.14073
v 0.32500 0.62603 0.14073
v 0.40527 0.89869 0.17549
v 0.23398 0.89869 0.30395
v 0.18764 0.62603 0.24375
v 0.18764 0.62603 0.24375
v 0.23398 0.89869 0.30395
v 0.00000 0.89869 0.35097
v 0.00000 0.62603 0.28146
v 0.00000 0.62603 0.28146
v 0.00000 0.89869 0.35097
v -0.23398 0.89869 0.30395
v -0.18764 0.62603 0.24375
v -0.18764 0.62603 0.24375
v -0.23398 0.89869 0.30395
v -0.40527 0.89869 0.17549
v -0.32500 0.62603 0.14073
v -0.32500 0.62603 0.14073
v -0.40527 0.89869 0.17549
v -0.46797 0.89869 0.00000
v -0.37528 0.62603 0.00000
v -0.37528 0.62603 0.00000
v -0.46797 0.89869 0.00000
v -0.40527 0.89869 -0.17549
v -0.32500 0.62603 -0.14073
v -0.32500 0.62603 -0.14073
v -0.40527 0.89869 -0.17549
v -0.23398 0.89869 -0.30395
v -0.18764 0.62603 -0.24375
v -0.18764 0.62603 -0.24375
v -0.23398 0.89869 -0.30395
v -0.00000 0.89869 -0.35097
v -0.00000 0.62603 -0.28146
v -0.00000 0.62603 -0.28146
v -0.00000 0.89869 -0.35097
v 0.23398 0.89869 -0.30395
v 0.18764 0.62603 -0.24375
v 0.18764 0.62603 -0.24375
v 0.23398 0.89869 -0.30395
v 0.40527 0.89869 -0.17549
v 0.32500 0.62603 -0.14073
v 0.32500 0.62603 -0.14073
v 0.40527 0.89869 -0.17549
v 0.46797 0.89869 0.00000
v 0.37528 0.62603 0.00000
v 0.46797 0.89869 0.00000
v 0.46797 1.20131 0.00000
v 0.40527 1.20131 0.17549
v 0.40527 0.89869 0.17549
v 0.40527 0.89869 0.17549
v 0.40527 1.20131 0.17549
v 0.23398 1.20131 0.30395
v 0.23398 0.89869 0.30395
v 0.23398 0.89869 0.30395
v 0.23398 1.20131 0.30395
v 0.00000 1.20131 0.35097
v 0.00000 0.89869 0.35097
v 0.00000 0.89869 0.35097
v 0.00000 1.20131 0.35097
v -0.23398 1.20131 0.30395
v -0.23398 0.89869 0.30395
v -0.23398 0.89869 0.30395
v -0.23398 1.20131 0.30395
v -0.40527 1.20131 0.17549
v -0.40527 0.89869 0.17549
v -0.40527 0.89869 0.17549
v -0.40527 1.20131 0.17549
v -0.46797 1.20131 0.00000
v -0.46797 0.89869 0.00000
v -0.46797 0.89869 0.00000
v -0.46797 1.20131 0.00000
v -0.40527 1.20131 -0.17549
v -0.40527 0.89869 -0.17549
v -0.40527 0.89869 -0.17549
v -0.40527 1.20131 -0.17549
v -0.23398 1.20131 -0.30395
v -0.23398 0.89869 -0.30395
v -0.23398 0.89869 -0.30395
v -0.23398 1.20131 -0.30395
v -0.00000 1.20131 -0.35097
v -0.00000 0.89869 -0.35097
v -0.00000 0.89869 -0.35097
v -0.00000 1.20131 -0.35097
v 0.23398 1.20131 -0.30395
v 0.23398 0.89869 -0.30395
v 0.23398 0.89869 -0.30395
v 0.23398 1.20131 -0.30395
v 0.40527 1.20131 -0.17549
v 0.40527 0.89869 -0.17549
v 0.40527 0.89869 -0.17549
v 0.40527 1.20131 -0.17549
v 0.46797 1.20131 0.00000
v 0.46797 0.89869 0.00000
v 0.46797 1.20131 0.00000
v 0.37528 1.47397 0.00000
v 0.32500 1.47397 0.14073
v 0.40527 1.20131 0.17549
v 0.40527 1.20131 0.17549
v 0.32500 1.47397 0.14073
v 0.18764 1.47397 0.24375
v 0.23398 1.20131 0.30395
v 0.23398 1.20131 0.30395
v 0.18764 1.47397 0.24375
v 0.00000 1.47397 0.28146
v 0.00000 1.20131 0.35097
v 0.00000 1.20131 0.35097
v 0.00000 1.47397 0.28146
v -0.18764 1.47397 0.24375
v -0.23398 1.20131 0.30395
v -0.23398 1.20131 0.30395
v -0.18764 1.47397 0.24375
v -0.32500 1.47397 0.14073
v -0.40527 1.20131 0.17549
v -0.40527 1.20131 0.17549
v -0.32500 1.47397 0.14073
v -0.37528 1.47397 0.00000
v -0.46797 1.20131 0.00000
v -0.46797 1.20131 0.00000
v -0.37528 1.47397 0.00000
v -0.32500 1.47397 -0.14073
v -0.40527 1.20131 -0.17549
v -0.40527 1.20131 -0.17549
v -0.32500 1.47397 -0.14073
v -0.18764 1.47397 -0.24375
v -0.23398 1.20131 -0.30395
v -0.23398 1.20131 -0.30395
v -0.18764 1.47397 -0.24375
v -0.00000 1.47397 -0.28146
v -0.00000 1.20131 -0.35097
v -0.00000 1.20131 -0.35097
v -0.00000 1.47397 -0.28146
v 0.18764 1.47397 -0.24375
v 0.23398 1.20131 -0.30395
v 0.23398 1.20131 -0.30395
v 0.18764 1.47397 -0.24375
v 0.32500 1.47397 -0.14073
v 0.40527 1.20131 -0.17549
v 0.40527 1.20131 -0.17549
v 0.32500 1.47397 -0.14073
v 0.37528 1.47397 0.00000
v 0.46797 1.20131 0.00000
v 0.37528 1.47397 0.00000
v 0.20826 1.66266 0.00000
v 0.18036 1.66266 0.07810
v 0.32500 1.47397 0.14073
v 0.32500 1.47397 0.14073
v 0.18036 1.66266 0.07810
v 0.10413 1.66266 0.13527
v 0.18764 1.47397 0.24375
v 0.18764 1.47397 0.24375
v 0.10413 1.66266 0.13527
v 0.00000 1.66266 0.15620
v 0.00000 1.47397 0.28146
v 0.00000 1.47397 0.28146
v 0.00000 1.66266 0.15620
v -0.10413 1.66266 0.13527
v -0.18764 1.47397 0.24375
v -0.18764 1.47397 0.24375
v -0.10413 1.66266 0.13527
v -0.18036 1.66266 0.07810
v -0.32500 1.47397 0.14073
v -0.32500 1.47397 0.14073
v -0.18036 1.66266 0.07810
v -0.20826 1.66266 0.00000
v -0.37528 1.47397 0.00000
v -0.37528 1.47397 0.00000
v -0.20826 1.66266 0.00000
v -0.18036 1.66266 -0.07810
v -0.32500 1.47397 -0.14073
v -0.32500 1.47397 -0.14073
v -0.18036 1.66266 -0.07810
v -0.10413 1.66266 -0.13527
v -0.18764 1.47397 -0.24375
v -0.18764 1.47397 -0.24375
v -0.10413 1.66266 -0.13527
v -0.00000 1.66266 -0.15620
v -0.00000 1.47397 -0.28146
v -0.00000 1.47397 -0.28146
v -0.00000 1.66266 -0.15620
v 0.10413 1.66266 -0.13527
v 0.18764 1.47397 -0.24375
v 0.18764 1.47397 -0.24375
v 0.10413 1.66266 -0.13527
v 0.18036 1.66266 -0.07810
v 0.32500 1.47397 -0.14073
v 0.32500 1.47397 -0.14073
v 0.18036 1.66266 -0.07810
v 0.20826 1.66266 0.00000
v 0.37528 1.47397 0.00000
v 0.20826 1.66266 0.00000
v 0.00000 1.73000 0.00000
v 0.00000 1.73000 0.00000
v 0.18036 1.66266 0.07810
v 0.18036 1.66266 0.07810
v 0.00000 1.73000 0.00000
v 0.00000 1.73000 0.00000
v 0.10413 1.66266 0.13527
v 0.10413 1.66266 0.13527
v 0.00000 1.73000 0.00000
v 0.00000 1.73000 0.00000
v 0.00000 1.66266 0.15620
v 0.00000 1.66266 0.15620
v 0.00000 1.73000 0.00000
v -0.00000 1.73000 0.00000
v -0.10413 1.66266 0.13527
v -0.10413 1.66266 0.13527
v -0.00000 1.73000 0.00000
v -0.00000 1.73000 0.00000
v -0.18036 1.66266 0.07810
v -0.18036 1.66266 0.07810
v -0.00000 1.73000 0.00000
v -0.00000 1.73000 0.00000
v -0.20826 1.66266 0.00000
v -0.20826 1.66266 0.00000
v -0.00000 1.73000 0.00000
v -0.00000 1.73000 -0.00000
v -0.18036 1.66266 -0.07810
v -0.18036 1.66266 -0.07810
v -0.00000 1.73000 -0.00000
v -0.00000 1.73000 -0.00000
v -0.10413 1.66266 -0.13527
v -0.10413 1.66266 -0.13527
v -0.00000 1.73000 -0.00000
v -0.00000 1.73000 -0.00000
v -0.00000 1.66266 -0.15620
v -0.00000 1.66266 -0.15620
v -0.00000 1.73000 -0.00000
v 0.00000 1.73000 -0.00000
v 0.10413 1.66266 -0.13527
v 0.10413 1.66266 -0.13527
v 0.00000 1.73000 -0.00000
v 0.00000 1.73000 -0.00000
v 0.18036 1.66266 -0.07810
v 0.18036 1.66266 -0.07810
v 0.00000 1.73000 -0.00000
v 0.00000 1.73000 0.00000
v 0.20826 1.66266 0.00000
v 0.00000 1.54000 -0.03000
v 0.15620 1.57763 -0.03000
v 0.13527 1.57763 0.04593
v 0.00000 1.54000 -0.03000
v 0.00000 1.54000 -0.03000
v 0.13527 1.57763 0.04593
v 0.07810 1.57763 0.10151
v 0.00000 1.54000 -0.03000
v 0.00000 1.54000 -0.03000
v 0.07810 1.57763 0.10151
v 0.00000 1.57763 0.12186
v 0.00000 1.54000 -0.03000
v 0.00000 1.54000 -0.03000
v 0.00000 1.57763 0.12186
v -0.07810 1.57763 0.10151
v -0.00000 1.54000 -0.03000
v -0.00000 1.54000 -0.03000
v -0.07810 1.57763 0.10151
v -0.13527 1.57763 0.04593
v -0.00000 1.54000 -0.03000
v -0.00000 1.54000 -0.03000
v -0.13527 1.57763 0.04593
v -0.15620 1.57763 -0.03000
v -0.00000 1.54000 -0.03000
v -0.00000 1.54000 -0.03000
v -0.15620 1.57763 -0.03000
v -0.13527 1.57763 -0.10593
v -0.00000 1.54000 -0.03000
v -0.00000 1.54000 -0.03000
v -0.13527 1.57763 -0.10593
v -0.07810 1.57763 -0.16151
v -0.00000 1.54000 -0.03000
v -0.00000 1.54000 -0.03000
v -0.07810 1.57763 -0.16151
v -0.00000 1.57763 -0.18186
v -0.00000 1.54000 -0.03000
v -0.00000 1.54000 -0.03000
v -0.00000 1.57763 -0.18186
v 0.07810 1.57763 -0.16151
v 0.00000 1.54000 -0.03000
v 0.00000 1.54000 -0.03000
v 0.07810 1.57763 -0.16151
v 0.13527 1.57763 -0.10593
v 0.00000 1.54000 -0.03000
v 0.00000 1.54000 -0.03000
v 0.13527 1.57763 -0.10593
v 0.15620 1.57763 -0.03000
v 0.00000 1.54000 -0.03000
v 0.15620 1.57763 -0.03000
v 0.28146 1.68307 -0.03000
v 0.24375 1.68307 0.10682
v 0.13527 1.57763 0.04593
v 0.13527 1.57763 0.04593
v 0.24375 1.68307 0.10682
v 0.14073 1.68307 0.20698
v 0.07810 1.57763 0.10151
v 0.07810 1.57763 0.10151
v 0.14073 1.68307 0.20698
v 0.00000 1.68307 0.24364
v 0.00000 1.57763 0.12186
v 0.00000 1.57763 0.12186
v 0.00000 1.68307 0.24364
v -0.14073 1.68307 0.20698
v -0.07810 1.57763 0.10151
v -0.07810 1.57763 0.10151
v -0.14073 1.68307 0.20698
v -0.24375 1.68307 0.10682
v -0.13527 1.57763 0.04593
v -0.13527 1.57763 0.04593
v -0.24375 1.68307 0.10682
v -0.28146 1.68307 -0.03000
v -0.15620 1.57763 -0.03000
v -0.15620 1.57763 -0.03000
v -0.28146 1.68307 -0.03000
v -0.24375 1.68307 -0.16682
v -0.13527 1.57763 -0.10593
v -0.13527 1.57763 -0.10593
v -0.24375 1.68307 -0.16682
v -0.14073 1.68307 -0.26698
v -0.07810 1.57763 -0.16151
v -0.07810 1.57763 -0.16151
v -0.14073 1.68307 -0.26698
v -0.00000 1.68307 -0.30364
v -0.00000 1.57763 -0.18186
v -0.00000 1.57763 -0.18186
v -0.00000 1.68307 -0.30364
v 0.14073 1.68307 -0.26698
v 0.07810 1.57763 -0.16151
v 0.07810 1.57763 -0.16151
v 0.14073 1.68307 -0.26698
v 0.24375 1.68307 -0.16682
v 0.13527 1.57763 -0.10593
v 0.13527 1.57763 -0.10593
v 0.24375 1.68307 -0.16682
v 0.28146 1.68307 -0.03000
v 0.15620 1.57763 -0.03000
v 0.28146 1.68307 -0.03000
v 0.35097 1.83544 -0.03000
v 0.30395 1.83544 0.14061
v 0.24375 1.68307 0.10682
v 0.24375 1.68307 0.10682
v 0.30395 1.83544 0.14061
v 0.17549 1.83544 0.26551
v 0.14073 1.68307 0.20698
v 0.14073 1.68307 0.20698
v 0.17549 1.83544 0.26551
v 0.00000 1.83544 0.31122
v 0.00000 1.68307 0.24364
v 0.00000 1.68307 0.24364
v 0.00000 1.83544 0.31122
v -0.17549 1.83544 0.26551
v -0.14073 1.68307 0.20698
v -0.14073 1.68307 0.20698
v -0.17549 1.83544 0.26551
v -0.30395 1.83544 0.14061
v -0.24375 1.68307 0.10682
v -0.24375 1.68307 0.10682
v -0.30395 1.83544 0.14061
v -0.35097 1.83544 -0.03000
v -0.28146 1.68307 -0.03000
v -0.28146 1.68307 -0.03000
v -0.35097 1.83544 -0.03000
v -0.30395 1.83544 -0.20061
v -0.24375 1.68307 -0.16682
v -0.24375 1.68307 -0.16682
v -0.30395 1.83544 -0.20061
v -0.17549 1.83544 -0.32551
v -0.14073 1.68307 -0.26698
v -0.14073 1.68307 -0.26698
v -0.17549 1.83544 -0.32551
v -0.00000 1.83544 -0.37122
v -0.00000 1.68307 -0.30364
v -0.00000 1.68307 -0.30364
v -0.00000 1.83544 -0.37122
v 0.17549 1.83544 -0.32551
v 0.14073 1.68307 -0.26698
v 0.14073 1.68307 -0.26698
v 0.17549 1.83544 -0.32551
v 0.30395 1.83544 -0.20061
v 0.24375 1.68307 -0.16682
v 0.24375 1.68307 -0.16682
v 0.30395 1.83544 -0.20061
v 0.35097 1.83544 -0.03000
v 0.28146 1.68307 -0.03000
v 0.35097 1.83544 -0.03000
v 0.35097 2.00456 -0.03000
v 0.30395 2.00456 0.14061
v 0.30395 1.83544 0.14061
v 0.30395 1.83544 0.14061
v 0.30395 2.00456 0.14061
v 0.17549 2.00456 0.26551
v 0.17549 1.83544 0.26551
v 0.17549 1.83544 0.26551
v 0.17549 2.00456 0.26551
v 0.00000 2.00456 0.31122
v 0.00000 1.83544 0.31122
v 0.00000 1.83544 0.31122
v 0.00000 2.00456 0.31122
v -0.17549 2.00456 0.26551
v -0.17549 1.83544 0.26551
v -0.17549 1.83544 0.26551
v -0.17549 2.00456 0.26551
v -0.30395 2.00456 0.14061
v -0.30395 1.83544 0.14061
v -0.30395 1.83544 0.14061
v -0.30395 2.00456 0.14061
v -0.35097 2.00456 -0.03000
v -0.35097 1.83544 -0.03000
v -0.35097 1.83544 -0.03000
v -0.35097 2.00456 -0.03000
v -0.30395 2.00456 -0.20061
v -0.30395 1.83544 -0.20061
v -0.30395 1.83544 -0.20061
v -0.30395 2.00456 -0.20061
v -0.17549 2.00456 -0.32551
v -0.17549 1.83544 -0.32551
v -0.17549 1.83544 -0.32551
v -0.17549 2.00456 -0.32551
v -0.00000 2.00456 -0.37122
v -0.00000 1.83544 -0.37122
v -0.00000 1.83544 -0.37122
v -0.00000 2.00456 -0.37122
v 0.17549 2.00456 -0.32551
v 0.17549 1.83544 -0.32551
v 0.17549 1.83544 -0.32551
v 0.17549 2.00456 -0.32551
v 0.30395 2.00456 -0.20061
v 0.30395 1.83544 -0.20061
v 0.30395 1.83544 -0.20061
v 0.30395 2.00456 -0.20061
v 0.35097 2.00456 -0.03000
v 0.35097 1.83544 -0.03000
v 0.35097 2.00456 -0.03000
v 0.28146 2.15693 -0.03000
v 0.24375 2.15693 0.10682
v 0.30395 2.00456 0.14061
v 0.30395 2.00456 0.14061
v 0.24375 2.15693 0.10682
v 0.14073 2.15693 0.20698
v 0.17549 2.00456 0.26551
v 0.17549 2.00456 0.26551
v 0.14073 2.15693 0.20698
v 0.00000 2.15693 0.24364
v 0.00000 2.00456 0.31122
v 0.00000 2.00456 0.31122
v 0.00000 2.15693 0.24364
v -0.14073 2.15693 0.20698
v -0.17549 2.00456 0.26551
v -0.17549 2.00456 0.26551
v -0.14073 2.15693 0.20698
v -0.24375 2.15693 0.10682
v -0.30395 2.00456 0.14061
v -0.30395 2.00456 0.14061
v -0.24375 2.15693 0.10682
v -0.28146 2.15693 -0.03000
v -0.35097 2.00456 -0.03000
v -0.35097 2.00456 -0.03000
v -0.28146 2.15693 -0.03000
v -0.24375 2.15693 -0.16682
v -0.30395 2.00456 -0.20061
v -0.30395 2.00456 -0.20061
v -0.24375 2.15693 -0.16682
v -0.14073 2.15693 -0.26698
v -0.17549 2.00456 -0.32551
v -0.17549 2.00456 -0.32551
v -0.14073 2.15693 -0.26698
v -0.00000 2.15693 -0.30364
v -0.00000 2.00456 -0.37122
v -0.00000 2.00456 -0.37122
v -0.00000 2.15693 -0.30364
v 0.14073 2.15693 -0.26698
v 0.17549 2.00456 -0.32551
v 0.17549 2.00456 -0.32551
v 0.14073 2.15693 -0.26698
v 0.24375 2.15693 -0.16682
v 0.30395 2.00456 -0.20061
v 0.30395 2.00456 -0.20061
v 0.24375 2.15693 -0.16682
v 0.28146 2.15693 -0.03000
v 0.35097 2.00456 -0.03000
v 0.28146 2.15693 -0.03000
v 0.15620 2.26237 -0.03000
v 0.13527 2.26237 0.04593
v 0.24375 2.15693 0.10682
v 0.24375 2.15693 0.10682
v 0.13527 2.26237 0.04593
v 0.07810 2.26237 0.10151
v 0.14073 2.15693 0.20698
v 0.14073 2.15693 0.20698
v 0.07810 2.26237 0.10151
v 0.00000 2.26237 0.12186
v 0.00000 2.15693 0.24364
v 0.00000 2.15693 0.24364
v 0.00000 2.26237 0.12186
v -0.07810 2.26237 0.10151
v -0.14073 2.15693 0.20698
v -0.14073 2.15693 0.20698
v -0.07810 2.26237 0.10151
v -0.13527 2.26237 0.04593
v -0.24375 2.15693 0.10682
v -0.24375 2.15693 0.10682
v -0.13527 2.26237 0.04593
v -0.15620 2.26237 -0.03000
v -0.28146 2.15693 -0.03000
v -0.28146 2.15693 -0.03000
v -0.15620 2.26237 -0.03000
v -0.13527 2.26237 -0.10593
v -0.24375 2.15693 -0.16682
v -0.24375 2.15693 -0.16682
v -0.13527 2.26237 -0.10593
v -0.07810 2.26237 -0.16151
v -0.14073 2.15693 -0.26698
v -0.14073 2.15693 -0.26698
v -0.07810 2.26237 -0.16151
v -0.00000 2.26237 -0.18186
v -0.00000 2.15693 -0.30364
v -0.00000 2.15693 -0.30364
v -0.00000 2.26237 -0.18186
v 0.07810 2.26237 -0.16151
v 0.14073 2.15693 -0.26698
v 0.14073 2.15693 -0.26698
v 0.07810 2.26237 -0.16151
v 0.13527 2.26237 -0.10593
v 0.24375 2.15693 -0.16682
v 0.24375 2.15693 -0.16682
v 0.13527 2.26237 -0.10593
v 0.15620 2.26237 -0.03000
v 0.28146 2.15693 -0.03000
v 0.15620 2.26237 -0.03000
v 0.00000 2.30000 -0.03000
v 0.00000 2.30000 -0.03000
v 0.13527 2.26237 0.04593
v 0.13527 2.26237 0.04593
v 0.00000 2.30000 -0.03000
v 0.00000 2.30000 -0.03000
v 0.07810 2.26237 0.10151
v 0.07810 2.26237 0.10151
v 0.00000 2.30000 -0.03000
v 0.00000 2.30000 -0.03000
v 0.00000 2.26237 0.12186
v 0.00000 2.26237 0.12186
v 0.00000 2.30000 -0.03000
v -0.00000 2.30000 -0.03000
v -0.07810 2.26237 0.10151
v -0.07810 2.26237 0.10151
v -0.00000 2.30000 -0.03000
v -0.00000 2.30000 -0.03000
v -0.13527 2.26237 0.04593
v -0.13527 2.26237 0.04593
v -0.00000 2.30000 -0.03000
v -0.00000 2.30000 -0.03000
v -0.15620 2.26237 -0.03000
v -0.15620 2.26237 -0.03000
v -0.00000 2.30000 -0.03000
v -0.00000 2.30000 -0.03000
v -0.13527 2.26237 -0.10593
v -0.13527 2.26237 -0.10593
v -0.00000 2.30000 -0.03000
v -0.00000 2.30000 -0.03000
v -0.07810 2.26237 -0.16151
v -0.07810 2.26237 -0.16151
v -0.00000 2.30000 -0.03000
v -0.00000 2.30000 -0.03000
v -0.00000 2.26237 -0.18186
v -0.00000 2.26237 -0.18186
v -0.00000 2.30000 -0.03000
v 0.00000 2.30000 -0.03000
v 0.07810 2.26237 -0.16151
v 0.07810 2.26237 -0.16151
v 0.00000 2.30000 -0.03000
v 0.00000 2.30000 -0.03000
v 0.13527 2.26237 -0.10593
v 0.13527 2.26237 -0.10593
v 0.00000 2.30000 -0.03000
v 0.00000 2.30000 -0.03000
v 0.15620 2.26237 -0.03000
v 0.00000 1.79000 -0.35000
v 0.06466 1.80719 -0.35000
v 0.04572 1.80719 -0.29181
v 0.00000 1.79000 -0.35000
v 0.00000 1.79000 -0.35000
v 0.04572 1.80719 -0.29181
v 0.00000 1.80719 -0.26771
v 0.00000 1.79000 -0.35000
v 0.00000 1.79000 -0.35000
v 0.00000 1.80719 -0.26771
v -0.04572 1.80719 -0.29181
v -0.00000 1.79000 -0.35000
v -0.00000 1.79000 -0.35000
v -0.04572 1.80719 -0.29181
v -0.06466 1.80719 -0.35000
v -0.00000 1.79000 -0.35000
v -0.00000 1.79000 -0.35000
v -0.06466 1.80719 -0.35000
v -0.04572 1.80719 -0.40819
v -0.00000 1.79000 -0.35000
v -0.00000 1.79000 -0.35000
v -0.04572 1.80719 -0.40819
v -0.00000 1.80719 -0.43229
v -0.00000 1.79000 -0.35000
v -0.00000 1.79000 -0.35000
v -0.00000 1.80719 -0.43229
v 0.04572 1.80719 -0.40819
v 0.00000 1.79000 -0.35000
v 0.00000 1.79000 -0.35000
v 0.04572 1.80719 -0.40819
v 0.06466 1.80719 -0.35000
v 0.00000 1.79000 -0.35000
v 0.06466 1.80719 -0.35000
v 0.10462 1.85219 -0.35000
v 0.07397 1.85219 -0.25585
v 0.04572 1.80719 -0.29181
v 0.04572 1.80719 -0.29181
v 0.07397 1.85219 -0.25585
v 0.00000 1.85219 -0.21685
v 0.00000 1.80719 -0.26771
v 0.00000 1.80719 -0.26771
v 0.00000 1.85219 -0.21685
v -0.07397 1.85219 -0.25585
v -0.04572 1.80719 -0.29181
v -0.04572 1.80719 -0.29181
v -0.07397 1.85219 -0.25585
v -0.10462 1.85219 -0.35000
v -0.06466 1.80719 -0.35000
v -0.06466 1.80719 -0.35000
v -0.10462 1.85219 -0.35000
v -0.07397 1.85219 -0.44415
v -0.04572 1.80719 -0.40819
v -0.04572 1.80719 -0.40819
v -0.07397 1.85219 -0.44415
v -0.00000 1.85219 -0.48315
v -0.00000 1.80719 -0.43229
v -0.00000 1.80719 -0.43229
v -0.00000 1.85219 -0.48315
v 0.07397 1.85219 -0.44415
v 0.04572 1.80719 -0.40819
v 0.04572 1.80719 -0.40819
v 0.07397 1.85219 -0.44415
v 0.10462 1.85219 -0.35000
v 0.06466 1.80719 -0.35000
v 0.10462 1.85219 -0.35000
v 0.10462 1.90781 -0.35000
v 0.07397 1.90781 -0.25585
v 0.07397 1.85219 -0.25585
v 0.07397 1.85219 -0.25585
v 0.07397 1.90781 -0.25585
v 0.00000 1.90781 -0.21685
v 0.00000 1.85219 -0.21685
v 0.00000 1.85219 -0.21685
v 0.00000 1.90781 -0.21685
v -0.07397 1.90781 -0.25585
v -0.07397 1.85219 -0.25585
v -0.07397 1.85219 -0.25585
v -0.07397 1.90781 -0.25585
v -0.10462 1.90781 -0.35000
v -0.10462 1.85219 -0.35000
v -0.10462 1.85219 -0.35000
v -0.10462 1.90781 -0.35000
v -0.07397 1.90781 -0.44415
v -0.07397 1.85219 -0.44415
v -0.07397 1.85219 -0.44415
v -0.07397 1.90781 -0.44415
v -0.00000 1.90781 -0.48315
v -0.00000 1.85219 -0.48315
v -0.00000 1.85219 -0.48315
v -0.00000 1.90781 -0.48315
v 0.07397 1.90781 -0.44415
v 0.07397 1.85219 -0.44415
v 0.07397 1.85219 -0.44415
v 0.07397 1.90781 -0.44415
v 0.10462 1.90781 -0.35000
v 0.10462 1.85219 -0.35000
v 0.10462 1.90781 -0.35000
v 0.06466 1.95281 -0.35000
v 0.04572 1.95281 -0.29181
v 0.07397 1.90781 -0.25585
v 0.07397 1.90781 -0.25585
v 0.04572 1.95281 -0.29181
v 0.00000 1.95281 -0.26771
v 0.00000 1.90781 -0.21685
v 0.00000 1.90781 -0.21685
v 0.00000 1.95281 -0.26771
v -0.04572 1.95281 -0.29181
v -0.07397 1.90781 -0.25585
v -0.07397 1.90781 -0.25585
v -0.04572 1.95281 -0.29181
v -0.06466 1.95281 -0.35000
v -0.10462 1.90781 -0.35000
v -0.10462 1.90781 -0.35000
v -0.06466 1.95281 -0.35000
v -0.04572 1.95281 -0.40819
v -0.07397 1.90781 -0.44415
v -0.07397 1.90781 -0.44415
v -0.04572 1.95281 -0.40819
v -0.00000 1.95281 -0.43229
v -0.00000 1.90781 -0.48315
v -0.00000 1.90781 -0.48315
v -0.00000 1.95281 -0.43229
v 0.04572 1.95281 -0.40819
v 0.07397 1.90781 -0.44415
v 0.07397 1.90781 -0.44415
v 0.04572 1.95281 -0.40819
v 0.06466 1.95281 -0.35000
v 0.10462 1.90781 -0.35000
v 0.06466 1.95281 -0.35000
v 0.00000 1.97000 -0.35000
v 0.00000 1.97000 -0.35000
v 0.04572 1.95281 -0.29181
v 0.04572 1.95281 -0.29181
v 0.00000 1.97000 -0.35000
v 0.00000 1.97000 -0.35000
v 0.00000 1.95281 -0.26771
v 0.00000 1.95281 -0.26771
v 0.00000 1.97000 -0.35000
v -0.00000 1.97000 -0.35000
v -0.04572 1.95281 -0.29181
v -0.04572 1.95281 -0.29181
v -0.00000 1.97000 -0.35000
v -0.00000 1.97000 -0.35000
v -0.06466 1.95281 -0.35000
v -0.06466 1.95281 -0.35000
v -0.00000 1.97000 -0.35000
v -0.00000 1.97000 -0.35000
v -0.04572 1.95281 -0.40819
v -0.04572 1.95281 -0.40819
v -0.00000 1.97000 -0.35000
v -0.00000 1.97000 -0.35000
v -0.00000 1.95281 -0.43229
v -0.00000 1.95281 -0.43229
v -0.00000 1.97000 -0.35000
v 0.00000 1.97000 -0.35000
v 0.04572 1.95281 -0.40819
v 0.04572 1.95281 -0.40819
v 0.00000 1.97000 -0.35000
v 0.00000 1.97000 -0.35000
v 0.06466 1.95281 -0.35000
v -0.06000 0.04500 0.00000
v -0.06000 0.69500 0.00000
v -0.09743 0.69500 0.10285
v -0.09743 0.04500 0.10285
v -0.09743 0.04500 0.10285
v -0.09743 0.69500 0.10285
v -0.19222 0.69500 0.15757
v -0.19222 0.04500 0.15757
v -0.19222 0.04500 0.15757
v -0.19222 0.69500 0.15757
v -0.30000 0.69500 0.13856
v -0.30000 0.04500 0.13856
v -0.30000 0.04500 0.13856
v -0.30000 0.69500 0.13856
v -0.37035 0.69500 0.05472
v -0.37035 0.04500 0.05472
v -0.37035 0.04500 0.05472
v -0.37035 0.69500 0.05472
v -0.37035 0.69500 -0.05472
v -0.37035 0.04500 -0.05472
v -0.37035 0.04500 -0.05472
v -0.37035 0.69500 -0.05472
v -0.30000 0.69500 -0.13856
v -0.30000 0.04500 -0.13856
v -0.30000 0.04500 -0.13856
v -0.30000 0.69500 -0.13856
v -0.19222 0.69500 -0.15757
v -0.19222 0.04500 -0.15757
v -0.19222 0.04500 -0.15757
v -0.19222 0.69500 -0.15757
v -0.09743 0.69500 -0.10285
v -0.09743 0.04500 -0.10285
v -0.09743 0.04500 -0.10285
v -0.09743 0.69500 -0.10285
v -0.06000 0.69500 0.00000
v -0.06000 0.04500 0.00000
v -0.06000 0.69500 0.00000
v -0.09743 0.69500 0.10285
v -0.19222 0.69500 0.15757
v -0.30000 0.69500 0.13856
v -0.37035 0.69500 0.05472
v -0.37035 0.69500 -0.05472
v -0.30000 0.69500 -0.13856
v -0.19222 0.69500 -0.15757
v -0.09743 0.69500 -0.10285
v -0.09743 0.04500 -0.10285
v -0.19222 0.04500 -0.15757
v -0.30000 0.04500 -0.13856
v -0.37035 0.04500 -0.05472
v -0.37035 0.04500 0.05472
v -0.30000 0.04500 0.13856
v -0.19222 0.04500 0.15757
v -0.09743 0.04500 0.10285
v -0.06000 0.04500 0.00000
v 0.38000 0.04500 0.00000
v 0.38000 0.69500 0.00000
v 0.34257 0.69500 0.10285
v 0.34257 0.04500 0.10285
v 0.34257 0.04500 0.10285
v 0.34257 0.69500 0.10285
v 0.24778 0.69500 0.15757
v 0.24778 0.04500 0.15757
v 0.24778 0.04500 0.15757
v 0.24778 0.69500 0.15757
v 0.14000 0.69500 0.13856
v 0.14000 0.04500 0.13856
v 0.14000 0.04500 0.13856
v 0.14000 0.69500 0.13856
v 0.06965 0.69500 0.05472
v 0.06965 0.04500 0.05472
v 0.06965 0.04500 0.05472
v 0.06965 0.69500 0.05472
v 0.06965 0.69500 -0.05472
v 0.06965 0.04500 -0.05472
v 0.06965 0.04500 -0.05472
v 0.06965 0.69500 -0.05472
v 0.14000 0.69500 -0.13856
v 0.14000 0.04500 -0.13856
v 0.14000 0.04500 -0.13856
v 0.14000 0.69500 -0.13856
v 0.24778 0.69500 -0.15757
v 0.24778 0.04500 -0.15757
v 0.24778 0.04500 -0.15757
v 0.24778 0.69500 -0.15757
v 0.34257 0.69500 -0.10285
v 0.34257 0.04500 -0.10285
v 0.34257 0.04500 -0.10285
v 0.34257 0.69500 -0.10285
v 0.38000 0.69500 0.00000
v 0.38000 0.04500 0.00000
v 0.38000 0.69500 0.00000
v 0.34257 0.69500 0.10285
v 0.24778 0.69500 0.15757
v 0.14000 0.69500 0.13856
v 0.06965 0.69500 0.05472
v 0.06965 0.69500 -0.05472
v 0.14000 0.69500 -0.13856
v 0.24778 0.69500 -0.15757
v 0.34257 0.69500 -0.10285
v 0.34257 0.04500 -0.10285
v 0.24778 0.04500 -0.15757
v 0.14000 0.04500 -0.13856
v 0.06965 0.04500 -0.05472
v 0.06965 0.04500 0.05472
v 0.14000 0.04500 0.13856
v 0.24778 0.04500 0.15757
v 0.34257 0.04500 0.10285
v 0.38000 0.04500 0.00000
v -0.41000 0.72000 0.00000
v -0.41000 1.44000 0.00000
v -0.43807 1.44000 0.07713
v -0.43807 0.72000 0.07713
v -0.43807 0.72000 0.07713
v -0.43807 1.44000 0.07713
v -0.50916 1.44000 0.11818
v -0.50916 0.72000 0.11818
v -0.50916 0.72000 0.11818
v -0.50916 1.44000 0.11818
v -0.59000 1.44000 0.10392
v -0.59000 0.72000 0.10392
v -0.59000 0.72000 0.10392
v -0.59000 1.44000 0.10392
v -0.64276 1.44000 0.04104
v -0.64276 0.72000 0.04104
v -0.64276 0.72000 0.04104
v -0.64276 1.44000 0.04104
v -0.64276 1.44000 -0.04104
v -0.64276 0.72000 -0.04104
v -0.64276 0.72000 -0.04104
v -0.64276 1.44000 -0.04104
v -0.59000 1.44000 -0.10392
v -0.59000 0.72000 -0.10392
v -0.59000 0.72000 -0.10392
v -0.59000 1.44000 -0.10392
v -0.50916 1.44000 -0.11818
v -0.50916 0.72000 -0.11818
v -0.50916 0.72000 -0.11818
v -0.50916 1.44000 -0.11818
v -0.43807 1.44000 -0.07713
v -0.43807 0.72000 -0.07713
v -0.43807 0.72000 -0.07713
v -0.43807 1.44000 -0.07713
v -0.41000 1.44000 0.00000
v -0.41000 0.72000 0.00000
v -0.41000 1.44000 0.00000
v -0.43807 1.44000 0.07713
v -0.50916 1.44000 0.11818
v -0.59000 1.44000 0.10392
v -0.64276 1.44000 0.04104
v -0.64276 1.44000 -0.04104
v -0.59000 1.44000 -0.10392
v -0.50916 1.44000 -0.11818
v -0.43807 1.44000 -0.07713
v -0.43807 0.72000 -0.07713
v -0.50916 0.72000 -0.11818
v -0.59000 0.72000 -0.10392
v -0.64276 0.72000 -0.04104
v -0.64276 0.72000 0.04104
v -0.59000 0.72000 0.10392
v -0.50916 0.72000 0.11818
v -0.43807 0.72000 0.07713
v -0.41000 0.72000 0.00000
v 0.65000 0.72000 0.00000
v 0.65000 1.44000 0.00000
v 0.62193 1.44000 0.07713
v 0.62193 0.72000 0.07713
v 0.62193 0.72000 0.07713
v 0.62193 1.44000 0.07713
v 0.55084 1.44000 0.11818
v 0.55084 0.72000 0.11818
v 0.55084 0.72000 0.11818
v 0.55084 1.44000 0.11818
v 0.47000 1.44000 0.10392
v 0.47000 0.72000 0.10392
v 0.47000 0.72000 0.10392
v 0.47000 1.44000 0.10392
v 0.41724 1.44000 0.04104
v 0.41724 0.72000 0.04104
v 0.41724 0.72000 0.04104
v 0.41724 1.44000 0.04104
v 0.41724 1.44000 -0.04104
v 0.41724 0.72000 -0.04104
v 0.41724 0.72000 -0.04104
v 0.41724 1.44000 -0.04104
v 0.47000 1.44000 -0.10392
v 0.47000 0.72000 -0.10392
v 0.47000 0.72000 -0.10392
v 0.47000 1.44000 -0.10392
v 0.55084 1.44000 -0.11818
v 0.55084 0.72000 -0.11818
v 0.55084 0.72000 -0.11818
v 0.55084 1.44000 -0.11818
v 0.62193 1.44000 -0.07713
v 0.62193 0.72000 -0.07713
v 0.62193 0.72000 -0.07713
v 0.62193 1.44000 -0.07713
v 0.65000 1.44000 0.00000
v 0.65000 0.72000 0.00000
v 0.65000 1.44000 0.00000
v 0.62193 1.44000 0.07713
v 0.55084 1.44000 0.11818
v 0.47000 1.44000 0.10392
v 0.41724 1.44000 0.04104
v 0.41724 1.44000 -0.04104
v 0.47000 1.44000 -0.10392
v 0.55084 1.44000 -0.11818
v 0.62193 1.44000 -0.07713
v 0.62193 0.72000 -0.07713
v 0.55084 0.72000 -0.11818
v 0.47000 0.72000 -0.10392
v 0.41724 0.72000 -0.04104
v 0.41724 0.72000 0.04104
v 0.47000 0.72000 0.10392
v 0.55084 0.72000 0.11818
v 0.62193 0.72000 0.07713
v 0.65000 0.72000 0.00000
v 0.37000 2.19000 -0.02000
v 0.37000 2.31000 -0.02000
v 0.32043 2.31000 0.16500
v 0.32043 2.19000 0.16500
v 0.32043 2.19000 0.16500
v 0.32043 2.31000 0.16500
v 0.18500 2.31000 0.30043
v 0.18500 2.19000 0.30043
v 0.18500 2.19000 0.30043
v 0.18500 2.31000 0.30043
v 0.00000 2.31000 0.35000
v 0.00000 2.19000 0.35000
v 0.00000 2.19000 0.35000
v 0.00000 2.31000 0.35000
v -0.18500 2.31000 0.30043
v -0.18500 2.19000 0.30043
v -0.18500 2.19000 0.30043
v -0.18500 2.31000 0.30043
v -0.32043 2.31000 0.16500
v -0.32043 2.19000 0.16500
v -0.32043 2.19000 0.16500
v -0.32043 2.31000 0.16500
v -0.37000 2.31000 -0.02000
v -0.37000 2.19000 -0.02000
v -0.37000 2.19000 -0.02000
v -0.37000 2.31000 -0.02000
v -0.32043 2.31000 -0.20500
v -0.32043 2.19000 -0.20500
v -0.32043 2.19000 -0.20500
v -0.32043 2.31000 -0.20500
v -0.18500 2.31000 -0.34043
v -0.18500 2.19000 -0.34043
v -0.18500 2.19000 -0.34043
v -0.18500 2.31000 -0.34043
v -0.00000 2.31000 -0.39000
v -0.00000 2.19000 -0.39000
v -0.00000 2.19000 -0.39000
v -0.00000 2.31000 -0.39000
v 0.18500 2.31000 -0.34043
v 0.18500 2.19000 -0.34043
v 0.18500 2.19000 -0.34043
v 0.18500 2.31000 -0.34043
v 0.32043 2.31000 -0.20500
v 0.32043 2.19000 -0.20500
v 0.32043 2.19000 -0.20500
v 0.32043 2.31000 -0.20500
v 0.37000 2.31000 -0.02000
v 0.37000 2.19000 -0.02000
v 0.37000 2.31000 -0.02000
v 0.32043 2.31000 0.16500
v 0.18500 2.31000 0.30043
v 0.00000 2.31000 0.35000
v -0.18500 2.31000 0.30043
v -0.32043 2.31000 0.16500
v -0.37000 2.31000 -0.02000
v -0.32043 2.31000 -0.20500
v -0.18500 2.31000 -0.34043
v -0.00000 2.31000 -0.39000
v 0.18500 2.31000 -0.34043
v 0.32043 2.31000 -0.20500
v 0.32043 2.19000 -0.20500
v 0.18500 2.19000 -0.34043
v -0.00000 2.19000 -0.39000
v -0.18500 2.19000 -0.34043
v -0.32043 2.19000 -0.20500
v -0.37000 2.19000 -0.02000
v -0.32043 2.19000 0.16500
v -0.18500 2.19000 0.30043
v 0.00000 2.19000 0.35000
v 0.18500 2.19000 0.30043
v 0.32043 2.19000 0.16500
v 0.37000 2.19000 -0.02000
v -0.24000 2.19500 -0.51000
v -0.24000 2.24500 -0.51000
v 0.24000 2.24500 -0.51000
v 0.24000 2.19500 -0.51000
v 0.24000 2.19500 -0.23000
v 0.24000 2.24500 -0.23000
v -0.24000 2.24500 -0.23000
v -0.24000 2.19500 -0.23000
v -0.24000 2.19500 -0.23000
v -0.24000 2.24500 -0.23000
v -0.24000 2.24500 -0.51000
v -0.24000 2.19500 -0.51000
v 0.24000 2.19500 -0.51000
v 0.24000 2.24500 -0.51000
v 0.24000 2.24500 -0.23000
v 0.24000 2.19500 -0.23000
v -0.24000 2.24500 -0.51000
v -0.24000 2.24500 -0.23000
v 0.24000 2.24500 -0.23000
v 0.24000 2.24500 -0.51000
v -0.24000 2.19500 -0.23000
v -0.24000 2.19500 -0.51000
v 0.24000 2.19500 -0.51000
v 0.24000 2.19500 -0.23000
v -0.29000 0.81000 0.27500
v -0.29000 1.53000 0.27500
v 0.29000 1.53000 0.27500
v 0.29000 0.81000 0.27500
v 0.29000 0.81000 0.50500
v 0.29000 1.53000 0.50500
v -0.29000 1.53000 0.50500
v -0.29000 0.81000 0.50500
v -0.29000 0.81000 0.50500
v -0.29000 1.53000 0.50500
v -0.29000 1.53000 0.27500
v -0.29000 0.81000 0.27500
v 0.29000 0.81000 0.27500
v 0.29000 1.53000 0.27500
v 0.29000 1.53000 0.50500
v 0.29000 0.81000 0.50500
v -0.29000 1.53000 0.27500
v -0.29000 1.53000 0.50500
v 0.29000 1.53000 0.50500
v 0.29000 1.53000 0.27500
v -0.29000 0.81000 0.50500
v -0.29000 0.81000 0.27500
v 0.29000 0.81000 0.27500
v 0.29000 0.81000 0.50500
vt 0.00000 0.00000
vt 1.00000 0.00000
vt 1.00000 1.00000
vt 0.00000 1.00000
vt 0.00000 0.00000
vt 1.00000 0.00000
vt 1.00000 1.00000
vt 0.00000 1.00000
vt 0.00000 0.00000
vt 1.00000 0.00000
vt 1.00000 1.00000
vt 0.00000 1.00000
vt 0.00000 0.00000
vt 1.00000 0.00000
vt 1.00000 1.00000
vt 0.00000 1.00000
vt 0.00000 0.00000
vt 1.00000 0.00000
vt 1.00000 1.00000
vt 0.00000 1.00000
vt 0.00000 0.00000
vt 1.00000 0.00000
vt 1.00000 1.00000
vt 0.00000 1.00000
vt 0.00000 0.00000
vt 1.00000 0.00000
vt 1.00000 1.00000
vt 0.00000 1.00000
vt 0.00000 0.00000
vt 1.00000 0.00000
vt 1.00000 1.00000
vt 0.00000 1.00000
vt 0.00000 0.00000
vt 1.00000 0.00000
vt 1.00000 1.00000
vt 0.00000 1.00000
vt 0.00000 0.00000
vt 1.00000 0.00000
vt 1.00000 1.00000
vt 0.00000 1.00000
vt 0.00000 0.00000
vt 1.00000 0.00000
vt 1.00000 1.00000
vt 0.00000 1.00000
vt 0.00000 0.00000
vt 1.00000 0.00000
vt 1.00000 1.00000
vt 0.00000 1.00000
vt 0.00000 0.00000
vt 1.00000 0.00000
vt 1.00000 1.00000
vt 0.00000 1.00000
vt 0.00000 0.00000
vt 1.00000 0.00000
vt 1.00000 1.00000
vt 0.00000 1.00000
vt 0.00000 0.00000
vt 1.00000 0.00000
vt 1.00000 1.00000
vt 0.00000 1.00000
vt 0.00000 0.00000
vt 1.00000 0.00000
vt 1.00000 1.00000
vt 0.00000 1.00000
vt 0.00000 0.00000
vt 1.00000 0.00000
vt 1.00000 1.00000
vt 0.00000 1.00000
vt 0.00000 0.00000
vt 1.00000 0.00000
vt 1.00000 1.00000
vt 0.00000 1.00000
vt 0.00000 0.00000
vt 1.00000 0.00000
vt 1.00000 1.00000
vt 0.00000 1.00000
vt 0.00000 0.00000
vt 1.00000 0.00000
vt 1.00000 1.00000
vt 0.00000 1.00000
vt 0.00000 0.00000
vt 1.00000 0.00000
vt 1.00000 1.00000
vt 0.00000 1.00000
vt 0.00000 0.00000
vt 1.00000 0.00000
vt 1.00000 1.00000
vt 0.00000 1.00000
vt 0.00000 0.00000
vt 1.00000 0.00000
vt 1.00000 1.00000
vt 0.00000 1.00000
vt 0.00000 0.00000
vt 1.00000 0.00000
vt 1.00000 1.00000
vt 0.00000 1.00000
vt 0.00000 0.00000
vt 1.00000 0.00000
vt 1.00000 1.00000
vt 0.00000 1.00000
vt 0.00000 0.00000
vt 1.00000 0.00000
vt 1.00000 1.00000
vt 0.00000 1.00000
vt 0.00000 0.00000
vt 1.00000 0.00000
vt 1.00000 1.00000
vt 0.00000 1.00000
vt 0.00000 0.00000
vt 1.00000 0.00000
vt 1.00000 1.00000
vt 0.00000 1.00000
vt 0.00000 0.00000
vt 1.00000 0.00000
vt 1.00000 1.00000
vt 0.00000 1.00000
vt 0.00000 0.00000
vt 1.00000 0.00000
vt 1.00000 1.00000
vt 0.00000 1.00000
vt 0.00000 0.00000
vt 1.00000 0.00000
vt 1.00000 1.00000
vt 0.00000 1.00000
vt 0.00000 0.00000
vt 1.00000 0.00000
vt 1.00000 1.00000
vt 0.00000 1.00000
vt 0.00000 0.00000
vt 1.00000 0.00000
vt 1.00000 1.00000
vt 0.00000 1.00000
vt 0.00000 0.00000
vt 1.00000 0.00000
vt 1.00000 1.00000
vt 0.00000 1.00000
vt 0.00000 0.00000
vt 1.00000 0.00000
vt 1.00000 1.00000
vt 0.00000 1.00000
vt 0.00000 0.00000
vt 1.00000 0.00000
vt 1.00000 1.00000
vt 0.00000 1.00000
vt 0.00000 0.00000
vt 1.00000 0.00000
vt 1.00000 1.00000
vt 0.00000 1.00000
vt 0.00000 0.00000
vt 1.00000 0.00000
vt 1.00000 1.00000
vt 0.00000 1.00000
vt 0.00000 0.00000
vt 1.00000 0.00000
vt 1.00000 1.00000
vt 0.00000 1.00000
vt 0.00000 0.00000
vt 1.00000 0.00000
vt 1.00000 1.00000
vt 0.00000 1.00000
vt 0.00000 0.00000
vt 1.00000 0.00000
vt 1.00000 1.00000
vt 0.00000 1.00000
vt 0.00000 0.00000
vt 1.00000 0.00000
vt 1.00000 1.00000
vt 0.00000 1.00000
vt 0.00000 0.00000
vt 1.00000 0.00000
vt 1.00000 1.00000
vt 0.00000 1.00000
vt 0.00000 0.00000
vt 1.00000 0.00000
vt 1.00000 1.00000
vt 0.00000 1.00000
vt 0.00000 0.00000
vt 1.00000 0.00000
vt 1.00000 1.00000
vt 0.00000 1.00000
vt 0.00000 0.00000
vt 1.00000 0.00000
vt 1.00000 1.00000
vt 0.00000 1.00000
vt 0.00000 0.00000
vt 1.00000 0.00000
vt 1.00000 1.00000
vt 0.00000 1.00000
vt 0.00000 0.00000
vt 1.00000 0.00000
vt 1.00000 1.00000
vt 0.00000 1.00000
vt 0.00000 0.00000
vt 1.00000 0.00000
vt 1.00000 1.00000
vt 0.00000 1.00000
vt 0.00000 0.00000
vt 1.00000 0.00000
vt 1.00000 1.00000
vt 0.00000 1.00000
vt 0.00000 0.00000
vt 1.00000 0.00000
vt 1.00000 1.00000
vt 0.00000 1.00000
vt 0.00000 0.00000
vt 1.00000 0.00000
vt 1.00000 1.00000
vt 0.00000 1.00000
vt 0.00000 0.00000
vt 1.00000 0.00000
vt 1.00000 1.00000
vt 0.00000 1.00000
vt 0.00000 0.00000
vt 1.00000 0.00000
vt 1.00000 1.00000
vt 0.00000 1.00000
vt 0.00000 0.00000
vt 1.00000 0.00000
vt 1.00000 1.00000
vt 0.00000 1.00000
vt 0.00000 0.00000
vt 1.00000 0.00000
vt 1.00000 1.00000
vt 0.00000 1.00000
vt 0.00000 0.00000
vt 1.00000 0.00000
vt 1.00000 1.00000
vt 0.00000 1.00000
vt 0.00000 0.00000
vt 1.00000 0.00000
vt 1.00000 1.00000
vt 0.00000 1.00000
vt 0.00000 0.00000
vt 1.00000 0.00000
vt 1.00000 1.00000
vt 0.00000 1.00000
vt 0.00000 0.00000
vt 1.00000 0.00000
vt 1.00000 1.00000
vt 0.00000 1.00000
vt 0.00000 0.00000
vt 1.00000 0.00000
vt 1.00000 1.00000
vt 0.00000 1.00000
vt 0.00000 0.00000
vt 1.00000 0.00000
vt 1.00000 1.00000
vt 0.00000 1.00000
vt 0.00000 0.00000
vt 1.00000 0.00000
vt 1.00000 1.00000
vt 0.00000 1.00000
vt 0.00000 0.00000
vt 1.00000 0.00000
vt 1.00000 1.00000
vt 0.00000 1.00000
vt 0.00000 0.00000
vt 1.00000 0.00000
vt 1.00000 1.00000
vt 0.00000 1.00000
vt 0.00000 0.00000
vt 1.00000 0.00000
vt 1.00000 1.00000
vt 0.00000 1.00000
vt 0.00000 0.00000
vt 1.00000 0.00000
vt 1.00000 1.00000
vt 0.00000 1.00000
vt 0.00000 0.00000
vt 1.00000 0.00000
vt 1.00000 1.00000
vt 0.00000 1.00000
vt 0.00000 0.00000
vt 1.00000 0.00000
vt 1.00000 1.00000
vt 0.00000 1.00000
vt 0.00000 0.00000
vt 1.00000 0.00000
vt 1.00000 1.00000
vt 0.00000 1.00000
vt 0.00000 0.00000
vt 1.00000 0.00000
vt 1.00000 1.00000
vt 0.00000 1.00000
vt 0.00000 0.00000
vt 1.00000 0.00000
vt 1.00000 1.00000
vt 0.00000 1.00000
vt 0.00000 0.00000
vt 1.00000 0.00000
vt 1.00000 1.00000
vt 0.00000 1.00000
vt 0.00000 0.00000
vt 1.00000 0.00000
vt 1.00000 1.00000
vt 0.00000 1.00000
vt 0.00000 0.00000
vt 1.00000 0.00000
vt 1.00000 1.00000
vt 0.00000 1.00000
vt 0.00000 0.00000
vt 1.00000 0.00000
vt 1.00000 1.00000
vt 0.00000 1.00000
vt 0.00000 0.00000
vt 1.00000 0.00000
vt 1.00000 1.00000
vt 0.00000 1.00000
vt 0.00000 0.00000
vt 1.00000 0.00000
vt 1.00000 1.00000
vt 0.00000 1.00000
vt 0.00000 0.00000
vt 1.00000 0.00000
vt 1.00000 1.00000
vt 0.00000 1.00000
vt 0.00000 0.00000
vt 1.00000 0.00000
vt 1.00000 1.00000
vt 0.00000 1.00000
vt 0.00000 0.00000
vt 1.00000 0.00000
vt 1.00000 1.00000
vt 0.00000 1.00000
vt 0.00000 0.00000
vt 1.00000 0.00000
vt 1.00000 1.00000
vt 0.00000 1.00000
vt 0.00000 0.00000
vt 1.00000 0.00000
vt 1.00000 1.00000
vt 0.00000 1.00000
vt 0.00000 0.00000
vt 1.00000 0.00000
vt 1.00000 1.00000
vt 0.00000 1.00000
vt 0.00000 0.00000
vt 1.00000 0.00000
vt 1.00000 1.00000
vt 0.00000 1.00000
vt 0.00000 0.00000
vt 1.00000 0.00000
vt 1.00000 1.00000
vt 0.00000 1.00000
vt 0.00000 0.00000
vt 1.00000 0.00000
vt 1.00000 1.00000
vt 0.00000 1.00000
vt 0.00000 0.00000
vt 1.00000 0.00000
vt 1.00000 1.00000
vt 0.00000 1.00000
vt 0.00000 0.00000
vt 1.00000 0.00000
vt 1.00000 1.00000
vt 0.00000 1.00000
vt 0.00000 0.00000
vt 1.00000 0.00000
vt 1.00000 1.00000
vt 0.00000 1.00000
vt 0.00000 0.00000
vt 1.00000 0.00000
vt 1.00000 1.00000
vt 0.00000 1.00000
vt 0.00000 0.00000
vt 1.00000 0.00000
vt 1.00000 1.00000
vt 0.00000 1.00000
vt 0.00000 0.00000
vt 1.00000 0.00000
vt 1.00000 1.00000
vt 0.00000 1.00000
vt 0.00000 0.00000
vt 1.00000 0.00000
vt 1.00000 1.00000
vt 0.00000 1.00000
vt 0.00000 0.00000
vt 1.00000 0.00000
vt 1.00000 1.00000
vt 0.00000 1.00000
vt 0.00000 0.00000
vt 1.00000 0.00000
vt 1.00000 1.00000
vt 0.00000 1.00000
vt 0.00000 0.00000
vt 1.00000 0.00000
vt 1.00000 1.00000
vt 0.00000 1.00000
vt 0.00000 0.00000
vt 1.00000 0.00000
vt 1.00000 1.00000
vt 0.00000 1.00000
vt 0.00000 0.00000
vt 1.00000 0.00000
vt 1.00000 1.00000
vt 0.00000 1.00000
vt 0.00000 0.00000
vt 1.00000 0.00000
vt 1.00000 1.00000
vt 0.00000 1.00000
vt 0.00000 0.00000
vt 1.00000 0.00000
vt 1.00000 1.00000
vt 0.00000 1.00000
vt 0.00000 0.00000
vt 1.00000 0.00000
vt 1.00000 1.00000
vt 0.00000 1.00000
vt 0.00000 0.00000
vt 1.00000 0.00000
vt 1.00000 1.00000
vt 0.00000 1.00000
vt 0.00000 0.00000
vt 1.00000 0.00000
vt 1.00000 1.00000
vt 0.00000 1.00000
vt 0.00000 0.00000
vt 1.00000 0.00000
vt 1.00000 1.00000
vt 0.00000 1.00000
vt 0.00000 0.00000
vt 1.00000 0.00000
vt 1.00000 1.00000
vt 0.00000 1.00000
vt 0.00000 0.00000
vt 1.00000 0.00000
vt 1.00000 1.00000
vt 0.00000 1.00000
vt 0.00000 0.00000
vt 1.00000 0.00000
vt 1.00000 1.00000
vt 0.00000 1.00000
vt 0.00000 0.00000
vt 1.00000 0.00000
vt 1.00000 1.00000
vt 0.00000 1.00000
vt 0.00000 0.00000
vt 1.00000 0.00000
vt 1.00000 1.00000
vt 0.00000 1.00000
vt 0.00000 0.00000
vt 1.00000 0.00000
vt 1.00000 1.00000
vt 0.00000 1.00000
vt 0.00000 0.00000
vt 1.00000 0.00000
vt 1.00000 1.00000
vt 0.00000 1.00000
vt 0.00000 0.00000
vt 1.00000 0.00000
vt 1.00000 1.00000
vt 0.00000 1.00000
vt 0.00000 0.00000
vt 1.00000 0.00000
vt 1.00000 1.00000
vt 0.00000 1.00000
vt 0.00000 0.00000
vt 1.00000 0.00000
vt 1.00000 1.00000
vt 0.00000 1.00000
vt 0.00000 0.00000
vt 1.00000 0.00000
vt 1.00000 1.00000
vt 0.00000 1.00000
vt 0.00000 0.00000
vt 1.00000 0.00000
vt 1.00000 1.00000
vt 0.00000 1.00000
vt 0.00000 0.00000
vt 1.00000 0.00000
vt 1.00000 1.00000
vt 0.00000 1.00000
vt 0.00000 0.00000
vt 1.00000 0.00000
vt 1.00000 1.00000
vt 0.00000 1.00000
vt 0.00000 0.00000
vt 1.00000 0.00000
vt 1.00000 1.00000
vt 0.00000 1.00000
vt 0.00000 0.00000
vt 1.00000 0.00000
vt 1.00000 1.00000
vt 0.00000 1.00000
vt 0.00000 0.00000
vt 1.00000 0.00000
vt 1.00000 1.00000
vt 0.00000 1.00000
vt 0.00000 0.00000
vt 1.00000 0.00000
vt 1.00000 1.00000
vt 0.00000 1.00000
vt 0.00000 0.00000
vt 1.00000 0.00000
vt 1.00000 1.00000
vt 0.00000 1.00000
vt 0.00000 0.00000
vt 1.00000 0.00000
vt 1.00000 1.00000
vt 0.00000 1.00000
vt 0.00000 0.00000
vt 1.00000 0.00000
vt 1.00000 1.00000
vt 0.00000 1.00000
vt 0.00000 0.00000
vt 1.00000 0.00000
vt 1.00000 1.00000
vt 0.00000 1.00000
vt 0.00000 0.00000
vt 1.00000 0.00000
vt 1.00000 1.00000
vt 0.00000 1.00000
vt 0.00000 0.00000
vt 1.00000 0.00000
vt 1.00000 1.00000
vt 0.00000 1.00000
vt 0.00000 0.00000
vt 1.00000 0.00000
vt 1.00000 1.00000
vt 0.00000 1.00000
vt 0.00000 0.00000
vt 1.00000 0.00000
vt 1.00000 1.00000
vt 0.00000 1.00000
vt 0.00000 0.00000
vt 1.00000 0.00000
vt 1.00000 1.00000
vt 0.00000 1.00000
vt 0.00000 0.00000
vt 1.00000 0.00000
vt 1.00000 1.00000
vt 0.00000 1.00000
vt 0.00000 0.00000
vt 1.00000 0.00000
vt 1.00000 1.00000
vt 0.00000 1.00000
vt 0.00000 0.00000
vt 1.00000 0.00000
vt 1.00000 1.00000
vt 0.00000 1.00000
vt 0.00000 0.00000
vt 1.00000 0.00000
vt 1.00000 1.00000
vt 0.00000 1.00000
vt 0.00000 0.00000
vt 1.00000 0.00000
vt 1.00000 1.00000
vt 0.00000 1.00000
vt 0.00000 0.00000
vt 1.00000 0.00000
vt 1.00000 1.00000
vt 0.00000 1.00000
vt 0.00000 0.00000
vt 1.00000 0.00000
vt 1.00000 1.00000
vt 0.00000 1.00000
vt 0.00000 0.00000
vt 1.00000 0.00000
vt 1.00000 1.00000
vt 0.00000 1.00000
vt 0.00000 0.00000
vt 1.00000 0.00000
vt 1.00000 1.00000
vt 0.00000 1.00000
vt 0.00000 0.00000
vt 1.00000 0.00000
vt 1.00000 1.00000
vt 0.00000 1.00000
vt 0.00000 0.00000
vt 1.00000 0.00000
vt 1.00000 1.00000
vt 0.00000 1.00000
vt 0.00000 0.00000
vt 1.00000 0.00000
vt 1.00000 1.00000
vt 0.00000 1.00000
vt 0.00000 0.00000
vt 1.00000 0.00000
vt 1.00000 1.00000
vt 0.00000 1.00000
vt 0.00000 0.00000
vt 1.00000 0.00000
vt 1.00000 1.00000
vt 0.00000 1.00000
vt 0.00000 0.00000
vt 1.00000 0.00000
vt 1.00000 1.00000
vt 0.00000 1.00000
vt 0.00000 0.00000
vt 1.00000 0.00000
vt 1.00000 1.00000
vt 0.00000 1.00000
vt 0.00000 0.00000
vt 1.00000 0.00000
vt 1.00000 1.00000
vt 0.00000 1.00000
vt 0.00000 0.00000
vt 1.00000 0.00000
vt 1.00000 1.00000
vt 0.00000 1.00000
vt 0.00000 0.00000
vt 1.00000 0.00000
vt 1.00000 1.00000
vt 0.00000 1.00000
vt 0.00000 0.00000
vt 1.00000 0.00000
vt 1.00000 1.00000
vt 0.00000 1.00000
vt 0.00000 0.00000
vt 1.00000 0.00000
vt 1.00000 1.00000
vt 0.00000 1.00000
vt 0.00000 0.00000
vt 1.00000 0.00000
vt 1.00000 1.00000
vt 0.00000 1.00000
vt 0.00000 0.00000
vt 1.00000 0.00000
vt 1.00000 1.00000
vt 0.00000 1.00000
vt 0.00000 0.00000
vt 1.00000 0.00000
vt 1.00000 1.00000
vt 0.00000 1.00000
vt 0.00000 0.00000
vt 1.00000 0.00000
vt 1.00000 1.00000
vt 0.00000 1.00000
vt 0.00000 0.00000
vt 1.00000 0.00000
vt 1.00000 1.00000
vt 0.00000 1.00000
vt 0.00000 0.00000
vt 1.00000 0.00000
vt 1.00000 1.00000
vt 0.00000 1.00000
vt 0.00000 0.00000
vt 1.00000 0.00000
vt 1.00000 1.00000
vt 0.00000 1.00000
vt 0.00000 0.00000
vt 1.00000 0.00000
vt 1.00000 1.00000
vt 0.00000 1.00000
vt 0.00000 0.00000
vt 1.00000 0.00000
vt 1.00000 1.00000
vt 0.00000 1.00000
vt 0.00000 0.00000
vt 1.00000 0.00000
vt 1.00000 1.00000
vt 0.00000 1.00000
vt 0.00000 0.00000
vt 1.00000 0.00000
vt 1.00000 1.00000
vt 0.00000 1.00000
vt 0.00000 0.00000
vt 1.00000 0.00000
vt 1.00000 1.00000
vt 0.00000 1.00000
vt 0.00000 0.00000
vt 1.00000 0.00000
vt 1.00000 1.00000
vt 0.00000 1.00000
vt 0.00000 0.00000
vt 1.00000 0.00000
vt 1.00000 1.00000
vt 0.00000 1.00000
vt 0.00000 0.00000
vt 1.00000 0.00000
vt 1.00000 1.00000
vt 0.00000 1.00000
vt 0.00000 0.00000
vt 1.00000 0.00000
vt 1.00000 1.00000
vt 0.00000 1.00000
vt 0.00000 0.00000
vt 1.00000 0.00000
vt 1.00000 1.00000
vt 0.00000 1.00000
vt 0.00000 0.00000
vt 1.00000 0.00000
vt 1.00000 1.00000
vt 0.00000 1.00000
vt 0.00000 0.00000
vt 1.00000 0.00000
vt 1.00000 1.00000
vt 0.00000 1.00000
vt 0.00000 0.00000
vt 1.00000 0.00000
vt 1.00000 1.00000
vt 0.00000 1.00000
vt 0.00000 0.00000
vt 1.00000 0.00000
vt 1.00000 1.00000
vt 0.00000 1.00000
vt 0.00000 0.00000
vt 1.00000 0.00000
vt 1.00000 1.00000
vt 0.00000 1.00000
vt 0.00000 0.00000
vt 1.00000 0.00000
vt 1.00000 1.00000
vt 0.00000 1.00000
vt 0.00000 0.00000
vt 1.00000 0.00000
vt 1.00000 1.00000
vt 0.00000 1.00000
vt 0.00000 0.00000
vt 1.00000 0.00000
vt 1.00000 1.00000
vt 0.00000 1.00000
vt 0.00000 0.00000
vt 1.00000 0.00000
vt 1.00000 1.00000
vt 0.00000 1.00000
vt 0.00000 0.00000
vt 1.00000 0.00000
vt 1.00000 1.00000
vt 0.00000 1.00000
vt 0.00000 0.00000
vt 1.00000 0.00000
vt 1.00000 1.00000
vt 0.00000 1.00000
vt 0.00000 0.00000
vt 1.00000 0.00000
vt 1.00000 1.00000
vt 0.00000 1.00000
vt 0.00000 0.00000
vt 1.00000 0.00000
vt 1.00000 1.00000
vt 0.00000 1.00000
vt 0.00000 0.00000
vt 1.00000 0.00000
vt 1.00000 1.00000
vt 0.00000 1.00000
vt 0.00000 0.00000
vt 1.00000 0.00000
vt 1.00000 1.00000
vt 0.00000 1.00000
vt 0.00000 0.00000
vt 1.00000 0.00000
vt 1.00000 1.00000
vt 0.00000 1.00000
vt 0.00000 0.00000
vt 1.00000 0.00000
vt 1.00000 1.00000
vt 0.00000 1.00000
vt 0.00000 0.00000
vt 1.00000 0.00000
vt 1.00000 1.00000
vt 0.00000 1.00000
vt 0.00000 0.00000
vt 1.00000 0.00000
vt 1.00000 1.00000
vt 0.00000 1.00000
vt 0.00000 0.00000
vt 1.00000 0.00000
vt 1.00000 1.00000
vt 0.00000 1.00000
vt 0.00000 0.00000
vt 1.00000 0.00000
vt 1.00000 1.00000
vt 0.00000 1.00000
vt 0.00000 0.00000
vt 1.00000 0.00000
vt 1.00000 1.00000
vt 0.00000 1.00000
vt 0.00000 0.00000
vt 1.00000 0.00000
vt 1.00000 1.00000
vt 0.00000 1.00000
vt 0.00000 0.00000
vt 1.00000 0.00000
vt 1.00000 1.00000
vt 0.00000 1.00000
vt 0.00000 0.00000
vt 1.00000 0.00000
vt 1.00000 1.00000
vt 0.00000 1.00000
vt 0.00000 0.00000
vt 1.00000 0.00000
vt 1.00000 1.00000
vt 0.00000 1.00000
vt 0.00000 0.00000
vt 1.00000 0.00000
vt 1.00000 1.00000
vt 0.00000 1.00000
vt 0.00000 0.00000
vt 1.00000 0.00000
vt 1.00000 1.00000
vt 0.00000 1.00000
vt 0.00000 0.00000
vt 1.00000 0.00000
vt 1.00000 1.00000
vt 0.00000 1.00000
vt 0.00000 0.00000
vt 1.00000 0.00000
vt 1.00000 1.00000
vt 0.00000 1.00000
vt 0.00000 0.00000
vt 1.00000 0.00000
vt 1.00000 1.00000
vt 0.00000 1.00000
vt 0.00000 0.00000
vt 1.00000 0.00000
vt 1.00000 1.00000
vt 0.00000 1.00000
vt 0.00000 0.00000
vt 1.00000 0.00000
vt 1.00000 1.00000
vt 0.00000 1.00000
vt 0.00000 0.00000
vt 1.00000 0.00000
vt 1.00000 1.00000
vt 0.00000 1.00000
vt 0.00000 0.00000
vt 1.00000 0.00000
vt 1.00000 1.00000
vt 0.00000 1.00000
vt 0.00000 0.00000
vt 1.00000 0.00000
vt 1.00000 1.00000
vt 0.00000 1.00000
vt 0.00000 0.00000
vt 1.00000 0.00000
vt 1.00000 1.00000
vt 0.00000 1.00000
vt 0.00000 0.00000
vt 1.00000 0.00000
vt 1.00000 1.00000
vt 0.00000 1.00000
vt 0.00000 0.00000
vt 1.00000 0.00000
vt 1.00000 1.00000
vt 0.00000 1.00000
vt 0.00000 0.00000
vt 1.00000 0.00000
vt 1.00000 1.00000
vt 0.00000 1.00000
vt 0.00000 0.00000
vt 1.00000 0.00000
vt 1.00000 1.00000
vt 0.00000 1.00000
vt 0.00000 0.00000
vt 1.00000 0.00000
vt 1.00000 1.00000
vt 0.00000 1.00000
vt 0.00000 0.00000
vt 1.00000 0.00000
vt 1.00000 1.00000
vt 0.00000 1.00000
vt 0.00000 0.00000
vt 1.00000 0.00000
vt 1.00000 1.00000
vt 0.00000 1.00000
vt 0.00000 0.00000
vt 1.00000 0.00000
vt 1.00000 1.00000
vt 0.00000 1.00000
vt 0.00000 0.00000
vt 1.00000 0.00000
vt 1.00000 1.00000
vt 0.00000 1.00000
vt 0.00000 0.00000
vt 1.00000 0.00000
vt 1.00000 1.00000
vt 0.00000 1.00000
vt 0.00000 0.00000
vt 1.00000 0.00000
vt 1.00000 1.00000
vt 0.00000 1.00000
vt 0.00000 0.00000
vt 1.00000 0.00000
vt 1.00000 1.00000
vt 0.00000 1.00000
vt 0.00000 0.00000
vt 1.00000 0.00000
vt 1.00000 1.00000
vt 0.00000 1.00000
vt 0.00000 0.00000
vt 1.00000 0.00000
vt 1.00000 1.00000
vt 0.00000 1.00000
vt 0.00000 0.00000
vt 1.00000 0.00000
vt 1.00000 1.00000
vt 0.00000 1.00000
vt 0.00000 0.00000
vt 1.00000 0.00000
vt 1.00000 1.00000
vt 0.00000 1.00000
vt 0.00000 0.00000
vt 1.00000 0.00000
vt 1.00000 1.00000
vt 0.00000 1.00000
vt 0.00000 0.00000
vt 1.00000 0.00000
vt 1.00000 1.00000
vt 0.00000 1.00000
vt 0.00000 0.00000
vt 1.00000 0.00000
vt 1.00000 1.00000
vt 0.00000 1.00000
vt 0.00000 0.00000
vt 1.00000 0.00000
vt 1.00000 1.00000
vt 0.00000 1.00000
vt 0.00000 0.00000
vt 1.00000 0.00000
vt 1.00000 1.00000
vt 0.00000 1.00000
vt 0.00000 0.00000
vt 1.00000 0.00000
vt 1.00000 1.00000
vt 0.00000 1.00000
vt 0.00000 0.00000
vt 1.00000 0.00000
vt 1.00000 1.00000
vt 0.00000 1.00000
vt 0.00000 0.00000
vt 1.00000 0.00000
vt 1.00000 1.00000
vt 0.00000 1.00000
vt 0.00000 0.00000
vt 1.00000 0.00000
vt 1.00000 1.00000
vt 0.00000 1.00000
vt 0.00000 0.00000
vt 1.00000 0.00000
vt 1.00000 1.00000
vt 0.00000 1.00000
vt 0.00000 0.00000
vt 1.00000 0.00000
vt 1.00000 1.00000
vt 0.00000 1.00000
vt 0.00000 0.00000
vt 1.00000 0.00000
vt 1.00000 1.00000
vt 0.00000 1.00000
vt 0.00000 0.00000
vt 1.00000 0.00000
vt 1.00000 1.00000
vt 0.00000 1.00000
vt 0.00000 0.00000
vt 1.00000 0.00000
vt 1.00000 1.00000
vt 0.00000 1.00000
vt 0.00000 0.00000
vt 1.00000 0.00000
vt 1.00000 1.00000
vt 0.00000 1.00000
vt 0.00000 0.00000
vt 1.00000 0.00000
vt 1.00000 1.00000
vt 0.00000 1.00000
vt 0.00000 0.00000
vt 1.00000 0.00000
vt 1.00000 1.00000
vt 0.00000 1.00000
vt 0.00000 0.00000
vt 1.00000 0.00000
vt 1.00000 1.00000
vt 0.00000 1.00000
vt 0.00000 0.00000
vt 1.00000 0.00000
vt 1.00000 1.00000
vt 0.00000 1.00000
vt 0.00000 0.00000
vt 1.00000 0.00000
vt 1.00000 1.00000
vt 0.00000 1.00000
vt 0.00000 0.00000
vt 1.00000 0.00000
vt 1.00000 1.00000
vt 0.00000 1.00000
vt 0.00000 0.00000
vt 1.00000 0.00000
vt 1.00000 1.00000
vt 0.00000 1.00000
vt 0.00000 0.00000
vt 1.00000 0.00000
vt 1.00000 1.00000
vt 0.00000 1.00000
vt 0.00000 0.00000
vt 1.00000 0.00000
vt 1.00000 1.00000
vt 0.00000 1.00000
vt 0.00000 0.00000
vt 1.00000 0.00000
vt 1.00000 1.00000
vt 0.00000 1.00000
vt 0.00000 0.00000
vt 1.00000 0.00000
vt 1.00000 1.00000
vt 0.00000 1.00000
vt 0.00000 0.00000
vt 1.00000 0.00000
vt 1.00000 1.00000
vt 0.00000 1.00000
vt 0.00000 0.00000
vt 1.00000 0.00000
vt 1.00000 1.00000
vt 0.00000 1.00000
vt 0.00000 0.00000
vt 1.00000 0.00000
vt 1.00000 1.00000
vt 0.00000 1.00000
vt 0.00000 0.00000
vt 1.00000 0.00000
vt 1.00000 1.00000
vt 0.00000 1.00000
vt 0.00000 0.00000
vt 1.00000 0.00000
vt 1.00000 1.00000
vt 0.00000 1.00000
vt 0.00000 0.00000
vt 1.00000 0.00000
vt 1.00000 1.00000
vt 0.00000 1.00000
vt 0.00000 0.00000
vt 1.00000 0.00000
vt 1.00000 1.00000
vt 0.00000 1.00000
vt 0.00000 0.00000
vt 1.00000 0.00000
vt 1.00000 1.00000
vt 0.00000 1.00000
vt 0.00000 0.00000
vt 1.00000 0.00000
vt 1.00000 1.00000
vt 0.00000 1.00000
vt 0.00000 0.00000
vt 1.00000 0.00000
vt 1.00000 1.00000
vt 0.00000 1.00000
vt 0.00000 0.00000
vt 1.00000 0.00000
vt 1.00000 1.00000
vt 0.00000 1.00000
vt 0.00000 0.00000
vt 1.00000 0.00000
vt 1.00000 1.00000
vt 0.00000 1.00000
vt 0.00000 0.00000
vt 1.00000 0.00000
vt 1.00000 1.00000
vt 0.00000 1.00000
vt 0.00000 0.00000
vt 1.00000 0.00000
vt 1.00000 1.00000
vt 0.00000 1.00000
vt 0.00000 0.00000
vt 1.00000 0.00000
vt 1.00000 1.00000
vt 0.00000 1.00000
vt 0.00000 0.00000
vt 1.00000 0.00000
vt 1.00000 1.00000
vt 0.00000 1.00000
vt 0.00000 0.00000
vt 1.00000 0.00000
vt 1.00000 1.00000
vt 0.00000 1.00000
vt 0.00000 0.00000
vt 1.00000 0.00000
vt 1.00000 1.00000
vt 0.00000 1.00000
vt 0.00000 0.00000
vt 1.00000 0.00000
vt 1.00000 1.00000
vt 0.00000 1.00000
vt 0.00000 0.00000
vt 1.00000 0.00000
vt 1.00000 1.00000
vt 0.00000 1.00000
vt 0.00000 0.00000
vt 1.00000 0.00000
vt 1.00000 1.00000
vt 0.00000 1.00000
vt 0.00000 0.00000
vt 1.00000 0.00000
vt 1.00000 1.00000
vt 0.00000 1.00000
vt 0.00000 0.00000
vt 1.00000 0.00000
vt 1.00000 1.00000
vt 0.00000 1.00000
vt 0.00000 0.00000
vt 1.00000 0.00000
vt 1.00000 1.00000
vt 0.00000 1.00000
vt 0.00000 0.00000
vt 1.00000 0.00000
vt 1.00000 1.00000
vt 0.00000 1.00000
vt 0.00000 0.00000
vt 1.00000 0.00000
vt 1.00000 1.00000
vt 0.00000 1.00000
vt 0.00000 0.00000
vt 1.00000 0.00000
vt 1.00000 1.00000
vt 0.00000 1.00000
vt 0.00000 0.00000
vt 1.00000 0.00000
vt 1.00000 1.00000
vt 0.00000 1.00000
vt 0.00000 0.00000
vt 1.00000 0.00000
vt 1.00000 1.00000
vt 0.00000 1.00000
vn 0.14858 -0.98845 0.02986
vn 0.10902 -0.99067 0.08176
vn 0.03999 -0.99291 0.11194
vn -0.03999 -0.99291 0.11194
vn -0.10902 -0.99067 0.08176
vn -0.14858 -0.98845 0.02986
vn -0.14858 -0.98845 -0.02986
vn -0.10902 -0.99067 -0.08176
vn -0.03999 -0.99291 -0.11194
vn 0.03999 -0.99291 -0.11194
vn 0.10902 -0.99067 -0.08176
vn 0.14858 -0.98845 -0.02986
vn 0.46297 -0.88148 0.09304
vn 0.34654 -0.90131 0.25990
vn 0.12983 -0.92254 0.36340
vn -0.12983 -0.92254 0.36340
vn -0.34654 -0.90131 0.25990
vn -0.46297 -0.88148 0.09304
vn -0.46297 -0.88148 -0.09304
vn -0.34654 -0.90131 -0.25990
vn -0.12983 -0.92254 -0.36340
vn 0.12983 -0.92254 -0.36340
vn 0.34654 -0.90131 -0.25990
vn 0.46297 -0.88148 -0.09304
vn 0.79680 -0.58263 0.16013
vn 0.62497 -0.62426 0.46873
vn 0.24783 -0.67630 0.69368
vn -0.24783 -0.67630 0.69368
vn -0.62497 -0.62426 0.46873
vn -0.79680 -0.58263 0.16013
vn -0.79680 -0.58263 -0.16013
vn -0.62497 -0.62426 -0.46873
vn -0.24783 -0.67630 -0.69368
vn 0.24783 -0.67630 -0.69368
vn 0.62497 -0.62426 -0.46873
vn 0.79680 -0.58263 -0.16013
vn 0.98040 0.00000 0.19702
vn 0.80000 0.00000 0.60000
vn 0.33644 0.00000 0.94171
vn -0.33644 0.00000 0.94171
vn -0.80000 0.00000 0.60000
vn -0.98040 0.00000 0.19702
vn -0.98040 0.00000 -0.19702
vn -0.80000 0.00000 -0.60000
vn -0.33644 0.00000 -0.94171
vn 0.33644 0.00000 -0.94171
vn 0.80000 0.00000 -0.60000
vn 0.98040 0.00000 -0.19702
vn 0.79680 0.58263 0.16013
vn 0.62497 0.62426 0.46873
vn 0.24783 0.67630 0.69368
vn -0.24783 0.67630 0.69368
vn -0.62497 0.62426 0.46873
vn -0.79680 0.58263 0.16013
vn -0.79680 0.58263 -0.16013
vn -0.62497 0.62426 -0.46873
vn -0.24783 0.67630 -0.69368
vn 0.24783 0.67630 -0.69368
vn 0.62497 0.62426 -0.46873
vn 0.79680 0.58263 -0.16013
vn 0.46297 0.88148 0.09304
vn 0.34654 0.90131 0.25990
vn 0.12983 0.92254 0.36340
vn -0.12983 0.92254 0.36340
vn -0.34654 0.90131 0.25990
vn -0.46297 0.88148 0.09304
vn -0.46297 0.88148 -0.09304
vn -0.34654 0.90131 -0.25990
vn -0.12983 0.92254 -0.36340
vn 0.12983 0.92254 -0.36340
vn 0.34654 0.90131 -0.25990
vn 0.46297 0.88148 -0.09304
vn 0.14858 0.98845 0.02986
vn 0.10902 0.99067 0.08176
vn 0.03999 0.99291 0.11194
vn -0.03999 0.99291 0.11194
vn -0.10902 0.99067 0.08176
vn -0.14858 0.98845 0.02986
vn -0.14858 0.98845 -0.02986
vn -0.10902 0.99067 -0.08176
vn -0.03999 0.99291 -0.11194
vn 0.03999 0.99291 -0.11194
vn 0.10902 0.99067 -0.08176
vn 0.14858 0.98845 -0.02986
vn 0.19750 -0.97895 0.05145
vn 0.14465 -0.97944 0.14063
vn 0.05297 -0.97992 0.19220
vn -0.05297 -0.97992 0.19220
vn -0.14465 -0.97944 0.14063
vn -0.19750 -0.97895 0.05145
vn -0.19750 -0.97895 -0.05145
vn -0.14465 -0.97944 -0.14063
vn -0.05297 -0.97992 -0.19220
vn 0.05297 -0.97992 -0.19220
vn 0.14465 -0.97944 -0.14063
vn 0.19750 -0.97895 -0.05145
vn 0.56976 -0.80830 0.14843
vn 0.41883 -0.81165 0.40719
vn 0.15394 -0.81505 0.55856
vn -0.15394 -0.81505 0.55856
vn -0.41883 -0.81165 0.40719
vn -0.56976 -0.80830 0.14843
vn -0.56976 -0.80830 -0.14843
vn -0.41883 -0.81165 -0.40719
vn -0.15394 -0.81505 -0.55856
vn 0.15394 -0.81505 -0.55856
vn 0.41883 -0.81165 -0.40719
vn 0.56976 -0.80830 -0.14843
vn 0.85602 -0.46638 0.22300
vn 0.63257 -0.47079 0.61500
vn 0.23377 -0.47532 0.84819
vn -0.23377 -0.47532 0.84819
vn -0.63257 -0.47079 0.61500
vn -0.85602 -0.46638 0.22300
vn -0.85602 -0.46638 -0.22300
vn -0.63257 -0.47079 -0.61500
vn -0.23377 -0.47532 -0.84819
vn 0.23377 -0.47532 -0.84819
vn 0.63257 -0.47079 -0.61500
vn 0.85602 -0.46638 -0.22300
vn 0.96770 0.00000 0.25209
vn 0.71699 0.00000 0.69708
vn 0.26570 0.00000 0.96406
vn -0.26570 0.00000 0.96406
vn -0.71699 0.00000 0.69708
vn -0.96770 0.00000 0.25209
vn -0.96770 0.00000 -0.25209
vn -0.71699 0.00000 -0.69708
vn -0.26570 0.00000 -0.96406
vn 0.26570 0.00000 -0.96406
vn 0.71699 0.00000 -0.69708
vn 0.96770 0.00000 -0.25209
vn 0.85602 0.46638 0.22300
vn 0.63257 0.47079 0.61500
vn 0.23377 0.47532 0.84819
vn -0.23377 0.47532 0.84819
vn -0.63257 0.47079 0.61500
vn -0.85602 0.46638 0.22300
vn -0.85602 0.46638 -0.22300
vn -0.63257 0.47079 -0.61500
vn -0.23377 0.47532 -0.84819
vn 0.23377 0.47532 -0.84819
vn 0.63257 0.47079 -0.61500
vn 0.85602 0.46638 -0.22300
vn 0.56976 0.80830 0.14843
vn 0.41883 0.81165 0.40719
vn 0.15394 0.81505 0.55856
vn -0.15394 0.81505 0.55856
vn -0.41883 0.81165 0.40719
vn -0.56976 0.80830 0.14843
vn -0.56976 0.80830 -0.14843
vn -0.41883 0.81165 -0.40719
vn -0.15394 0.81505 -0.55856
vn 0.15394 0.81505 -0.55856
vn 0.41883 0.81165 -0.40719
vn 0.56976 0.80830 -0.14843
vn 0.19750 0.97895 0.05145
vn 0.14465 0.97944 0.14063
vn 0.05297 0.97992 0.19220
vn -0.05297 0.97992 0.19220
vn -0.14465 0.97944 0.14063
vn -0.19750 0.97895 0.05145
vn -0.19750 0.97895 -0.05145
vn -0.14465 0.97944 -0.14063
vn -0.05297 0.97992 -0.19220
vn 0.05297 0.97992 -0.19220
vn 0.14465 0.97944 -0.14063
vn 0.19750 0.97895 -0.05145
vn 0.31652 -0.93379 0.16687
vn 0.12786 -0.91066 0.39287
vn -0.12786 -0.91066 0.39287
vn -0.31652 -0.93379 0.16687
vn -0.31652 -0.93379 -0.16687
vn -0.12786 -0.91066 -0.39287
vn 0.12786 -0.91066 -0.39287
vn 0.31652 -0.93379 -0.16687
vn 0.75315 -0.52452 0.39705
vn 0.27453 -0.46159 0.84355
vn -0.27453 -0.46159 0.84355
vn -0.75315 -0.52452 0.39705
vn -0.75315 -0.52452 -0.39705
vn -0.27453 -0.46159 -0.84355
vn 0.27453 -0.46159 -0.84355
vn 0.75315 -0.52452 -0.39705
vn 0.88460 0.00000 0.46635
vn 0.30948 0.00000 0.95091
vn -0.30948 0.00000 0.95091
vn -0.88460 0.00000 0.46635
vn -0.88460 0.00000 -0.46635
vn -0.30948 0.00000 -0.95091
vn 0.30948 0.00000 -0.95091
vn 0.88460 0.00000 -0.46635
vn 0.75315 0.52452 0.39705
vn 0.27453 0.46159 0.84355
vn -0.27453 0.46159 0.84355
vn -0.75315 0.52452 0.39705
vn -0.75315 0.52452 -0.39705
vn -0.27453 0.46159 -0.84355
vn 0.27453 0.46159 -0.84355
vn 0.75315 0.52452 -0.39705
vn 0.31652 0.93379 0.16687
vn 0.12786 0.91066 0.39287
vn -0.12786 0.91066 0.39287
vn -0.31652 0.93379 0.16687
vn -0.31652 0.93379 -0.16687
vn -0.12786 0.91066 -0.39287
vn 0.12786 0.91066 -0.39287
vn 0.31652 0.93379 -0.16687
vn 0.93969 0.00000 0.34202
vn 0.50000 0.00000 0.86603
vn -0.17365 0.00000 0.98481
vn -0.76604 0.00000 0.64279
vn -1.00000 0.00000 0.00000
vn -0.76604 0.00000 -0.64279
vn -0.17365 0.00000 -0.98481
vn 0.50000 0.00000 -0.86603
vn 0.93969 0.00000 -0.34202
vn 0.00000 1.00000 0.00000
vn 0.00000 -1.00000 0.00000
vn 0.93969 0.00000 0.34202
vn 0.50000 0.00000 0.86603
vn -0.17365 0.00000 0.98481
vn -0.76604 0.00000 0.64279
vn -1.00000 0.00000 0.00000
vn -0.76604 0.00000 -0.64279
vn -0.17365 0.00000 -0.98481
vn 0.50000 0.00000 -0.86603
vn 0.93969 0.00000 -0.34202
vn 0.00000 1.00000 0.00000
vn 0.00000 -1.00000 0.00000
vn 0.93969 0.00000 0.34202
vn 0.50000 0.00000 0.86603
vn -0.17365 0.00000 0.98481
vn -0.76604 0.00000 0.64279
vn -1.00000 0.00000 0.00000
vn -0.76604 0.00000 -0.64279
vn -0.17365 0.00000 -0.98481
vn 0.50000 0.00000 -0.86603
vn 0.93969 0.00000 -0.34202
vn 0.00000 1.00000 0.00000
vn 0.00000 -1.00000 0.00000
vn 0.93969 0.00000 0.34202
vn 0.50000 0.00000 0.86603
vn -0.17365 0.00000 0.98481
vn -0.76604 0.00000 0.64279
vn -1.00000 0.00000 0.00000
vn -0.76604 0.00000 -0.64279
vn -0.17365 0.00000 -0.98481
vn 0.50000 0.00000 -0.86603
vn 0.93969 0.00000 -0.34202
vn 0.00000 1.00000 0.00000
vn 0.00000 -1.00000 0.00000
vn 0.96593 0.00000 0.25882
vn 0.70711 0.00000 0.70711
vn 0.25882 0.00000 0.96593
vn -0.25882 0.00000 0.96593
vn -0.70711 0.00000 0.70711
vn -0.96593 0.00000 0.25882
vn -0.96593 0.00000 -0.25882
vn -0.70711 0.00000 -0.70711
vn -0.25882 0.00000 -0.96593
vn 0.25882 0.00000 -0.96593
vn 0.70711 0.00000 -0.70711
vn 0.96593 0.00000 -0.25882
vn 0.00000 1.00000 0.00000
vn 0.00000 -1.00000 0.00000
vn 0.00000 0.00000 -1.00000
vn 0.00000 0.00000 1.00000
vn -1.00000 0.00000 0.00000
vn 1.00000 0.00000 0.00000
vn 0.00000 1.00000 0.00000
vn 0.00000 -1.00000 0.00000
vn 0.00000 0.00000 -1.00000
vn 0.00000 0.00000 1.00000
vn -1.00000 0.00000 0.00000
vn 1.00000 0.00000 0.00000
vn 0.00000 1.00000 0.00000
vn 0.00000 -1.00000 0.00000
o Torso
usemtl CrewCloth
f 1/1/1 2/2/1 3/3/1 4/4/1
f 5/5/2 6/6/2 7/7/2 8/8/2
f 9/9/3 10/10/3 11/11/3 12/12/3
f 13/13/4 14/14/4 15/15/4 16/16/4
f 17/17/5 18/18/5 19/19/5 20/20/5
f 21/21/6 22/22/6 23/23/6 24/24/6
f 25/25/7 26/26/7 27/27/7 28/28/7
f 29/29/8 30/30/8 31/31/8 32/32/8
f 33/33/9 34/34/9 35/35/9 36/36/9
f 37/37/10 38/38/10 39/39/10 40/40/10
f 41/41/11 42/42/11 43/43/11 44/44/11
f 45/45/12 46/46/12 47/47/12 48/48/12
f 49/49/13 50/50/13 51/51/13 52/52/13
f 53/53/14 54/54/14 55/55/14 56/56/14
f 57/57/15 58/58/15 59/59/15 60/60/15
f 61/61/16 62/62/16 63/63/16 64/64/16
f 65/65/17 66/66/17 67/67/17 68/68/17
f 69/69/18 70/70/18 71/71/18 72/72/18
f 73/73/19 74/74/19 75/75/19 76/76/19
f 77/77/20 78/78/20 79/79/20 80/80/20
f 81/81/21 82/82/21 83/83/21 84/84/21
f 85/85/22 86/86/22 87/87/22 88/88/22
f 89/89/23 90/90/23 91/91/23 92/92/23
f 93/93/24 94/94/24 95/95/24 96/96/24
f 97/97/25 98/98/25 99/99/25 100/100/25
f 101/101/26 102/102/26 103/103/26 104/104/26
f 105/105/27 106/106/27 107/107/27 108/108/27
f 109/109/28 110/110/28 111/111/28 112/112/28
f 113/113/29 114/114/29 115/115/29 116/116/29
f 117/117/30 118/118/30 119/119/30 120/120/30
f 121/121/31 122/122/31 123/123/31 124/124/31
f 125/125/32 126/126/32 127/127/32 128/128/32
f 129/129/33 130/130/33 131/131/33 132/132/33
f 133/133/34 134/134/34 135/135/34 136/136/34
f 137/137/35 138/138/35 139/139/35 140/140/35
f 141/141/36 142/142/36 143/143/36 144/144/36
f 145/145/37 146/146/37 147/147/37 148/148/37
f 149/149/38 150/150/38 151/151/38 152/152/38
f 153/153/39 154/154/39 155/155/39 156/156/39
f 157/157/40 158/158/40 159/159/40 160/160/40
f 161/161/41 162/162/41 163/163/41 164/164/41
f 165/165/42 166/166/42 167/167/42 168/168/42
f 169/169/43 170/170/43 171/171/43 172/172/43
f 173/173/44 174/174/44 175/175/44 176/176/44
f 177/177/45 178/178/45 179/179/45 180/180/45
f 181/181/46 182/182/46 183/183/46 184/184/46
f 185/185/47 186/186/47 187/187/47 188/188/47
f 189/189/48 190/190/48 191/191/48 192/192/48
f 193/193/49 194/194/49 195/195/49 196/196/49
f 197/197/50 198/198/50 199/199/50 200/200/50
f 201/201/51 202/202/51 203/203/51 204/204/51
f 205/205/52 206/206/52 207/207/52 208/208/52
f 209/209/53 210/210/53 211/211/53 212/212/53
f 213/213/54 214/214/54 215/215/54 216/216/54
f 217/217/55 218/218/55 219/219/55 220/220/55
f 221/221/56 222/222/56 223/223/56 224/224/56
f 225/225/57 226/226/57 227/227/57 228/228/57
f 229/229/58 230/230/58 231/231/58 232/232/58
f 233/233/59 234/234/59 235/235/59 236/236/59
f 237/237/60 238/238/60 239/239/60 240/240/60
f 241/241/61 242/242/61 243/243/61 244/244/61
f 245/245/62 246/246/62 247/247/62 248/248/62
f 249/249/63 250/250/63 251/251/63 252/252/63
f 253/253/64 254/254/64 255/255/64 256/256/64
f 257/257/65 258/258/65 259/259/65 260/260/65
f 261/261/66 262/262/66 263/263/66 264/264/66
f 265/265/67 266/266/67 267/267/67 268/268/67
f 269/269/68 270/270/68 271/271/68 272/272/68
f 273/273/69 274/274/69 275/275/69 276/276/69
f 277/277/70 278/278/70 279/279/70 280/280/70
f 281/281/71 282/282/71 283/283/71 284/284/71
f 285/285/72 286/286/72 287/287/72 288/288/72
f 289/289/73 290/290/73 291/291/73 292/292/73
f 293/293/74 294/294/74 295/295/74 296/296/74
f 297/297/75 298/298/75 299/299/75 300/300/75
f 301/301/76 302/302/76 303/303/76 304/304/76
f 305/305/77 306/306/77 307/307/77 308/308/77
f 309/309/78 310/310/78 311/311/78 312/312/78
f 313/313/79 314/314/79 315/315/79 316/316/79
f 317/317/80 318/318/80 319/319/80 320/320/80
f 321/321/81 322/322/81 323/323/81 324/324/81
f 325/325/82 326/326/82 327/327/82 328/328/82
f 329/329/83 330/330/83 331/331/83 332/332/83
f 333/333/84 334/334/84 335/335/84 336/336/84
o Head
usemtl Skin
f 337/337/85 338/338/85 339/339/85 340/340/85
f 341/341/86 342/342/86 343/343/86 344/344/86
f 345/345/87 346/346/87 347/347/87 348/348/87
f 349/349/88 350/350/88 351/351/88 352/352/88
f 353/353/89 354/354/89 355/355/89 356/356/89
f 357/357/90 358/358/90 359/359/90 360/360/90
f 361/361/91 362/362/91 363/363/91 364/364/91
f 365/365/92 366/366/92 367/367/92 368/368/92
f 369/369/93 370/370/93 371/371/93 372/372/93
f 373/373/94 374/374/94 375/375/94 376/376/94
f 377/377/95 378/378/95 379/379/95 380/380/95
f 381/381/96 382/382/96 383/383/96 384/384/96
f 385/385/97 386/386/97 387/387/97 388/388/97
f 389/389/98 390/390/98 391/391/98 392/392/98
f 393/393/99 394/394/99 395/395/99 396/396/99
f 397/397/100 398/398/100 399/399/100 400/400/100
f 401/401/101 402/402/101 403/403/101 404/404/101
f 405/405/102 406/406/102 407/407/102 408/408/102
f 409/409/103 410/410/103 411/411/103 412/412/103
f 413/413/104 414/414/104 415/415/104 416/416/104
f 417/417/105 418/418/105 419/419/105 420/420/105
f 421/421/106 422/422/106 423/423/106 424/424/106
f 425/425/107 426/426/107 427/427/107 428/428/107
f 429/429/108 430/430/108 431/431/108 432/432/108
f 433/433/109 434/434/109 435/435/109 436/436/109
f 437/437/110 438/438/110 439/439/110 440/440/110
f 441/441/111 442/442/111 443/443/111 444/444/111
f 445/445/112 446/446/112 447/447/112 448/448/112
f 449/449/113 450/450/113 451/451/113 452/452/113
f 453/453/114 454/454/114 455/455/114 456/456/114
f 457/457/115 458/458/115 459/459/115 460/460/115
f 461/461/116 462/462/116 463/463/116 464/464/116
f 465/465/117 466/466/117 467/467/117 468/468/117
f 469/469/118 470/470/118 471/471/118 472/472/118
f 473/473/119 474/474/119 475/475/119 476/476/119
f 477/477/120 478/478/120 479/479/120 480/480/120
f 481/481/121 482/482/121 483/483/121 484/484/121
f 485/485/122 486/486/122 487/487/122 488/488/122
f 489/489/123 490/490/123 491/491/123 492/492/123
f 493/493/124 494/494/124 495/495/124 496/496/124
f 497/497/125 498/498/125 499/499/125 500/500/125
f 501/501/126 502/502/126 503/503/126 504/504/126
f 505/505/127 506/506/127 507/507/127 508/508/127
f 509/509/128 510/510/128 511/511/128 512/512/128
f 513/513/129 514/514/129 515/515/129 516/516/129
f 517/517/130 518/518/130 519/519/130 520/520/130
f 521/521/131 522/522/131 523/523/131 524/524/131
f 525/525/132 526/526/132 527/527/132 528/528/132
f 529/529/133 530/530/133 531/531/133 532/532/133
f 533/533/134 534/534/134 535/535/134 536/536/134
f 537/537/135 538/538/135 539/539/135 540/540/135
f 541/541/136 542/542/136 543/543/136 544/544/136
f 545/545/137 546/546/137 547/547/137 548/548/137
f 549/549/138 550/550/138 551/551/138 552/552/138
f 553/553/139 554/554/139 555/555/139 556/556/139
f 557/557/140 558/558/140 559/559/140 560/560/140
f 561/561/141 562/562/141 563/563/141 564/564/141
f 565/565/142 566/566/142 567/567/142 568/568/142
f 569/569/143 570/570/143 571/571/143 572/572/143
f 573/573/144 574/574/144 575/575/144 576/576/144
f 577/577/145 578/578/145 579/579/145 580/580/145
f 581/581/146 582/582/146 583/583/146 584/584/146
f 585/585/147 586/586/147 587/587/147 588/588/147
f 589/589/148 590/590/148 591/591/148 592/592/148
f 593/593/149 594/594/149 595/595/149 596/596/149
f 597/597/150 598/598/150 599/599/150 600/600/150
f 601/601/151 602/602/151 603/603/151 604/604/151
f 605/605/152 606/606/152 607/607/152 608/608/152
f 609/609/153 610/610/153 611/611/153 612/612/153
f 613/613/154 614/614/154 615/615/154 616/616/154
f 617/617/155 618/618/155 619/619/155 620/620/155
f 621/621/156 622/622/156 623/623/156 624/624/156
f 625/625/157 626/626/157 627/627/157 628/628/157
f 629/629/158 630/630/158 631/631/158 632/632/158
f 633/633/159 634/634/159 635/635/159 636/636/159
f 637/637/160 638/638/160 639/639/160 640/640/160
f 641/641/161 642/642/161 643/643/161 644/644/161
f 645/645/162 646/646/162 647/647/162 648/648/162
f 649/649/163 650/650/163 651/651/163 652/652/163
f 653/653/164 654/654/164 655/655/164 656/656/164
f 657/657/165 658/658/165 659/659/165 660/660/165
f 661/661/166 662/662/166 663/663/166 664/664/166
f 665/665/167 666/666/167 667/667/167 668/668/167
f 669/669/168 670/670/168 671/671/168 672/672/168
o Nose
f 673/673/169 674/674/169 675/675/169 676/676/169
f 677/677/170 678/678/170 679/679/170 680/680/170
f 681/681/171 682/682/171 683/683/171 684/684/171
f 685/685/172 686/686/172 687/687/172 688/688/172
f 689/689/173 690/690/173 691/691/173 692/692/173
f 693/693/174 694/694/174 695/695/174 696/696/174
f 697/697/175 698/698/175 699/699/175 700/700/175
f 701/701/176 702/702/176 703/703/176 704/704/176
f 705/705/177 706/706/177 707/707/177 708/708/177
f 709/709/178 710/710/178 711/711/178 712/712/178
f 713/713/179 714/714/179 715/715/179 716/716/179
f 717/717/180 718/718/180 719/719/180 720/720/180
f 721/721/181 722/722/181 723/723/181 724/724/181
f 725/725/182 726/726/182 727/727/182 728/728/182
f 729/729/183 730/730/183 731/731/183 732/732/183
f 733/733/184 734/734/184 735/735/184 736/736/184
f 737/737/185 738/738/185 739/739/185 740/740/185
f 741/741/186 742/742/186 743/743/186 744/744/186
f 745/745/187 746/746/187 747/747/187 748/748/187
f 749/749/188 750/750/188 751/751/188 752/752/188
f 753/753/189 754/754/189 755/755/189 756/756/189
f 757/757/190 758/758/190 759/759/190 760/760/190
f 761/761/191 762/762/191 763/763/191 764/764/191
f 765/765/192 766/766/192 767/767/192 768/768/192
f 769/769/193 770/770/193 771/771/193 772/772/193
f 773/773/194 774/774/194 775/775/194 776/776/194
f 777/777/195 778/778/195 779/779/195 780/780/195
f 781/781/196 782/782/196 783/783/196 784/784/196
f 785/785/197 786/786/197 787/787/197 788/788/197
f 789/789/198 790/790/198 791/791/198 792/792/198
f 793/793/199 794/794/199 795/795/199 796/796/199
f 797/797/200 798/798/200 799/799/200 800/800/200
f 801/801/201 802/802/201 803/803/201 804/804/201
f 805/805/202 806/806/202 807/807/202 808/808/202
f 809/809/203 810/810/203 811/811/203 812/812/203
f 813/813/204 814/814/204 815/815/204 816/816/204
f 817/817/205 818/818/205 819/819/205 820/820/205
f 821/821/206 822/822/206 823/823/206 824/824/206
f 825/825/207 826/826/207 827/827/207 828/828/207
f 829/829/208 830/830/208 831/831/208 832/832/208
o LeftLeg
usemtl Canvas
f 833/833/209 834/834/209 835/835/209 836/836/209
f 837/837/210 838/838/210 839/839/210 840/840/210
f 841/841/211 842/842/211 843/843/211 844/844/211
f 845/845/212 846/846/212 847/847/212 848/848/212
f 849/849/213 850/850/213 851/851/213 852/852/213
f 853/853/214 854/854/214 855/855/214 856/856/214
f 857/857/215 858/858/215 859/859/215 860/860/215
f 861/861/216 862/862/216 863/863/216 864/864/216
f 865/865/217 866/866/217 867/867/217 868/868/217
f 869/869/218 870/870/218 871/871/218 872/872/218 873/873/218 874/874/218 875/875/218 876/876/218 877/877/218
f 878/873/219 879/874/219 880/875/219 881/876/219 882/877/219 883/878/219 884/879/219 885/880/219 886/881/219
o RightLeg
f 887/877/220 888/878/220 889/879/220 890/880/220
f 891/881/221 892/882/221 893/883/221 894/884/221
f 895/885/222 896/886/222 897/887/222 898/888/222
f 899/889/223 900/890/223 901/891/223 902/892/223
f 903/893/224 904/894/224 905/895/224 906/896/224
f 907/897/225 908/898/225 909/899/225 910/900/225
f 911/901/226 912/902/226 913/903/226 914/904/226
f 915/905/227 916/906/227 917/907/227 918/908/227
f 919/909/228 920/910/228 921/911/228 922/912/228
f 923/913/229 924/914/229 925/915/229 926/916/229 927/917/229 928/918/229 929/919/229 930/920/229 931/921/229
f 932/917/230 933/918/230 934/919/230 935/920/230 936/921/230 937/922/230 938/923/230 939/924/230 940/925/230
o LeftArm
usemtl Skin
f 941/921/231 942/922/231 943/923/231 944/924/231
f 945/925/232 946/926/232 947/927/232 948/928/232
f 949/929/233 950/930/233 951/931/233 952/932/233
f 953/933/234 954/934/234 955/935/234 956/936/234
f 957/937/235 958/938/235 959/939/235 960/940/235
f 961/941/236 962/942/236 963/943/236 964/944/236
f 965/945/237 966/946/237 967/947/237 968/948/237
f 969/949/238 970/950/238 971/951/238 972/952/238
f 973/953/239 974/954/239 975/955/239 976/956/239
f 977/957/240 978/958/240 979/959/240 980/960/240 981/961/240 982/962/240 983/963/240 984/964/240 985/965/240
f 986/961/241 987/962/241 988/963/241 989/964/241 990/965/241 991/966/241 992/967/241 993/968/241 994/969/241
o RightArm
f 995/965/242 996/966/242 997/967/242 998/968/242
f 999/969/243 1000/970/243 1001/971/243 1002/972/243
f 1003/973/244 1004/974/244 1005/975/244 1006/976/244
f 1007/977/245 1008/978/245 1009/979/245 1010/980/245
f 1011/981/246 1012/982/246 1013/983/246 1014/984/246
f 1015/985/247 1016/986/247 1017/987/247 1018/988/247
f 1019/989/248 1020/990/248 1021/991/248 1022/992/248
f 1023/993/249 1024/994/249 1025/995/249 1026/996/249
f 1027/997/250 1028/998/250 1029/999/250 1030/1000/250
f 1031/1001/251 1032/1002/251 1033/1003/251 1034/1004/251 1035/1005/251 1036/1006/251 1037/1007/251 1038/1008/251 1039/1009/251
f 1040/1005/252 1041/1006/252 1042/1007/252 1043/1008/252 1044/1009/252 1045/1010/252 1046/1011/252 1047/1012/252 1048/1013/252
o Cap
usemtl Denim
f 1049/1009/253 1050/1010/253 1051/1011/253 1052/1012/253
f 1053/1013/254 1054/1014/254 1055/1015/254 1056/1016/254
f 1057/1017/255 1058/1018/255 1059/1019/255 1060/1020/255
f 1061/1021/256 1062/1022/256 1063/1023/256 1064/1024/256
f 1065/1025/257 1066/1026/257 1067/1027/257 1068/1028/257
f 1069/1029/258 1070/1030/258 1071/1031/258 1072/1032/258
f 1073/1033/259 1074/1034/259 1075/1035/259 1076/1036/259
f 1077/1037/260 1078/1038/260 1079/1039/260 1080/1040/260
f 1081/1041/261 1082/1042/261 1083/1043/261 1084/1044/261
f 1085/1045/262 1086/1046/262 1087/1047/262 1088/1048/262
f 1089/1049/263 1090/1050/263 1091/1051/263 1092/1052/263
f 1093/1053/264 1094/1054/264 1095/1055/264 1096/1056/264
f 1097/1057/265 1098/1058/265 1099/1059/265 1100/1060/265 1101/1061/265 1102/1062/265 1103/1063/265 1104/1064/265 1105/1065/265 1106/1066/265 1107/1067/265 1108/1068/265
f 1109/1061/266 1110/1062/266 1111/1063/266 1112/1064/266 1113/1065/266 1114/1066/266 1115/1067/266 1116/1068/266 1117/1069/266 1118/1070/266 1119/1071/266 1120/1072/266
o CapBrim
f 1121/1065/267 1122/1066/267 1123/1067/267 1124/1068/267
f 1125/1069/268 1126/1070/268 1127/1071/268 1128/1072/268
f 1129/1073/269 1130/1074/269 1131/1075/269 1132/1076/269
f 1133/1077/270 1134/1078/270 1135/1079/270 1136/1080/270
f 1137/1081/271 1138/1082/271 1139/1083/271 1140/1084/271
f 1141/1085/272 1142/1086/272 1143/1087/272 1144/1088/272
o Backpack
usemtl Canvas
f 1145/1089/273 1146/1090/273 1147/1091/273 1148/1092/273
f 1149/1093/274 1150/1094/274 1151/1095/274 1152/1096/274
f 1153/1097/275 1154/1098/275 1155/1099/275 1156/1100/275
f 1157/1101/276 1158/1102/276 1159/1103/276 1160/1104/276
f 1161/1105/277 1162/1106/277 1163/1107/277 1164/1108/277
f 1165/1109/278 1166/1110/278 1167/1111/278 1168/1112/278
