{"asset":{"version":"2.0","generator":"Dustbound original component-preserving asset generator"},"scene":0,"scenes":[{"nodes":[0]}],"nodes":[{"name":"crew_member","children":[1,2,3,4,5,6,7,8,9,10]},{"name":"Torso","mesh":0,"translation":[0.0,1.05,0.0]},{"name":"Head","mesh":1,"translation":[0.0,1.92,-0.03]},{"name":"Nose","mesh":2,"translation":[0.0,1.88,-0.35]},{"name":"LeftLeg","mesh":3,"translation":[-0.215175,0.37,0.0]},{"name":"RightLeg","mesh":4,"translation":[0.224825,0.37,0.0]},{"name":"LeftArm","mesh":5,"translation":[-0.52638,1.08,0.0]},{"name":"RightArm","mesh":6,"translation":[0.53362,1.08,0.0]},{"name":"Cap","mesh":7,"translation":[0.0,2.25,-0.020000000000000018]},{"name":"CapBrim","mesh":8,"translation":[0.0,2.2199999999999998,-0.37]},{"name":"Backpack","mesh":9,"translation":[0.0,1.17,0.39]}],"meshes":[{"name":"Torso","primitives":[{"attributes":{"POSITION":0,"NORMAL":1,"TEXCOORD_0":2},"indices":3,"material":0,"mode":4}]},{"name":"Head","primitives":[{"attributes":{"POSITION":4,"NORMAL":5,"TEXCOORD_0":6},"indices":7,"material":1,"mode":4}]},{"name":"Nose","primitives":[{"attributes":{"POSITION":8,"NORMAL":9,"TEXCOORD_0":10},"indices":11,"material":1,"mode":4}]},{"name":"LeftLeg","primitives":[{"attributes":{"POSITION":12,"NORMAL":13,"TEXCOORD_0":14},"indices":15,"material":2,"mode":4}]},{"name":"RightLeg","primitives":[{"attributes":{"POSITION":16,"NORMAL":17,"TEXCOORD_0":18},"indices":19,"material":2,"mode":4}]},{"name":"LeftArm","primitives":[{"attributes":{"POSITION":20,"NORMAL":21,"TEXCOORD_0":22},"indices":23,"material":1,"mode":4}]},{"name":"RightArm","primitives":[{"attributes":{"POSITION":24,"NORMAL":25,"TEXCOORD_0":26},"indices":27,"material":1,"mode":4}]},{"name":"Cap","primitives":[{"attributes":{"POSITION":28,"NORMAL":29,"TEXCOORD_0":30},"indices":31,"material":3,"mode":4}]},{"name":"CapBrim","primitives":[{"attributes":{"POSITION":32,"NORMAL":33,"TEXCOORD_0":34},"indices":35,"material":3,"mode":4}]},{"name":"Backpack","primitives":[{"attributes":{"POSITION":36,"NORMAL":37,"TEXCOORD_0":38},"indices":39,"material":2,"mode":4}]}],"materials":[{"name":"CrewCloth","pbrMetallicRoughness":{"baseColorFactor":[1.0,1.0,1.0,1.0],"roughnessFactor":0.9,"metallicFactor":0.0,"baseColorTexture":{"index":0}}},{"name":"Skin","pbrMetallicRoughness":{"baseColorFactor":[0.78,0.54,0.38,1.0],"roughnessFactor":0.86,"metallicFactor":0.0}},{"name":"Canvas","pbrMetallicRoughness":{"baseColorFactor":[0.69,0.6,0.43,1.0],"roughnessFactor":0.94,"metallicFactor":0.0}},{"name":"Denim","pbrMetallicRoughness":{"baseColorFactor":[0.15,0.25,0.34,1.0],"roughnessFactor":0.92,"metallicFactor":0.0}}],"samplers":[{"magFilter":9729,"minFilter":9987,"wrapS":10497,"wrapT":10497}],"images":[{"uri":"../textures/crew_fabric.png"}],"textures":[{"source":0,"sampler":0}],"buffers":[{"byteLength":44720,"uri":"data:application/octet-stream;base64,"}],"bufferViews":[{"buffer":0,"byteOffset":0,"byteLength":4032,"target":34962},{"buffer":0,"byteOffset":4032,"byteLength":4032,"target":34962},{"buffer":0,"byteOffset":8064,"byteLength":2688,"target":34962},{"buffer":0,"byteOffset":10752,"byteLength":2016,"target":34963},{"buffer":0,"byteOffset":12768,"byteLength":4032,"target":34962},{"buffer":0,"byteOffset":16800,"byteLength":4032,"target":34962},{"buffer":0,"byteOffset":20832,"byteLength":2688,"target":34962},{"buffer":0,"byteOffset":23520,"byteLength":2016,"target":34963},{"buffer":0,"byteOffset":25536,"byteLength":1920,"target":34962},{"buffer":0,"byteOffset":27456,"byteLength":1920,"target":34962},{"buffer":0,"byteOffset":29376,"byteLength":1280,"target":34962},{"buffer":0,"byteOffset":30656,"byteLength":960,"target":34963},{"buffer":0,"byteOffset":31616,"byteLength":648,"target":34962},{"buffer":0,"byteOffset":32264,"byteLength":648,"target":34962},{"buffer":0,"byteOffset":32912,"byteLength":432,"target":34962},{"buffer":0,"byteOffset":33344,"byteLength":384,"target":34963},{"buffer":0,"byteOffset":33728,"byteLength":648,"target":34962},{"buffer":0,"byteOffset":34376,"byteLength":648,"target":34962},{"buffer":0,"byteOffset":35024,"byteLength":432,"target":34962},{"buffer":0,"byteOffset":35456,"byteLength":384,"target":34963},{"buffer":0,"byteOffset":35840,"byteLength":648,"target":34962},{"buffer":0,"byteOffset":36488,"byteLength":648,"target":34962},{"buffer":0,"byteOffset":37136,"byteLength":432,"target":34962},{"buffer":0,"byteOffset":37568,"byteLength":384,"target":34963},{"buffer":0,"byteOffset":37952,"byteLength":648,"target":34962},{"buffer":0,"byteOffset":38600,"byteLength":648,"target":34962},{"buffer":0,"byteOffset":39248,"byteLength":432,"target":34962},{"buffer":0,"byteOffset":39680,"byteLength":384,"target":34963},{"buffer":0,"byteOffset":40064,"byteLength":864,"target":34962},{"buffer":0,"byteOffset":40928,"byteLength":864,"target":34962},{"buffer":0,"byteOffset":41792,"byteLength":576,"target":34962},{"buffer":0,"byteOffset":42368,"byteLength":528,"target":34963},{"buffer":0,"byteOffset":42896,"byteLength":288,"target":34962},{"buffer":0,"byteOffset":43184,"byteLength":288,"target":34962},{"buffer":0,"byteOffset":43472,"byteLength":192,"target":34962},{"buffer":0,"byteOffset":43664,"byteLength":144,"target":34963},{"buffer":0,"byteOffset":43808,"byteLength":288,"target":34962},{"buffer":0,"byteOffset":44096,"byteLength":288,"target":34962},{"buffer":0,"byteOffset":44384,"byteLength":192,"target":34962},{"buffer":0,"byteOffset":44576,"byteLength":144,"target":34963}],"accessors":[{"bufferView":0,"componentType":5126,"count":336,"type":"VEC3","min":[-0.46797,-0.68,-0.35097],"max":[0.46797,0.6799999999999999,0.35097]},{"bufferView":1,"componentType":5126,"count":336,"type":"VEC3"},{"bufferView":2,"componentType":5126,"count":336,"type":"VEC2"},{"bufferView":3,"componentType":5125,"count":504,"type":"SCALAR"},{"bufferView":4,"componentType":5126,"count":336,"type":"VEC3","min":[-0.35097,-0.3799999999999999,-0.34121999999999997],"max":[0.35097,0.3799999999999999,0.34121999999999997]},{"bufferView":5,"componentType":5126,"count":336,"type":"VEC3"},{"bufferView":6,"componentType":5126,"count":336,"type":"VEC2"},{"bufferView":7,"componentType":5125,"count":504,"type":"SCALAR"},{"bufferView":8,"componentType":5126,"count":160,"type":"VEC3","min":[-0.10462,-0.08999999999999986,-0.13315000000000005],"max":[0.10462,0.09000000000000008,0.13315]},{"bufferView":9,"componentType":5126,"count":160,"type":"VEC3"},{"bufferView":10,"componentType":5126,"count":160,"type":"VEC2"},{"bufferView":11,"componentType":5125,"count":240,"type":"SCALAR"},{"bufferView":12,"componentType":5126,"count":54,"type":"VEC3","min":[-0.155175,-0.325,-0.15757],"max":[0.155175,0.32499999999999996,0.15757]},{"bufferView":13,"componentType":5126,"count":54,"type":"VEC3"},{"bufferView":14,"componentType":5126,"count":54,"type":"VEC2"},{"bufferView":15,"componentType":5125,"count":96,"type":"SCALAR"},{"bufferView":16,"componentType":5126,"count":54,"type":"VEC3","min":[-0.155175,-0.325,-0.15757],"max":[0.155175,0.32499999999999996,0.15757]},{"bufferView":17,"componentType":5126,"count":54,"type":"VEC3"},{"bufferView":18,"componentType":5126,"count":54,"type":"VEC2"},{"bufferView":19,"componentType":5125,"count":96,"type":"SCALAR"},{"bufferView":20,"componentType":5126,"count":54,"type":"VEC3","min":[-0.11638000000000004,-0.3600000000000001,-0.11818],"max":[0.11637999999999998,0.3599999999999999,0.11818]},{"bufferView":21,"componentType":5126,"count":54,"type":"VEC3"},{"bufferView":22,"componentType":5126,"count":54,"type":"VEC2"},{"bufferView":23,"componentType":5125,"count":96,"type":"SCALAR"},{"bufferView":24,"componentType":5126,"count":54,"type":"VEC3","min":[-0.11637999999999998,-0.3600000000000001,-0.11818],"max":[0.11638000000000004,0.3599999999999999,0.11818]},{"bufferView":25,"componentType":5126,"count":54,"type":"VEC3"},{"bufferView":26,"componentType":5126,"count":54,"type":"VEC2"},{"bufferView":27,"componentType":5125,"count":96,"type":"SCALAR"},{"bufferView":28,"componentType":5126,"count":72,"type":"VEC3","min":[-0.37,-0.06000000000000005,-0.37],"max":[0.37,0.06000000000000005,0.37]},{"bufferView":29,"componentType":5126,"count":72,"type":"VEC3"},{"bufferView":30,"componentType":5126,"count":72,"type":"VEC2"},{"bufferView":31,"componentType":5125,"count":132,"type":"SCALAR"},{"bufferView":32,"componentType":5126,"count":24,"type":"VEC3","min":[-0.24,-0.02499999999999991,-0.14],"max":[0.24,0.025000000000000355,0.13999999999999999]},{"bufferView":33,"componentType":5126,"count":24,"type":"VEC3"},{"bufferView":34,"componentType":5126,"count":24,"type":"VEC2"},{"bufferView":35,"componentType":5125,"count":36,"type":"SCALAR"},{"bufferView":36,"componentType":5126,"count":24,"type":"VEC3","min":[-0.29,-0.3599999999999999,-0.11499999999999999],"max":[0.29,0.3600000000000001,0.11499999999999999]},{"bufferView":37,"componentType":5126,"count":24,"type":"VEC3"},{"bufferView":38,"componentType":5126,"count":24,"type":"VEC2"},{"bufferView":39,"componentType":5125,"count":36,"type":"SCALAR"}]}