# Original Dustbound Expeditions low-poly model
mtllib dustbound.mtl
v -0.64000 -0.65000 -0.82000
v -0.53420 -0.61753 -0.82000
v -0.55895 -0.61753 -0.58575
v -0.64000 -0.65000 -0.82000
v -0.64000 -0.65000 -0.82000
v -0.55895 -0.61753 -0.58575
v -0.62163 -0.61753 -0.46111
v -0.64000 -0.65000 -0.82000
v -0.64000 -0.65000 -0.82000
v -0.62163 -0.61753 -0.46111
v -0.69290 -0.61753 -0.50440
v -0.64000 -0.65000 -0.82000
v -0.64000 -0.65000 -0.82000
v -0.69290 -0.61753 -0.50440
v -0.73942 -0.61753 -0.69536
v -0.64000 -0.65000 -0.82000
v -0.64000 -0.65000 -0.82000
v -0.73942 -0.61753 -0.69536
v -0.73942 -0.61753 -0.94464
v -0.64000 -0.65000 -0.82000
v -0.64000 -0.65000 -0.82000
v -0.73942 -0.61753 -0.94464
v -0.69290 -0.61753 -1.13560
v -0.64000 -0.65000 -0.82000
v -0.64000 -0.65000 -0.82000
v -0.69290 -0.61753 -1.13560
v -0.62163 -0.61753 -1.17889
v -0.64000 -0.65000 -0.82000
v -0.64000 -0.65000 -0.82000
v -0.62163 -0.61753 -1.17889
v -0.55895 -0.61753 -1.05425
v -0.64000 -0.65000 -0.82000
v -0.64000 -0.65000 -0.82000
v -0.55895 -0.61753 -1.05425
v -0.53420 -0.61753 -0.82000
v -0.64000 -0.65000 -0.82000
v -0.53420 -0.61753 -0.82000
v -0.46881 -0.53253 -0.82000
v -0.50886 -0.53253 -0.44098
v -0.55895 -0.61753 -0.58575
v -0.55895 -0.61753 -0.58575
v -0.50886 -0.53253 -0.44098
v -0.61027 -0.53253 -0.23930
v -0.62163 -0.61753 -0.46111
v -0.62163 -0.61753 -0.46111
v -0.61027 -0.53253 -0.23930
v -0.72560 -0.53253 -0.30934
v -0.69290 -0.61753 -0.50440
v -0.69290 -0.61753 -0.50440
v -0.72560 -0.53253 -0.30934
v -0.80087 -0.53253 -0.61833
v -0.73942 -0.61753 -0.69536
v -0.73942 -0.61753 -0.69536
v -0.80087 -0.53253 -0.61833
v -0.80087 -0.53253 -1.02167
v -0.73942 -0.61753 -0.94464
v -0.73942 -0.61753 -0.94464
v -0.80087 -0.53253 -1.02167
v -0.72560 -0.53253 -1.33066
v -0.69290 -0.61753 -1.13560
v -0.69290 -0.61753 -1.13560
v -0.72560 -0.53253 -1.33066
v -0.61027 -0.53253 -1.40070
v -0.62163 -0.61753 -1.17889
v -0.62163 -0.61753 -1.17889
v -0.61027 -0.53253 -1.40070
v -0.50886 -0.53253 -1.19902
v -0.55895 -0.61753 -1.05425
v -0.55895 -0.61753 -1.05425
v -0.50886 -0.53253 -1.19902
v -0.46881 -0.53253 -0.82000
v -0.53420 -0.61753 -0.82000
v -0.46881 -0.53253 -0.82000
v -0.46881 -0.42747 -0.82000
v -0.50886 -0.42747 -0.44098
v -0.50886 -0.53253 -0.44098
v -0.50886 -0.53253 -0.44098
v -0.50886 -0.42747 -0.44098
v -0.61027 -0.42747 -0.23930
v -0.61027 -0.53253 -0.23930
v -0.61027 -0.53253 -0.23930
v -0.61027 -0.42747 -0.23930
v -0.72560 -0.42747 -0.30934
v -0.72560 -0.53253 -0.30934
v -0.72560 -0.53253 -0.30934
v -0.72560 -0.42747 -0.30934
v -0.80087 -0.42747 -0.61833
v -0.80087 -0.53253 -0.61833
v -0.80087 -0.53253 -0.61833
v -0.80087 -0.42747 -0.61833
v -0.80087 -0.42747 -1.02167
v -0.80087 -0.53253 -1.02167
v -0.80087 -0.53253 -1.02167
v -0.80087 -0.42747 -1.02167
v -0.72560 -0.42747 -1.33066
v -0.72560 -0.53253 -1.33066
v -0.72560 -0.53253 -1.33066
v -0.72560 -0.42747 -1.33066
v -0.61027 -0.42747 -1.40070
v -0.61027 -0.53253 -1.40070
v -0.61027 -0.53253 -1.40070
v -0.61027 -0.42747 -1.40070
v -0.50886 -0.42747 -1.19902
v -0.50886 -0.53253 -1.19902
v -0.50886 -0.53253 -1.19902
v -0.50886 -0.42747 -1.19902
v -0.46881 -0.42747 -0.82000
v -0.46881 -0.53253 -0.82000
v -0.46881 -0.42747 -0.82000
v -0.53420 -0.34247 -0.82000
v -0.55895 -0.34247 -0.58575
v -0.50886 -0.42747 -0.44098
v -0.50886 -0.42747 -0.44098
v -0.55895 -0.34247 -0.58575
v -0.62163 -0.34247 -0.46111
v -0.61027 -0.42747 -0.23930
v -0.61027 -0.42747 -0.23930
v -0.62163 -0.34247 -0.46111
v -0.69290 -0.34247 -0.50440
v -0.72560 -0.42747 -0.30934
v -0.72560 -0.42747 -0.30934
v -0.69290 -0.34247 -0.50440
v -0.73942 -0.34247 -0.69536
v -0.80087 -0.42747 -0.61833
v -0.80087 -0.42747 -0.61833
v -0.73942 -0.34247 -0.69536
v -0.73942 -0.34247 -0.94464
v -0.80087 -0.42747 -1.02167
v -0.80087 -0.42747 -1.02167
v -0.73942 -0.34247 -0.94464
v -0.69290 -0.34247 -1.13560
v -0.72560 -0.42747 -1.33066
v -0.72560 -0.42747 -1.33066
v -0.69290 -0.34247 -1.13560
v -0.62163 -0.34247 -1.17889
v -0.61027 -0.42747 -1.40070
v -0.61027 -0.42747 -1.40070
v -0.62163 -0.34247 -1.17889
v -0.55895 -0.34247 -1.05425
v -0.50886 -0.42747 -1.19902
v -0.50886 -0.42747 -1.19902
v -0.55895 -0.34247 -1.05425
v -0.53420 -0.34247 -0.82000
v -0.46881 -0.42747 -0.82000
v -0.53420 -0.34247 -0.82000
v -0.64000 -0.31000 -0.82000
v -0.64000 -0.31000 -0.82000
v -0.55895 -0.34247 -0.58575
v -0.55895 -0.34247 -0.58575
v -0.64000 -0.31000 -0.82000
v -0.64000 -0.31000 -0.82000
v -0.62163 -0.34247 -0.46111
v -0.62163 -0.34247 -0.46111
v -0.64000 -0.31000 -0.82000
v -0.64000 -0.31000 -0.82000
v -0.69290 -0.34247 -0.50440
v -0.69290 -0.34247 -0.50440
v -0.64000 -0.31000 -0.82000
v -0.64000 -0.31000 -0.82000
v -0.73942 -0.34247 -0.69536
v -0.73942 -0.34247 -0.69536
v -0.64000 -0.31000 -0.82000
v -0.64000 -0.31000 -0.82000
v -0.73942 -0.34247 -0.94464
v -0.73942 -0.34247 -0.94464
v -0.64000 -0.31000 -0.82000
v -0.64000 -0.31000 -0.82000
v -0.69290 -0.34247 -1.13560
v -0.69290 -0.34247 -1.13560
v -0.64000 -0.31000 -0.82000
v -0.64000 -0.31000 -0.82000
v -0.62163 -0.34247 -1.17889
v -0.62163 -0.34247 -1.17889
v -0.64000 -0.31000 -0.82000
v -0.64000 -0.31000 -0.82000
v -0.55895 -0.34247 -1.05425
v -0.55895 -0.34247 -1.05425
v -0.64000 -0.31000 -0.82000
v -0.64000 -0.31000 -0.82000
v -0.53420 -0.34247 -0.82000
v 0.64000 -0.65000 -0.82000
v 0.74580 -0.61753 -0.82000
v 0.72105 -0.61753 -0.58575
v 0.64000 -0.65000 -0.82000
v 0.64000 -0.65000 -0.82000
v 0.72105 -0.61753 -0.58575
v 0.65837 -0.61753 -0.46111
v 0.64000 -0.65000 -0.82000
v 0.64000 -0.65000 -0.82000
v 0.65837 -0.61753 -0.46111
v 0.58710 -0.61753 -0.50440
v 0.64000 -0.65000 -0.82000
v 0.64000 -0.65000 -0.82000
v 0.58710 -0.61753 -0.50440
v 0.54058 -0.61753 -0.69536
v 0.64000 -0.65000 -0.82000
v 0.64000 -0.65000 -0.82000
v 0.54058 -0.61753 -0.69536
v 0.54058 -0.61753 -0.94464
v 0.64000 -0.65000 -0.82000
v 0.64000 -0.65000 -0.82000
v 0.54058 -0.61753 -0.94464
v 0.58710 -0.61753 -1.13560
v 0.64000 -0.65000 -0.82000
v 0.64000 -0.65000 -0.82000
v 0.58710 -0.61753 -1.13560
v 0.65837 -0.61753 -1.17889
v 0.64000 -0.65000 -0.82000
v 0.64000 -0.65000 -0.82000
v 0.65837 -0.61753 -1.17889
v 0.72105 -0.61753 -1.05425
v 0.64000 -0.65000 -0.82000
v 0.64000 -0.65000 -0.82000
v 0.72105 -0.61753 -1.05425
v 0.74580 -0.61753 -0.82000
v 0.64000 -0.65000 -0.82000
v 0.74580 -0.61753 -0.82000
v 0.81119 -0.53253 -0.82000
v 0.77114 -0.53253 -0.44098
v 0.72105 -0.61753 -0.58575
v 0.72105 -0.61753 -0.58575
v 0.77114 -0.53253 -0.44098
v 0.66973 -0.53253 -0.23930
v 0.65837 -0.61753 -0.46111
v 0.65837 -0.61753 -0.46111
v 0.66973 -0.53253 -0.23930
v 0.55440 -0.53253 -0.30934
v 0.58710 -0.61753 -0.50440
v 0.58710 -0.61753 -0.50440
v 0.55440 -0.53253 -0.30934
v 0.47913 -0.53253 -0.61833
v 0.54058 -0.61753 -0.69536
v 0.54058 -0.61753 -0.69536
v 0.47913 -0.53253 -0.61833
v 0.47913 -0.53253 -1.02167
v 0.54058 -0.61753 -0.94464
v 0.54058 -0.61753 -0.94464
v 0.47913 -0.53253 -1.02167
v 0.55440 -0.53253 -1.33066
v 0.58710 -0.61753 -1.13560
v 0.58710 -0.61753 -1.13560
v 0.55440 -0.53253 -1.33066
v 0.66973 -0.53253 -1.40070
v 0.65837 -0.61753 -1.17889
v 0.65837 -0.61753 -1.17889
v 0.66973 -0.53253 -1.40070
v 0.77114 -0.53253 -1.19902
v 0.72105 -0.61753 -1.05425
v 0.72105 -0.61753 -1.05425
v 0.77114 -0.53253 -1.19902
v 0.81119 -0.53253 -0.82000
v 0.74580 -0.61753 -0.82000
v 0.81119 -0.53253 -0.82000
v 0.81119 -0.42747 -0.82000
v 0.77114 -0.42747 -0.44098
v 0.77114 -0.53253 -0.44098
v 0.77114 -0.53253 -0.44098
v 0.77114 -0.42747 -0.44098
v 0.66973 -0.42747 -0.23930
v 0.66973 -0.53253 -0.23930
v 0.66973 -0.53253 -0.23930
v 0.66973 -0.42747 -0.23930
v 0.55440 -0.42747 -0.30934
v 0.55440 -0.53253 -0.30934
v 0.55440 -0.53253 -0.30934
v 0.55440 -0.42747 -0.30934
v 0.47913 -0.42747 -0.61833
v 0.47913 -0.53253 -0.61833
v 0.47913 -0.53253 -0.61833
v 0.47913 -0.42747 -0.61833
v 0.47913 -0.42747 -1.02167
v 0.47913 -0.53253 -1.02167
v 0.47913 -0.53253 -1.02167
v 0.47913 -0.42747 -1.02167
v 0.55440 -0.42747 -1.33066
v 0.55440 -0.53253 -1.33066
v 0.55440 -0.53253 -1.33066
v 0.55440 -0.42747 -1.33066
v 0.66973 -0.42747 -1.40070
v 0.66973 -0.53253 -1.40070
v 0.66973 -0.53253 -1.40070
v 0.66973 -0.42747 -1.40070
v 0.77114 -0.42747 -1.19902
v 0.77114 -0.53253 -1.19902
v 0.77114 -0.53253 -1.19902
v 0.77114 -0.42747 -1.19902
v 0.81119 -0.42747 -0.82000
v 0.81119 -0.53253 -0.82000
v 0.81119 -0.42747 -0.82000
v 0.74580 -0.34247 -0.82000
v 0.72105 -0.34247 -0.58575
v 0.77114 -0.42747 -0.44098
v 0.77114 -0.42747 -0.44098
v 0.72105 -0.34247 -0.58575
v 0.65837 -0.34247 -0.46111
v 0.66973 -0.42747 -0.23930
v 0.66973 -0.42747 -0.23930
v 0.65837 -0.34247 -0.46111
v 0.58710 -0.34247 -0.50440
v 0.55440 -0.42747 -0.30934
v 0.55440 -0.42747 -0.30934
v 0.58710 -0.34247 -0.50440
v 0.54058 -0.34247 -0.69536
v 0.47913 -0.42747 -0.61833
v 0.47913 -0.42747 -0.61833
v 0.54058 -0.34247 -0.69536
v 0.54058 -0.34247 -0.94464
v 0.47913 -0.42747 -1.02167
v 0.47913 -0.42747 -1.02167
v 0.54058 -0.34247 -0.94464
v 0.58710 -0.34247 -1.13560
v 0.55440 -0.42747 -1.33066
v 0.55440 -0.42747 -1.33066
v 0.58710 -0.34247 -1.13560
v 0.65837 -0.34247 -1.17889
v 0.66973 -0.42747 -1.40070
v 0.66973 -0.42747 -1.40070
v 0.65837 -0.34247 -1.17889
v 0.72105 -0.34247 -1.05425
v 0.77114 -0.42747 -1.19902
v 0.77114 -0.42747 -1.19902
v 0.72105 -0.34247 -1.05425
v 0.74580 -0.34247 -0.82000
v 0.81119 -0.42747 -0.82000
v 0.74580 -0.34247 -0.82000
v 0.64000 -0.31000 -0.82000
v 0.64000 -0.31000 -0.82000
v 0.72105 -0.34247 -0.58575
v 0.72105 -0.34247 -0.58575
v 0.64000 -0.31000 -0.82000
v 0.64000 -0.31000 -0.82000
v 0.65837 -0.34247 -0.46111
v 0.65837 -0.34247 -0.46111
v 0.64000 -0.31000 -0.82000
v 0.64000 -0.31000 -0.82000
v 0.58710 -0.34247 -0.50440
v 0.58710 -0.34247 -0.50440
v 0.64000 -0.31000 -0.82000
v 0.64000 -0.31000 -0.82000
v 0.54058 -0.34247 -0.69536
v 0.54058 -0.34247 -0.69536
v 0.64000 -0.31000 -0.82000
v 0.64000 -0.31000 -0.82000
v 0.54058 -0.34247 -0.94464
v 0.54058 -0.34247 -0.94464
v 0.64000 -0.31000 -0.82000
v 0.64000 -0.31000 -0.82000
v 0.58710 -0.34247 -1.13560
v 0.58710 -0.34247 -1.13560
v 0.64000 -0.31000 -0.82000
v 0.64000 -0.31000 -0.82000
v 0.65837 -0.34247 -1.17889
v 0.65837 -0.34247 -1.17889
v 0.64000 -0.31000 -0.82000
v 0.64000 -0.31000 -0.82000
v 0.72105 -0.34247 -1.05425
v 0.72105 -0.34247 -1.05425
v 0.64000 -0.31000 -0.82000
v 0.64000 -0.31000 -0.82000
v 0.74580 -0.34247 -0.82000
v -0.55000 -0.55000 -1.30000
v -0.43244 -0.51944 -1.30000
v -0.45995 -0.51944 -1.20932
v -0.55000 -0.55000 -1.30000
v -0.55000 -0.55000 -1.30000
v -0.45995 -0.51944 -1.20932
v -0.52959 -0.51944 -1.16107
v -0.55000 -0.55000 -1.30000
v -0.55000 -0.55000 -1.30000
v -0.52959 -0.51944 -1.16107
v -0.60878 -0.51944 -1.17783
v -0.55000 -0.55000 -1.30000
v -0.55000 -0.55000 -1.30000
v -0.60878 -0.51944 -1.17783
v -0.66047 -0.51944 -1.25175
v -0.55000 -0.55000 -1.30000
v -0.55000 -0.55000 -1.30000
v -0.66047 -0.51944 -1.25175
v -0.66047 -0.51944 -1.34825
v -0.55000 -0.55000 -1.30000
v -0.55000 -0.55000 -1.30000
v -0.66047 -0.51944 -1.34825
v -0.60878 -0.51944 -1.42217
v -0.55000 -0.55000 -1.30000
v -0.55000 -0.55000 -1.30000
v -0.60878 -0.51944 -1.42217
v -0.52959 -0.51944 -1.43893
v -0.55000 -0.55000 -1.30000
v -0.55000 -0.55000 -1.30000
v -0.52959 -0.51944 -1.43893
v -0.45995 -0.51944 -1.39068
v -0.55000 -0.55000 -1.30000
v -0.55000 -0.55000 -1.30000
v -0.45995 -0.51944 -1.39068
v -0.43244 -0.51944 -1.30000
v -0.55000 -0.55000 -1.30000
v -0.43244 -0.51944 -1.30000
v -0.35979 -0.43944 -1.30000
v -0.40429 -0.43944 -1.15328
v -0.45995 -0.51944 -1.20932
v -0.45995 -0.51944 -1.20932
v -0.40429 -0.43944 -1.15328
v -0.51697 -0.43944 -1.07521
v -0.52959 -0.51944 -1.16107
v -0.52959 -0.51944 -1.16107
v -0.51697 -0.43944 -1.07521
v -0.64511 -0.43944 -1.10233
v -0.60878 -0.51944 -1.17783
v -0.60878 -0.51944 -1.17783
v -0.64511 -0.43944 -1.10233
v -0.72874 -0.43944 -1.22193
v -0.66047 -0.51944 -1.25175
v -0.66047 -0.51944 -1.25175
v -0.72874 -0.43944 -1.22193
v -0.72874 -0.43944 -1.37807
v -0.66047 -0.51944 -1.34825
v -0.66047 -0.51944 -1.34825
v -0.72874 -0.43944 -1.37807
v -0.64511 -0.43944 -1.49767
v -0.60878 -0.51944 -1.42217
v -0.60878 -0.51944 -1.42217
v -0.64511 -0.43944 -1.49767
v -0.51697 -0.43944 -1.52479
v -0.52959 -0.51944 -1.43893
v -0.52959 -0.51944 -1.43893
v -0.51697 -0.43944 -1.52479
v -0.40429 -0.43944 -1.44672
v -0.45995 -0.51944 -1.39068
v -0.45995 -0.51944 -1.39068
v -0.40429 -0.43944 -1.44672
v -0.35979 -0.43944 -1.30000
v -0.43244 -0.51944 -1.30000
v -0.35979 -0.43944 -1.30000
v -0.35979 -0.34056 -1.30000
v -0.40429 -0.34056 -1.15328
v -0.40429 -0.43944 -1.15328
v -0.40429 -0.43944 -1.15328
v -0.40429 -0.34056 -1.15328
v -0.51697 -0.34056 -1.07521
v -0.51697 -0.43944 -1.07521
v -0.51697 -0.43944 -1.07521
v -0.51697 -0.34056 -1.07521
v -0.64511 -0.34056 -1.10233
v -0.64511 -0.43944 -1.10233
v -0.64511 -0.43944 -1.10233
v -0.64511 -0.34056 -1.10233
v -0.72874 -0.34056 -1.22193
v -0.72874 -0.43944 -1.22193
v -0.72874 -0.43944 -1.22193
v -0.72874 -0.34056 -1.22193
v -0.72874 -0.34056 -1.37807
v -0.72874 -0.43944 -1.37807
v -0.72874 -0.43944 -1.37807
v -0.72874 -0.34056 -1.37807
v -0.64511 -0.34056 -1.49767
v -0.64511 -0.43944 -1.49767
v -0.64511 -0.43944 -1.49767
v -0.64511 -0.34056 -1.49767
v -0.51697 -0.34056 -1.52479
v -0.51697 -0.43944 -1.52479
v -0.51697 -0.43944 -1.52479
v -0.51697 -0.34056 -1.52479
v -0.40429 -0.34056 -1.44672
v -0.40429 -0.43944 -1.44672
v -0.40429 -0.43944 -1.44672
v -0.40429 -0.34056 -1.44672
v -0.35979 -0.34056 -1.30000
v -0.35979 -0.43944 -1.30000
v -0.35979 -0.34056 -1.30000
v -0.43244 -0.26056 -1.30000
v -0.45995 -0.26056 -1.20932
v -0.40429 -0.34056 -1.15328
v -0.40429 -0.34056 -1.15328
v -0.45995 -0.26056 -1.20932
v -0.52959 -0.26056 -1.16107
v -0.51697 -0.34056 -1.07521
v -0.51697 -0.34056 -1.07521
v -0.52959 -0.26056 -1.16107
v -0.60878 -0.26056 -1.17783
v -0.64511 -0.34056 -1.10233
v -0.64511 -0.34056 -1.10233
v -0.60878 -0.26056 -1.17783
v -0.66047 -0.26056 -1.25175
v -0.72874 -0.34056 -1.22193
v -0.72874 -0.34056 -1.22193
v -0.66047 -0.26056 -1.25175
v -0.66047 -0.26056 -1.34825
v -0.72874 -0.34056 -1.37807
v -0.72874 -0.34056 -1.37807
v -0.66047 -0.26056 -1.34825
v -0.60878 -0.26056 -1.42217
v -0.64511 -0.34056 -1.49767
v -0.64511 -0.34056 -1.49767
v -0.60878 -0.26056 -1.42217
v -0.52959 -0.26056 -1.43893
v -0.51697 -0.34056 -1.52479
v -0.51697 -0.34056 -1.52479
v -0.52959 -0.26056 -1.43893
v -0.45995 -0.26056 -1.39068
v -0.40429 -0.34056 -1.44672
v -0.40429 -0.34056 -1.44672
v -0.45995 -0.26056 -1.39068
v -0.43244 -0.26056 -1.30000
v -0.35979 -0.34056 -1.30000
v -0.43244 -0.26056 -1.30000
v -0.55000 -0.23000 -1.30000
v -0.55000 -0.23000 -1.30000
v -0.45995 -0.26056 -1.20932
v -0.45995 -0.26056 -1.20932
v -0.55000 -0.23000 -1.30000
v -0.55000 -0.23000 -1.30000
v -0.52959 -0.26056 -1.16107
v -0.52959 -0.26056 -1.16107
v -0.55000 -0.23000 -1.30000
v -0.55000 -0.23000 -1.30000
v -0.60878 -0.26056 -1.17783
v -0.60878 -0.26056 -1.17783
v -0.55000 -0.23000 -1.30000
v -0.55000 -0.23000 -1.30000
v -0.66047 -0.26056 -1.25175
v -0.66047 -0.26056 -1.25175
v -0.55000 -0.23000 -1.30000
v -0.55000 -0.23000 -1.30000
v -0.66047 -0.26056 -1.34825
v -0.66047 -0.26056 -1.34825
v -0.55000 -0.23000 -1.30000
v -0.55000 -0.23000 -1.30000
v -0.60878 -0.26056 -1.42217
v -0.60878 -0.26056 -1.42217
v -0.55000 -0.23000 -1.30000
v -0.55000 -0.23000 -1.30000
v -0.52959 -0.26056 -1.43893
v -0.52959 -0.26056 -1.43893
v -0.55000 -0.23000 -1.30000
v -0.55000 -0.23000 -1.30000
v -0.45995 -0.26056 -1.39068
v -0.45995 -0.26056 -1.39068
v -0.55000 -0.23000 -1.30000
v -0.55000 -0.23000 -1.30000
v -0.43244 -0.26056 -1.30000
v 0.55000 -0.55000 -1.30000
v 0.66756 -0.51944 -1.30000
v 0.64005 -0.51944 -1.20932
v 0.55000 -0.55000 -1.30000
v 0.55000 -0.55000 -1.30000
v 0.64005 -0.51944 -1.20932
v 0.57041 -0.51944 -1.16107
v 0.55000 -0.55000 -1.30000
v 0.55000 -0.55000 -1.30000
v 0.57041 -0.51944 -1.16107
v 0.49122 -0.51944 -1.17783
v 0.55000 -0.55000 -1.30000
v 0.55000 -0.55000 -1.30000
v 0.49122 -0.51944 -1.17783
v 0.43953 -0.51944 -1.25175
v 0.55000 -0.55000 -1.30000
v 0.55000 -0.55000 -1.30000
v 0.43953 -0.51944 -1.25175
v 0.43953 -0.51944 -1.34825
v 0.55000 -0.55000 -1.30000
v 0.55000 -0.55000 -1.30000
v 0.43953 -0.51944 -1.34825
v 0.49122 -0.51944 -1.42217
v 0.55000 -0.55000 -1.30000
v 0.55000 -0.55000 -1.30000
v 0.49122 -0.51944 -1.42217
v 0.57041 -0.51944 -1.43893
v 0.55000 -0.55000 -1.30000
v 0.55000 -0.55000 -1.30000
v 0.57041 -0.51944 -1.43893
v 0.64005 -0.51944 -1.39068
v 0.55000 -0.55000 -1.30000
v 0.55000 -0.55000 -1.30000
v 0.64005 -0.51944 -1.39068
v 0.66756 -0.51944 -1.30000
v 0.55000 -0.55000 -1.30000
v 0.66756 -0.51944 -1.30000
v 0.74021 -0.43944 -1.30000
v 0.69571 -0.43944 -1.15328
v 0.64005 -0.51944 -1.20932
v 0.64005 -0.51944 -1.20932
v 0.69571 -0.43944 -1.15328
v 0.58303 -0.43944 -1.07521
v 0.57041 -0.51944 -1.16107
v 0.57041 -0.51944 -1.16107
v 0.58303 -0.43944 -1.07521
v 0.45489 -0.43944 -1.10233
v 0.49122 -0.51944 -1.17783
v 0.49122 -0.51944 -1.17783
v 0.45489 -0.43944 -1.10233
v 0.37126 -0.43944 -1.22193
v 0.43953 -0.51944 -1.25175
v 0.43953 -0.51944 -1.25175
v 0.37126 -0.43944 -1.22193
v 0.37126 -0.43944 -1.37807
v 0.43953 -0.51944 -1.34825
v 0.43953 -0.51944 -1.34825
v 0.37126 -0.43944 -1.37807
v 0.45489 -0.43944 -1.49767
v 0.49122 -0.51944 -1.42217
v 0.49122 -0.51944 -1.42217
v 0.45489 -0.43944 -1.49767
v 0.58303 -0.43944 -1.52479
v 0.57041 -0.51944 -1.43893
v 0.57041 -0.51944 -1.43893
v 0.58303 -0.43944 -1.52479
v 0.69571 -0.43944 -1.44672
v 0.64005 -0.51944 -1.39068
v 0.64005 -0.51944 -1.39068
v 0.69571 -0.43944 -1.44672
v 0.74021 -0.43944 -1.30000
v 0.66756 -0.51944 -1.30000
v 0.74021 -0.43944 -1.30000
v 0.74021 -0.34056 -1.30000
v 0.69571 -0.34056 -1.15328
v 0.69571 -0.43944 -1.15328
v 0.69571 -0.43944 -1.15328
v 0.69571 -0.34056 -1.15328
v 0.58303 -0.34056 -1.07521
v 0.58303 -0.43944 -1.07521
v 0.58303 -0.43944 -1.07521
v 0.58303 -0.34056 -1.07521
v 0.45489 -0.34056 -1.10233
v 0.45489 -0.43944 -1.10233
v 0.45489 -0.43944 -1.10233
v 0.45489 -0.34056 -1.10233
v 0.37126 -0.34056 -1.22193
v 0.37126 -0.43944 -1.22193
v 0.37126 -0.43944 -1.22193
v 0.37126 -0.34056 -1.22193
v 0.37126 -0.34056 -1.37807
v 0.37126 -0.43944 -1.37807
v 0.37126 -0.43944 -1.37807
v 0.37126 -0.34056 -1.37807
v 0.45489 -0.34056 -1.49767
v 0.45489 -0.43944 -1.49767
v 0.45489 -0.43944 -1.49767
v 0.45489 -0.34056 -1.49767
v 0.58303 -0.34056 -1.52479
v 0.58303 -0.43944 -1.52479
v 0.58303 -0.43944 -1.52479
v 0.58303 -0.34056 -1.52479
v 0.69571 -0.34056 -1.44672
v 0.69571 -0.43944 -1.44672
v 0.69571 -0.43944 -1.44672
v 0.69571 -0.34056 -1.44672
v 0.74021 -0.34056 -1.30000
v 0.74021 -0.43944 -1.30000
v 0.74021 -0.34056 -1.30000
v 0.66756 -0.26056 -1.30000
v 0.64005 -0.26056 -1.20932
v 0.69571 -0.34056 -1.15328
v 0.69571 -0.34056 -1.15328
v 0.64005 -0.26056 -1.20932
v 0.57041 -0.26056 -1.16107
v 0.58303 -0.34056 -1.07521
v 0.58303 -0.34056 -1.07521
v 0.57041 -0.26056 -1.16107
v 0.49122 -0.26056 -1.17783
v 0.45489 -0.34056 -1.10233
v 0.45489 -0.34056 -1.10233
v 0.49122 -0.26056 -1.17783
v 0.43953 -0.26056 -1.25175
v 0.37126 -0.34056 -1.22193
v 0.37126 -0.34056 -1.22193
v 0.43953 -0.26056 -1.25175
v 0.43953 -0.26056 -1.34825
v 0.37126 -0.34056 -1.37807
v 0.37126 -0.34056 -1.37807
v 0.43953 -0.26056 -1.34825
v 0.49122 -0.26056 -1.42217
v 0.45489 -0.34056 -1.49767
v 0.45489 -0.34056 -1.49767
v 0.49122 -0.26056 -1.42217
v 0.57041 -0.26056 -1.43893
v 0.58303 -0.34056 -1.52479
v 0.58303 -0.34056 -1.52479
v 0.57041 -0.26056 -1.43893
v 0.64005 -0.26056 -1.39068
v 0.69571 -0.34056 -1.44672
v 0.69571 -0.34056 -1.44672
v 0.64005 -0.26056 -1.39068
v 0.66756 -0.26056 -1.30000
v 0.74021 -0.34056 -1.30000
v 0.66756 -0.26056 -1.30000
v 0.55000 -0.23000 -1.30000
v 0.55000 -0.23000 -1.30000
v 0.64005 -0.26056 -1.20932
v 0.64005 -0.26056 -1.20932
v 0.55000 -0.23000 -1.30000
v 0.55000 -0.23000 -1.30000
v 0.57041 -0.26056 -1.16107
v 0.57041 -0.26056 -1.16107
v 0.55000 -0.23000 -1.30000
v 0.55000 -0.23000 -1.30000
v 0.49122 -0.26056 -1.17783
v 0.49122 -0.26056 -1.17783
v 0.55000 -0.23000 -1.30000
v 0.55000 -0.23000 -1.30000
v 0.43953 -0.26056 -1.25175
v 0.43953 -0.26056 -1.25175
v 0.55000 -0.23000 -1.30000
v 0.55000 -0.23000 -1.30000
v 0.43953 -0.26056 -1.34825
v 0.43953 -0.26056 -1.34825
v 0.55000 -0.23000 -1.30000
v 0.55000 -0.23000 -1.30000
v 0.49122 -0.26056 -1.42217
v 0.49122 -0.26056 -1.42217
v 0.55000 -0.23000 -1.30000
v 0.55000 -0.23000 -1.30000
v 0.57041 -0.26056 -1.43893
v 0.57041 -0.26056 -1.43893
v 0.55000 -0.23000 -1.30000
v 0.55000 -0.23000 -1.30000
v 0.64005 -0.26056 -1.39068
v 0.64005 -0.26056 -1.39068
v 0.55000 -0.23000 -1.30000
v 0.55000 -0.23000 -1.30000
v 0.66756 -0.26056 -1.30000
vt 0.00000 0.00000
vt 1.00000 0.00000
vt 1.00000 1.00000
vt 0.00000 1.00000
vt 0.00000 0.00000
vt 1.00000 0.00000
vt 1.00000 1.00000
vt 0.00000 1.00000
vt 0.00000 0.00000
vt 1.00000 0.00000
vt 1.00000 1.00000
vt 0.00000 1.00000
vt 0.00000 0.00000
vt 1.00000 0.00000
vt 1.00000 1.00000
vt 0.00000 1.00000
vt 0.00000 0.00000
vt 1.00000 0.00000
vt 1.00000 1.00000
vt 0.00000 1.00000
vt 0.00000 0.00000
vt 1.00000 0.00000
vt 1.00000 1.00000
vt 0.00000 1.00000
vt 0.00000 0.00000
vt 1.00000 0.00000
vt 1.00000 1.00000
vt 0.00000 1.00000
vt 0.00000 0.00000
vt 1.00000 0.00000
vt 1.00000 1.00000
vt 0.00000 1.00000
vt 0.00000 0.00000
vt 1.00000 0.00000
vt 1.00000 1.00000
vt 0.00000 1.00000
vt 0.00000 0.00000
vt 1.00000 0.00000
vt 1.00000 1.00000
vt 0.00000 1.00000
vt 0.00000 0.00000
vt 1.00000 0.00000
vt 1.00000 1.00000
vt 0.00000 1.00000
vt 0.00000 0.00000
vt 1.00000 0.00000
vt 1.00000 1.00000
vt 0.00000 1.00000
vt 0.00000 0.00000
vt 1.00000 0.00000
vt 1.00000 1.00000
vt 0.00000 1.00000
vt 0.00000 0.00000
vt 1.00000 0.00000
vt 1.00000 1.00000
vt 0.00000 1.00000
vt 0.00000 0.00000
vt 1.00000 0.00000
vt 1.00000 1.00000
vt 0.00000 1.00000
vt 0.00000 0.00000
vt 1.00000 0.00000
vt 1.00000 1.00000
vt 0.00000 1.00000
vt 0.00000 0.00000
vt 1.00000 0.00000
vt 1.00000 1.00000
vt 0.00000 1.00000
vt 0.00000 0.00000
vt 1.00000 0.00000
vt 1.00000 1.00000
vt 0.00000 1.00000
vt 0.00000 0.00000
vt 1.00000 0.00000
vt 1.00000 1.00000
vt 0.00000 1.00000
vt 0.00000 0.00000
vt 1.00000 0.00000
vt 1.00000 1.00000
vt 0.00000 1.00000
vt 0.00000 0.00000
vt 1.00000 0.00000
vt 1.00000 1.00000
vt 0.00000 1.00000
vt 0.00000 0.00000
vt 1.00000 0.00000
vt 1.00000 1.00000
vt 0.00000 1.00000
vt 0.00000 0.00000
vt 1.00000 0.00000
vt 1.00000 1.00000
vt 0.00000 1.00000
vt 0.00000 0.00000
vt 1.00000 0.00000
vt 1.00000 1.00000
vt 0.00000 1.00000
vt 0.00000 0.00000
vt 1.00000 0.00000
vt 1.00000 1.00000
vt 0.00000 1.00000
vt 0.00000 0.00000
vt 1.00000 0.00000
vt 1.00000 1.00000
vt 0.00000 1.00000
vt 0.00000 0.00000
vt 1.00000 0.00000
vt 1.00000 1.00000
vt 0.00000 1.00000
vt 0.00000 0.00000
vt 1.00000 0.00000
vt 1.00000 1.00000
vt 0.00000 1.00000
vt 0.00000 0.00000
vt 1.00000 0.00000
vt 1.00000 1.00000
vt 0.00000 1.00000
vt 0.00000 0.00000
vt 1.00000 0.00000
vt 1.00000 1.00000
vt 0.00000 1.00000
vt 0.00000 0.00000
vt 1.00000 0.00000
vt 1.00000 1.00000
vt 0.00000 1.00000
vt 0.00000 0.00000
vt 1.00000 0.00000
vt 1.00000 1.00000
vt 0.00000 1.00000
vt 0.00000 0.00000
vt 1.00000 0.00000
vt 1.00000 1.00000
vt 0.00000 1.00000
vt 0.00000 0.00000
vt 1.00000 0.00000
vt 1.00000 1.00000
vt 0.00000 1.00000
vt 0.00000 0.00000
vt 1.00000 0.00000
vt 1.00000 1.00000
vt 0.00000 1.00000
vt 0.00000 0.00000
vt 1.00000 0.00000
vt 1.00000 1.00000
vt 0.00000 1.00000
vt 0.00000 0.00000
vt 1.00000 0.00000
vt 1.00000 1.00000
vt 0.00000 1.00000
vt 0.00000 0.00000
vt 1.00000 0.00000
vt 1.00000 1.00000
vt 0.00000 1.00000
vt 0.00000 0.00000
vt 1.00000 0.00000
vt 1.00000 1.00000
vt 0.00000 1.00000
vt 0.00000 0.00000
vt 1.00000 0.00000
vt 1.00000 1.00000
vt 0.00000 1.00000
vt 0.00000 0.00000
vt 1.00000 0.00000
vt 1.00000 1.00000
vt 0.00000 1.00000
vt 0.00000 0.00000
vt 1.00000 0.00000
vt 1.00000 1.00000
vt 0.00000 1.00000
vt 0.00000 0.00000
vt 1.00000 0.00000
vt 1.00000 1.00000
vt 0.00000 1.00000
vt 0.00000 0.00000
vt 1.00000 0.00000
vt 1.00000 1.00000
vt 0.00000 1.00000
vt 0.00000 0.00000
vt 1.00000 0.00000
vt 1.00000 1.00000
vt 0.00000 1.00000
vt 0.00000 0.00000
vt 1.00000 0.00000
vt 1.00000 1.00000
vt 0.00000 1.00000
vt 0.00000 0.00000
vt 1.00000 0.00000
vt 1.00000 1.00000
vt 0.00000 1.00000
vt 0.00000 0.00000
vt 1.00000 0.00000
vt 1.00000 1.00000
vt 0.00000 1.00000
vt 0.00000 0.00000
vt 1.00000 0.00000
vt 1.00000 1.00000
vt 0.00000 1.00000
vt 0.00000 0.00000
vt 1.00000 0.00000
vt 1.00000 1.00000
vt 0.00000 1.00000
vt 0.00000 0.00000
vt 1.00000 0.00000
vt 1.00000 1.00000
vt 0.00000 1.00000
vt 0.00000 0.00000
vt 1.00000 0.00000
vt 1.00000 1.00000
vt 0.00000 1.00000
vt 0.00000 0.00000
vt 1.00000 0.00000
vt 1.00000 1.00000
vt 0.00000 1.00000
vt 0.00000 0.00000
vt 1.00000 0.00000
vt 1.00000 1.00000
vt 0.00000 1.00000
vt 0.00000 0.00000
vt 1.00000 0.00000
vt 1.00000 1.00000
vt 0.00000 1.00000
vt 0.00000 0.00000
vt 1.00000 0.00000
vt 1.00000 1.00000
vt 0.00000 1.00000
vt 0.00000 0.00000
vt 1.00000 0.00000
vt 1.00000 1.00000
vt 0.00000 1.00000
vt 0.00000 0.00000
vt 1.00000 0.00000
vt 1.00000 1.00000
vt 0.00000 1.00000
vt 0.00000 0.00000
vt 1.00000 0.00000
vt 1.00000 1.00000
vt 0.00000 1.00000
vt 0.00000 0.00000
vt 1.00000 0.00000
vt 1.00000 1.00000
vt 0.00000 1.00000
vt 0.00000 0.00000
vt 1.00000 0.00000
vt 1.00000 1.00000
vt 0.00000 1.00000
vt 0.00000 0.00000
vt 1.00000 0.00000
vt 1.00000 1.00000
vt 0.00000 1.00000
vt 0.00000 0.00000
vt 1.00000 0.00000
vt 1.00000 1.00000
vt 0.00000 1.00000
vt 0.00000 0.00000
vt 1.00000 0.00000
vt 1.00000 1.00000
vt 0.00000 1.00000
vt 0.00000 0.00000
vt 1.00000 0.00000
vt 1.00000 1.00000
vt 0.00000 1.00000
vt 0.00000 0.00000
vt 1.00000 0.00000
vt 1.00000 1.00000
vt 0.00000 1.00000
vt 0.00000 0.00000
vt 1.00000 0.00000
vt 1.00000 1.00000
vt 0.00000 1.00000
vt 0.00000 0.00000
vt 1.00000 0.00000
vt 1.00000 1.00000
vt 0.00000 1.00000
vt 0.00000 0.00000
vt 1.00000 0.00000
vt 1.00000 1.00000
vt 0.00000 1.00000
vt 0.00000 0.00000
vt 1.00000 0.00000
vt 1.00000 1.00000
vt 0.00000 1.00000
vt 0.00000 0.00000
vt 1.00000 0.00000
vt 1.00000 1.00000
vt 0.00000 1.00000
vt 0.00000 0.00000
vt 1.00000 0.00000
vt 1.00000 1.00000
vt 0.00000 1.00000
vt 0.00000 0.00000
vt 1.00000 0.00000
vt 1.00000 1.00000
vt 0.00000 1.00000
vt 0.00000 0.00000
vt 1.00000 0.00000
vt 1.00000 1.00000
vt 0.00000 1.00000
vt 0.00000 0.00000
vt 1.00000 0.00000
vt 1.00000 1.00000
vt 0.00000 1.00000
vt 0.00000 0.00000
vt 1.00000 0.00000
vt 1.00000 1.00000
vt 0.00000 1.00000
vt 0.00000 0.00000
vt 1.00000 0.00000
vt 1.00000 1.00000
vt 0.00000 1.00000
vt 0.00000 0.00000
vt 1.00000 0.00000
vt 1.00000 1.00000
vt 0.00000 1.00000
vt 0.00000 0.00000
vt 1.00000 0.00000
vt 1.00000 1.00000
vt 0.00000 1.00000
vt 0.00000 0.00000
vt 1.00000 0.00000
vt 1.00000 1.00000
vt 0.00000 1.00000
vt 0.00000 0.00000
vt 1.00000 0.00000
vt 1.00000 1.00000
vt 0.00000 1.00000
vt 0.00000 0.00000
vt 1.00000 0.00000
vt 1.00000 1.00000
vt 0.00000 1.00000
vt 0.00000 0.00000
vt 1.00000 0.00000
vt 1.00000 1.00000
vt 0.00000 1.00000
vt 0.00000 0.00000
vt 1.00000 0.00000
vt 1.00000 1.00000
vt 0.00000 1.00000
vt 0.00000 0.00000
vt 1.00000 0.00000
vt 1.00000 1.00000
vt 0.00000 1.00000
vt 0.00000 0.00000
vt 1.00000 0.00000
vt 1.00000 1.00000
vt 0.00000 1.00000
vt 0.00000 0.00000
vt 1.00000 0.00000
vt 1.00000 1.00000
vt 0.00000 1.00000
vt 0.00000 0.00000
vt 1.00000 0.00000
vt 1.00000 1.00000
vt 0.00000 1.00000
vt 0.00000 0.00000
vt 1.00000 0.00000
vt 1.00000 1.00000
vt 0.00000 1.00000
vt 0.00000 0.00000
vt 1.00000 0.00000
vt 1.00000 1.00000
vt 0.00000 1.00000
vt 0.00000 0.00000
vt 1.00000 0.00000
vt 1.00000 1.00000
vt 0.00000 1.00000
vt 0.00000 0.00000
vt 1.00000 0.00000
vt 1.00000 1.00000
vt 0.00000 1.00000
vt 0.00000 0.00000
vt 1.00000 0.00000
vt 1.00000 1.00000
vt 0.00000 1.00000
vt 0.00000 0.00000
vt 1.00000 0.00000
vt 1.00000 1.00000
vt 0.00000 1.00000
vt 0.00000 0.00000
vt 1.00000 0.00000
vt 1.00000 1.00000
vt 0.00000 1.00000
vt 0.00000 0.00000
vt 1.00000 0.00000
vt 1.00000 1.00000
vt 0.00000 1.00000
vt 0.00000 0.00000
vt 1.00000 0.00000
vt 1.00000 1.00000
vt 0.00000 1.00000
vt 0.00000 0.00000
vt 1.00000 0.00000
vt 1.00000 1.00000
vt 0.00000 1.00000
vt 0.00000 0.00000
vt 1.00000 0.00000
vt 1.00000 1.00000
vt 0.00000 1.00000
vt 0.00000 0.00000
vt 1.00000 0.00000
vt 1.00000 1.00000
vt 0.00000 1.00000
vt 0.00000 0.00000
vt 1.00000 0.00000
vt 1.00000 1.00000
vt 0.00000 1.00000
vt 0.00000 0.00000
vt 1.00000 0.00000
vt 1.00000 1.00000
vt 0.00000 1.00000
vt 0.00000 0.00000
vt 1.00000 0.00000
vt 1.00000 1.00000
vt 0.00000 1.00000
vt 0.00000 0.00000
vt 1.00000 0.00000
vt 1.00000 1.00000
vt 0.00000 1.00000
vt 0.00000 0.00000
vt 1.00000 0.00000
vt 1.00000 1.00000
vt 0.00000 1.00000
vt 0.00000 0.00000
vt 1.00000 0.00000
vt 1.00000 1.00000
vt 0.00000 1.00000
vt 0.00000 0.00000
vt 1.00000 0.00000
vt 1.00000 1.00000
vt 0.00000 1.00000
vt 0.00000 0.00000
vt 1.00000 0.00000
vt 1.00000 1.00000
vt 0.00000 1.00000
vt 0.00000 0.00000
vt 1.00000 0.00000
vt 1.00000 1.00000
vt 0.00000 1.00000
vt 0.00000 0.00000
vt 1.00000 0.00000
vt 1.00000 1.00000
vt 0.00000 1.00000
vt 0.00000 0.00000
vt 1.00000 0.00000
vt 1.00000 1.00000
vt 0.00000 1.00000
vt 0.00000 0.00000
vt 1.00000 0.00000
vt 1.00000 1.00000
vt 0.00000 1.00000
vt 0.00000 0.00000
vt 1.00000 0.00000
vt 1.00000 1.00000
vt 0.00000 1.00000
vt 0.00000 0.00000
vt 1.00000 0.00000
vt 1.00000 1.00000
vt 0.00000 1.00000
vt 0.00000 0.00000
vt 1.00000 0.00000
vt 1.00000 1.00000
vt 0.00000 1.00000
vt 0.00000 0.00000
vt 1.00000 0.00000
vt 1.00000 1.00000
vt 0.00000 1.00000
vt 0.00000 0.00000
vt 1.00000 0.00000
vt 1.00000 1.00000
vt 0.00000 1.00000
vt 0.00000 0.00000
vt 1.00000 0.00000
vt 1.00000 1.00000
vt 0.00000 1.00000
vt 0.00000 0.00000
vt 1.00000 0.00000
vt 1.00000 1.00000
vt 0.00000 1.00000
vt 0.00000 0.00000
vt 1.00000 0.00000
vt 1.00000 1.00000
vt 0.00000 1.00000
vt 0.00000 0.00000
vt 1.00000 0.00000
vt 1.00000 1.00000
vt 0.00000 1.00000
vt 0.00000 0.00000
vt 1.00000 0.00000
vt 1.00000 1.00000
vt 0.00000 1.00000
vt 0.00000 0.00000
vt 1.00000 0.00000
vt 1.00000 1.00000
vt 0.00000 1.00000
vt 0.00000 0.00000
vt 1.00000 0.00000
vt 1.00000 1.00000
vt 0.00000 1.00000
vt 0.00000 0.00000
vt 1.00000 0.00000
vt 1.00000 1.00000
vt 0.00000 1.00000
vt 0.00000 0.00000
vt 1.00000 0.00000
vt 1.00000 1.00000
vt 0.00000 1.00000
vt 0.00000 0.00000
vt 1.00000 0.00000
vt 1.00000 1.00000
vt 0.00000 1.00000
vt 0.00000 0.00000
vt 1.00000 0.00000
vt 1.00000 1.00000
vt 0.00000 1.00000
vt 0.00000 0.00000
vt 1.00000 0.00000
vt 1.00000 1.00000
vt 0.00000 1.00000
vt 0.00000 0.00000
vt 1.00000 0.00000
vt 1.00000 1.00000
vt 0.00000 1.00000
vt 0.00000 0.00000
vt 1.00000 0.00000
vt 1.00000 1.00000
vt 0.00000 1.00000
vt 0.00000 0.00000
vt 1.00000 0.00000
vt 1.00000 1.00000
vt 0.00000 1.00000
vt 0.00000 0.00000
vt 1.00000 0.00000
vt 1.00000 1.00000
vt 0.00000 1.00000
vt 0.00000 0.00000
vt 1.00000 0.00000
vt 1.00000 1.00000
vt 0.00000 1.00000
vt 0.00000 0.00000
vt 1.00000 0.00000
vt 1.00000 1.00000
vt 0.00000 1.00000
vt 0.00000 0.00000
vt 1.00000 0.00000
vt 1.00000 1.00000
vt 0.00000 1.00000
vt 0.00000 0.00000
vt 1.00000 0.00000
vt 1.00000 1.00000
vt 0.00000 1.00000
vt 0.00000 0.00000
vt 1.00000 0.00000
vt 1.00000 1.00000
vt 0.00000 1.00000
vt 0.00000 0.00000
vt 1.00000 0.00000
vt 1.00000 1.00000
vt 0.00000 1.00000
vt 0.00000 0.00000
vt 1.00000 0.00000
vt 1.00000 1.00000
vt 0.00000 1.00000
vt 0.00000 0.00000
vt 1.00000 0.00000
vt 1.00000 1.00000
vt 0.00000 1.00000
vt 0.00000 0.00000
vt 1.00000 0.00000
vt 1.00000 1.00000
vt 0.00000 1.00000
vt 0.00000 0.00000
vt 1.00000 0.00000
vt 1.00000 1.00000
vt 0.00000 1.00000
vt 0.00000 0.00000
vt 1.00000 0.00000
vt 1.00000 1.00000
vt 0.00000 1.00000
vt 0.00000 0.00000
vt 1.00000 0.00000
vt 1.00000 1.00000
vt 0.00000 1.00000
vt 0.00000 0.00000
vt 1.00000 0.00000
vt 1.00000 1.00000
vt 0.00000 1.00000
vt 0.00000 0.00000
vt 1.00000 0.00000
vt 1.00000 1.00000
vt 0.00000 1.00000
vt 0.00000 0.00000
vt 1.00000 0.00000
vt 1.00000 1.00000
vt 0.00000 1.00000
vt 0.00000 0.00000
vt 1.00000 0.00000
vt 1.00000 1.00000
vt 0.00000 1.00000
vt 0.00000 0.00000
vt 1.00000 0.00000
vt 1.00000 1.00000
vt 0.00000 1.00000
vt 0.00000 0.00000
vt 1.00000 0.00000
vt 1.00000 1.00000
vt 0.00000 1.00000
vt 0.00000 0.00000
vt 1.00000 0.00000
vt 1.00000 1.00000
vt 0.00000 1.00000
vt 0.00000 0.00000
vt 1.00000 0.00000
vt 1.00000 1.00000
vt 0.00000 1.00000
vt 0.00000 0.00000
vt 1.00000 0.00000
vt 1.00000 1.00000
vt 0.00000 1.00000
vt 0.00000 0.00000
vt 1.00000 0.00000
vt 1.00000 1.00000
vt 0.00000 1.00000
vt 0.00000 0.00000
vt 1.00000 0.00000
vt 1.00000 1.00000
vt 0.00000 1.00000
vt 0.00000 0.00000
vt 1.00000 0.00000
vt 1.00000 1.00000
vt 0.00000 1.00000
vt 0.00000 0.00000
vt 1.00000 0.00000
vt 1.00000 1.00000
vt 0.00000 1.00000
vt 0.00000 0.00000
vt 1.00000 0.00000
vt 1.00000 1.00000
vt 0.00000 1.00000
vt 0.00000 0.00000
vt 1.00000 0.00000
vt 1.00000 1.00000
vt 0.00000 1.00000
vt 0.00000 0.00000
vt 1.00000 0.00000
vt 1.00000 1.00000
vt 0.00000 1.00000
vt 0.00000 0.00000
vt 1.00000 0.00000
vt 1.00000 1.00000
vt 0.00000 1.00000
vt 0.00000 0.00000
vt 1.00000 0.00000
vt 1.00000 1.00000
vt 0.00000 1.00000
vt 0.00000 0.00000
vt 1.00000 0.00000
vt 1.00000 1.00000
vt 0.00000 1.00000
vt 0.00000 0.00000
vt 1.00000 0.00000
vt 1.00000 1.00000
vt 0.00000 1.00000
vt 0.00000 0.00000
vt 1.00000 0.00000
vt 1.00000 1.00000
vt 0.00000 1.00000
vt 0.00000 0.00000
vt 1.00000 0.00000
vt 1.00000 1.00000
vt 0.00000 1.00000
vt 0.00000 0.00000
vt 1.00000 0.00000
vt 1.00000 1.00000
vt 0.00000 1.00000
vt 0.00000 0.00000
vt 1.00000 0.00000
vt 1.00000 1.00000
vt 0.00000 1.00000
vt 0.00000 0.00000
vt 1.00000 0.00000
vt 1.00000 1.00000
vt 0.00000 1.00000
vt 0.00000 0.00000
vt 1.00000 0.00000
vt 1.00000 1.00000
vt 0.00000 1.00000
vt 0.00000 0.00000
vt 1.00000 0.00000
vt 1.00000 1.00000
vt 0.00000 1.00000
vt 0.00000 0.00000
vt 1.00000 0.00000
vt 1.00000 1.00000
vt 0.00000 1.00000
vt 0.00000 0.00000
vt 1.00000 0.00000
vt 1.00000 1.00000
vt 0.00000 1.00000
vt 0.00000 0.00000
vt 1.00000 0.00000
vt 1.00000 1.00000
vt 0.00000 1.00000
vt 0.00000 0.00000
vt 1.00000 0.00000
vt 1.00000 1.00000
vt 0.00000 1.00000
vt 0.00000 0.00000
vt 1.00000 0.00000
vt 1.00000 1.00000
vt 0.00000 1.00000
vt 0.00000 0.00000
vt 1.00000 0.00000
vt 1.00000 1.00000
vt 0.00000 1.00000
vt 0.00000 0.00000
vt 1.00000 0.00000
vt 1.00000 1.00000
vt 0.00000 1.00000
vt 0.00000 0.00000
vt 1.00000 0.00000
vt 1.00000 1.00000
vt 0.00000 1.00000
vn 0.27310 -0.89899 0.34238
vn 0.11557 -0.71500 0.68951
vn -0.03780 -0.67332 0.73838
vn -0.19742 -0.79716 0.57058
vn -0.30761 -0.95151 0.00000
vn -0.19742 -0.79716 -0.57058
vn -0.03780 -0.67332 -0.73838
vn 0.11557 -0.71500 -0.68951
vn 0.27310 -0.89899 -0.34238
vn 0.56116 -0.43607 0.70352
vn 0.16069 -0.23468 0.95870
vn -0.04998 -0.21018 0.97638
vn -0.31216 -0.29756 0.90222
vn -0.80760 -0.58973 0.00000
vn -0.31216 -0.29756 -0.90222
vn -0.04998 -0.21018 -0.97638
vn 0.16069 -0.23468 -0.95870
vn 0.56116 -0.43607 -0.70352
vn 0.62358 0.00000 0.78176
vn 0.16531 0.00000 0.98624
vn -0.05112 0.00000 0.99869
vn -0.32697 0.00000 0.94503
vn -1.00000 0.00000 0.00000
vn -0.32697 0.00000 -0.94503
vn -0.05112 0.00000 -0.99869
vn 0.16531 0.00000 -0.98624
vn 0.62358 0.00000 -0.78176
vn 0.56116 0.43607 0.70352
vn 0.16069 0.23468 0.95870
vn -0.04998 0.21018 0.97638
vn -0.31216 0.29756 0.90222
vn -0.80760 0.58973 0.00000
vn -0.31216 0.29756 -0.90222
vn -0.04998 0.21018 -0.97638
vn 0.16069 0.23468 -0.95870
vn 0.56116 0.43607 -0.70352
vn 0.27310 0.89899 0.34238
vn 0.11557 0.71500 0.68951
vn -0.03780 0.67332 0.73838
vn -0.19742 0.79716 0.57058
vn -0.30761 0.95151 0.00000
vn -0.19742 0.79716 -0.57058
vn -0.03780 0.67332 -0.73838
vn 0.11557 0.71500 -0.68951
vn 0.27310 0.89899 -0.34238
vn 0.27310 -0.89899 0.34238
vn 0.11557 -0.71500 0.68951
vn -0.03780 -0.67332 0.73838
vn -0.19742 -0.79716 0.57058
vn -0.30761 -0.95151 0.00000
vn -0.19742 -0.79716 -0.57058
vn -0.03780 -0.67332 -0.73838
vn 0.11557 -0.71500 -0.68951
vn 0.27310 -0.89899 -0.34238
vn 0.56116 -0.43607 0.70352
vn 0.16069 -0.23468 0.95870
vn -0.04998 -0.21018 0.97638
vn -0.31216 -0.29756 0.90222
vn -0.80760 -0.58973 0.00000
vn -0.31216 -0.29756 -0.90222
vn -0.04998 -0.21018 -0.97638
vn 0.16069 -0.23468 -0.95870
vn 0.56116 -0.43607 -0.70352
vn 0.62358 0.00000 0.78176
vn 0.16531 0.00000 0.98624
vn -0.05112 0.00000 0.99869
vn -0.32697 0.00000 0.94503
vn -1.00000 0.00000 0.00000
vn -0.32697 0.00000 -0.94503
vn -0.05112 0.00000 -0.99869
vn 0.16531 0.00000 -0.98624
vn 0.62358 0.00000 -0.78176
vn 0.56116 0.43607 0.70352
vn 0.16069 0.23468 0.95870
vn -0.04998 0.21018 0.97638
vn -0.31216 0.29756 0.90222
vn -0.80760 0.58973 0.00000
vn -0.31216 0.29756 -0.90222
vn -0.04998 0.21018 -0.97638
vn 0.16069 0.23468 -0.95870
vn 0.56116 0.43607 -0.70352
vn 0.27310 0.89899 0.34238
vn 0.11557 0.71500 0.68951
vn -0.03780 0.67332 0.73838
vn -0.19742 0.79716 0.57058
vn -0.30761 0.95151 0.00000
vn -0.19742 0.79716 -0.57058
vn -0.03780 0.67332 -0.73838
vn 0.11557 0.71500 -0.68951
vn 0.27310 0.89899 -0.34238
vn 0.33397 -0.93123 0.14587
vn 0.17466 -0.91527 0.36302
vn -0.06030 -0.90991 0.41040
vn -0.27004 -0.92366 0.27191
vn -0.35657 -0.93427 0.00000
vn -0.27004 -0.92366 -0.27191
vn -0.06030 -0.90991 -0.41040
vn 0.17466 -0.91527 -0.36302
vn 0.33397 -0.93123 -0.14587
vn 0.78470 -0.51651 0.34273
vn 0.38207 -0.47265 0.79412
vn -0.12910 -0.45984 0.87857
vn -0.61247 -0.49453 0.61670
vn -0.85046 -0.52604 0.00000
vn -0.61247 -0.49453 -0.61670
vn -0.12910 -0.45984 -0.87857
vn 0.38207 -0.47265 -0.79412
vn 0.78470 -0.51651 -0.34273
vn 0.91640 0.00000 0.40025
vn 0.43355 0.00000 0.90113
vn -0.14538 0.00000 0.98938
vn -0.70466 0.00000 0.70954
vn -1.00000 0.00000 0.00000
vn -0.70466 0.00000 -0.70954
vn -0.14538 0.00000 -0.98938
vn 0.43355 0.00000 -0.90113
vn 0.91640 0.00000 -0.40025
vn 0.78470 0.51651 0.34273
vn 0.38207 0.47265 0.79412
vn -0.12910 0.45984 0.87857
vn -0.61247 0.49453 0.61670
vn -0.85046 0.52604 0.00000
vn -0.61247 0.49453 -0.61670
vn -0.12910 0.45984 -0.87857
vn 0.38207 0.47265 -0.79412
vn 0.78470 0.51651 -0.34273
vn 0.33397 0.93123 0.14587
vn 0.17466 0.91527 0.36302
vn -0.06030 0.90991 0.41040
vn -0.27004 0.92366 0.27191
vn -0.35657 0.93427 0.00000
vn -0.27004 0.92366 -0.27191
vn -0.06030 0.90991 -0.41040
vn 0.17466 0.91527 -0.36302
vn 0.33397 0.93123 -0.14587
vn 0.33397 -0.93123 0.14587
vn 0.17466 -0.91527 0.36302
vn -0.06030 -0.90991 0.41040
vn -0.27004 -0.92366 0.27191
vn -0.35657 -0.93427 0.00000
vn -0.27004 -0.92366 -0.27191
vn -0.06030 -0.90991 -0.41040
vn 0.17466 -0.91527 -0.36302
vn 0.33397 -0.93123 -0.14587
vn 0.78470 -0.51651 0.34273
vn 0.38207 -0.47265 0.79412
vn -0.12910 -0.45984 0.87857
vn -0.61247 -0.49453 0.61670
vn -0.85046 -0.52604 0.00000
vn -0.61247 -0.49453 -0.61670
vn -0.12910 -0.45984 -0.87857
vn 0.38207 -0.47265 -0.79412
vn 0.78470 -0.51651 -0.34273
vn 0.91640 0.00000 0.40025
vn 0.43355 0.00000 0.90113
vn -0.14538 0.00000 0.98938
vn -0.70466 0.00000 0.70954
vn -1.00000 0.00000 0.00000
vn -0.70466 0.00000 -0.70954
vn -0.14538 0.00000 -0.98938
vn 0.43355 0.00000 -0.90113
vn 0.91640 0.00000 -0.40025
vn 0.78470 0.51651 0.34273
vn 0.38207 0.47265 0.79412
vn -0.12910 0.45984 0.87857
vn -0.61247 0.49453 0.61670
vn -0.85046 0.52604 0.00000
vn -0.61247 0.49453 -0.61670
vn -0.12910 0.45984 -0.87857
vn 0.38207 0.47265 -0.79412
vn 0.78470 0.51651 -0.34273
vn 0.33397 0.93123 0.14587
vn 0.17466 0.91527 0.36302
vn -0.06030 0.90991 0.41040
vn -0.27004 0.92366 0.27191
vn -0.35657 0.93427 0.00000
vn -0.27004 0.92366 -0.27191
vn -0.06030 0.90991 -0.41040
vn 0.17466 0.91527 -0.36302
vn 0.33397 0.93123 -0.14587
o LeftForearm
usemtl CrewCloth
f 1/1/1 2/2/1 3/3/1 4/4/1
f 5/5/2 6/6/2 7/7/2 8/8/2
f 9/9/3 10/10/3 11/11/3 12/12/3
f 13/13/4 14/14/4 15/15/4 16/16/4
f 17/17/5 18/18/5 19/19/5 20/20/5
f 21/21/6 22/22/6 23/23/6 24/24/6
f 25/25/7 26/26/7 27/27/7 28/28/7
f 29/29/8 30/30/8 31/31/8 32/32/8
f 33/33/9 34/34/9 35/35/9 36/36/9
f 37/37/10 38/38/10 39/39/10 40/40/10
f 41/41/11 42/42/11 43/43/11 44/44/11
f 45/45/12 46/46/12 47/47/12 48/48/12
f 49/49/13 50/50/13 51/51/13 52/52/13
f 53/53/14 54/54/14 55/55/14 56/56/14
f 57/57/15 58/58/15 59/59/15 60/60/15
f 61/61/16 62/62/16 63/63/16 64/64/16
f 65/65/17 66/66/17 67/67/17 68/68/17
f 69/69/18 70/70/18 71/71/18 72/72/18
f 73/73/19 74/74/19 75/75/19 76/76/19
f 77/77/20 78/78/20 79/79/20 80/80/20
f 81/81/21 82/82/21 83/83/21 84/84/21
f 85/85/22 86/86/22 87/87/22 88/88/22
f 89/89/23 90/90/23 91/91/23 92/92/23
f 93/93/24 94/94/24 95/95/24 96/96/24
f 97/97/25 98/98/25 99/99/25 100/100/25
f 101/101/26 102/102/26 103/103/26 104/104/26
f 105/105/27 106/106/27 107/107/27 108/108/27
f 109/109/28 110/110/28 111/111/28 112/112/28
f 113/113/29 114/114/29 115/115/29 116/116/29
f 117/117/30 118/118/30 119/119/30 120/120/30
f 121/121/31 122/122/31 123/123/31 124/124/31
f 125/125/32 126/126/32 127/127/32 128/128/32
f 129/129/33 130/130/33 131/131/33 132/132/33
f 133/133/34 134/134/34 135/135/34 136/136/34
f 137/137/35 138/138/35 139/139/35 140/140/35
f 141/141/36 142/142/36 143/143/36 144/144/36
f 145/145/37 146/146/37 147/147/37 148/148/37
f 149/149/38 150/150/38 151/151/38 152/152/38
f 153/153/39 154/154/39 155/155/39 156/156/39
f 157/157/40 158/158/40 159/159/40 160/160/40
f 161/161/41 162/162/41 163/163/41 164/164/41
f 165/165/42 166/166/42 167/167/42 168/168/42
f 169/169/43 170/170/43 171/171/43 172/172/43
f 173/173/44 174/174/44 175/175/44 176/176/44
f 177/177/45 178/178/45 179/179/45 180/180/45
o RightForearm
f 181/181/46 182/182/46 183/183/46 184/184/46
f 185/185/47 186/186/47 187/187/47 188/188/47
f 189/189/48 190/190/48 191/191/48 192/192/48
f 193/193/49 194/194/49 195/195/49 196/196/49
f 197/197/50 198/198/50 199/199/50 200/200/50
f 201/201/51 202/202/51 203/203/51 204/204/51
f 205/205/52 206/206/52 207/207/52 208/208/52
f 209/209/53 210/210/53 211/211/53 212/212/53
f 213/213/54 214/214/54 215/215/54 216/216/54
f 217/217/55 218/218/55 219/219/55 220/220/55
f 221/221/56 222/222/56 223/223/56 224/224/56
f 225/225/57 226/226/57 227/227/57 228/228/57
f 229/229/58 230/230/58 231/231/58 232/232/58
f 233/233/59 234/234/59 235/235/59 236/236/59
f 237/237/60 238/238/60 239/239/60 240/240/60
f 241/241/61 242/242/61 243/243/61 244/244/61
f 245/245/62 246/246/62 247/247/62 248/248/62
f 249/249/63 250/250/63 251/251/63 252/252/63
f 253/253/64 254/254/64 255/255/64 256/256/64
f 257/257/65 258/258/65 259/259/65 260/260/65
f 261/261/66 262/262/66 263/263/66 264/264/66
f 265/265/67 266/266/67 267/267/67 268/268/67
f 269/269/68 270/270/68 271/271/68 272/272/68
f 273/273/69 274/274/69 275/275/69 276/276/69
f 277/277/70 278/278/70 279/279/70 280/280/70
f 281/281/71 282/282/71 283/283/71 284/284/71
f 285/285/72 286/286/72 287/287/72 288/288/72
f 289/289/73 290/290/73 291/291/73 292/292/73
f 293/293/74 294/294/74 295/295/74 296/296/74
f 297/297/75 298/298/75 299/299/75 300/300/75
f 301/301/76 302/302/76 303/303/76 304/304/76
f 305/305/77 306/306/77 307/307/77 308/308/77
f 309/309/78 310/310/78 311/311/78 312/312/78
f 313/313/79 314/314/79 315/315/79 316/316/79
f 317/317/80 318/318/80 319/319/80 320/320/80
f 321/321/81 322/322/81 323/323/81 324/324/81
f 325/325/82 326/326/82 327/327/82 328/328/82
f 329/329/83 330/330/83 331/331/83 332/332/83
f 333/333/84 334/334/84 335/335/84 336/336/84
f 337/337/85 338/338/85 339/339/85 340/340/85
f 341/341/86 342/342/86 343/343/86 344/344/86
f 345/345/87 346/346/87 347/347/87 348/348/87
f 349/349/88 350/350/88 351/351/88 352/352/88
f 353/353/89 354/354/89 355/355/89 356/356/89
f 357/357/90 358/358/90 359/359/90 360/360/90
o LeftHand
usemtl Skin
f 361/361/91 362/362/91 363/363/91 364/364/91
f 365/365/92 366/366/92 367/367/92 368/368/92
f 369/369/93 370/370/93 371/371/93 372/372/93
f 373/373/94 374/374/94 375/375/94 376/376/94
f 377/377/95 378/378/95 379/379/95 380/380/95
f 381/381/96 382/382/96 383/383/96 384/384/96
f 385/385/97 386/386/97 387/387/97 388/388/97
f 389/389/98 390/390/98 391/391/98 392/392/98
f 393/393/99 394/394/99 395/395/99 396/396/99
f 397/397/100 398/398/100 399/399/100 400/400/100
f 401/401/101 402/402/101 403/403/101 404/404/101
f 405/405/102 406/406/102 407/407/102 408/408/102
f 409/409/103 410/410/103 411/411/103 412/412/103
f 413/413/104 414/414/104 415/415/104 416/416/104
f 417/417/105 418/418/105 419/419/105 420/420/105
f 421/421/106 422/422/106 423/423/106 424/424/106
f 425/425/107 426/426/107 427/427/107 428/428/107
f 429/429/108 430/430/108 431/431/108 432/432/108
f 433/433/109 434/434/109 435/435/109 436/436/109
f 437/437/110 438/438/110 439/439/110 440/440/110
f 441/441/111 442/442/111 443/443/111 444/444/111
f 445/445/112 446/446/112 447/447/112 448/448/112
f 449/449/113 450/450/113 451/451/113 452/452/113
f 453/453/114 454/454/114 455/455/114 456/456/114
f 457/457/115 458/458/115 459/459/115 460/460/115
f 461/461/116 462/462/116 463/463/116 464/464/116
f 465/465/117 466/466/117 467/467/117 468/468/117
f 469/469/118 470/470/118 471/471/118 472/472/118
f 473/473/119 474/474/119 475/475/119 476/476/119
f 477/477/120 478/478/120 479/479/120 480/480/120
f 481/481/121 482/482/121 483/483/121 484/484/121
f 485/485/122 486/486/122 487/487/122 488/488/122
f 489/489/123 490/490/123 491/491/123 492/492/123
f 493/493/124 494/494/124 495/495/124 496/496/124
f 497/497/125 498/498/125 499/499/125 500/500/125
f 501/501/126 502/502/126 503/503/126 504/504/126
f 505/505/127 506/506/127 507/507/127 508/508/127
f 509/509/128 510/510/128 511/511/128 512/512/128
f 513/513/129 514/514/129 515/515/129 516/516/129
f 517/517/130 518/518/130 519/519/130 520/520/130
f 521/521/131 522/522/131 523/523/131 524/524/131
f 525/525/132 526/526/132 527/527/132 528/528/132
f 529/529/133 530/530/133 531/531/133 532/532/133
f 533/533/134 534/534/134 535/535/134 536/536/134
f 537/537/135 538/538/135 539/539/135 540/540/135
o RightHand
f 541/541/136 542/542/136 543/543/136 544/544/136
f 545/545/137 546/546/137 547/547/137 548/548/137
f 549/549/138 550/550/138 551/551/138 552/552/138
f 553/553/139 554/554/139 555/555/139 556/556/139
f 557/557/140 558/558/140 559/559/140 560/560/140
f 561/561/141 562/562/141 563/563/141 564/564/141
f 565/565/142 566/566/142 567/567/142 568/568/142
f 569/569/143 570/570/143 571/571/143 572/572/143
f 573/573/144 574/574/144 575/575/144 576/576/144
f 577/577/145 578/578/145 579/579/145 580/580/145
f 581/581/146 582/582/146 583/583/146 584/584/146
f 585/585/147 586/586/147 587/587/147 588/588/147
f 589/589/148 590/590/148 591/591/148 592/592/148
f 593/593/149 594/594/149 595/595/149 596/596/149
f 597/597/150 598/598/150 599/599/150 600/600/150
f 601/601/151 602/602/151 603/603/151 604/604/151
f 605/605/152 606/606/152 607/607/152 608/608/152
f 609/609/153 610/610/153 611/611/153 612/612/153
f 613/613/154 614/614/154 615/615/154 616/616/154
f 617/617/155 618/618/155 619/619/155 620/620/155
f 621/621/156 622/622/156 623/623/156 624/624/156
f 625/625/157 626/626/157 627/627/157 628/628/157
f 629/629/158 630/630/158 631/631/158 632/632/158
f 633/633/159 634/634/159 635/635/159 636/636/159
f 637/637/160 638/638/160 639/639/160 640/640/160
f 641/641/161 642/642/161 643/643/161 644/644/161
f 645/645/162 646/646/162 647/647/162 648/648/162
f 649/649/163 650/650/163 651/651/163 652/652/163
f 653/653/164 654/654/164 655/655/164 656/656/164
f 657/657/165 658/658/165 659/659/165 660/660/165
f 661/661/166 662/662/166 663/663/166 664/664/166
f 665/665/167 666/666/167 667/667/167 668/668/167
f 669/669/168 670/670/168 671/671/168 672/672/168
f 673/673/169 674/674/169 675/675/169 676/676/169
f 677/677/170 678/678/170 679/679/170 680/680/170
f 681/681/171 682/682/171 683/683/171 684/684/171
f 685/685/172 686/686/172 687/687/172 688/688/172
f 689/689/173 690/690/173 691/691/173 692/692/173
f 693/693/174 694/694/174 695/695/174 696/696/174
f 697/697/175 698/698/175 699/699/175 700/700/175
f 701/701/176 702/702/176 703/703/176 704/704/176
f 705/705/177 706/706/177 707/707/177 708/708/177
f 709/709/178 710/710/178 711/711/178 712/712/178
f 713/713/179 714/714/179 715/715/179 716/716/179
f 717/717/180 718/718/180 719/719/180 720/720/180
