{"asset":{"version":"2.0","generator":"Dustbound original low-poly asset generator"},"scene":0,"scenes":[{"nodes":[0]}],"nodes":[{"name":"first_person_hands","mesh":0}],"meshes":[{"name":"first_person_hands","primitives":[{"attributes":{"POSITION":0,"NORMAL":1,"TEXCOORD_0":2},"indices":3,"material":0,"mode":4},{"attributes":{"POSITION":4,"NORMAL":5,"TEXCOORD_0":6},"indices":7,"material":1,"mode":4}]}],"materials":[{"name":"CrewCloth","pbrMetallicRoughness":{"baseColorFactor":[1.0,1.0,1.0,1.0],"roughnessFactor":0.9,"metallicFactor":0.0,"baseColorTexture":{"index":0}}},{"name":"Skin","pbrMetallicRoughness":{"baseColorFactor":[0.78,0.54,0.38,1.0],"roughnessFactor":0.86,"metallicFactor":0.0}}],"samplers":[{"magFilter":9729,"minFilter":9987,"wrapS":10497,"wrapT":10497}],"images":[{"uri":"../textures/crew_fabric.png"}],"textures":[{"source":0,"sampler":0}],"buffers":[{"byteLength":68096,"uri":"data:application/octet-stream;base64,"}],"bufferViews":[{"buffer":0,"byteOffset":0,"byteLength":10752,"target":34962},{"buffer":0,"byteOffset":10752,"byteLength":10752,"target":34962},{"buffer":0,"byteOffset":21504,"byteLength":7168,"target":34962},{"buffer":0,"byteOffset":28672,"byteLength":5376,"target":34963},{"buffer":0,"byteOffset":34048,"byteLength":10752,"target":34962},{"buffer":0,"byteOffset":44800,"byteLength":10752,"target":34962},{"buffer":0,"byteOffset":55552,"byteLength":7168,"target":34962},{"buffer":0,"byteOffset":62720,"byteLength":5376,"target":34963}],"accessors":[{"bufferView":0,"componentType":5126,"count":896,"type":"VEC3","min":[-0.83,-0.81,-1.44797],"max":[0.83,-0.57,-0.51203]},{"bufferView":1,"componentType":5126,"count":896,"type":"VEC3"},{"bufferView":2,"componentType":5126,"count":896,"type":"VEC2"},{"bufferView":3,"componentType":5125,"count":1344,"type":"SCALAR"},{"bufferView":4,"componentType":5126,"count":896,"type":"VEC3","min":[-0.8,-0.72,-1.51624],"max":[0.8,-0.52,-1.22376]},{"bufferView":5,"componentType":5126,"count":896,"type":"VEC3"},{"bufferView":6,"componentType":5126,"count":896,"type":"VEC2"},{"bufferView":7,"componentType":5125,"count":1344,"type":"SCALAR"}]}