{"asset":{"version":"2.0","generator":"Dustbound original component-preserving asset generator"},"scene":0,"scenes":[{"nodes":[0]}],"nodes":[{"name":"pine_tree","children":[1,2,3,4]},{"name":"Trunk","mesh":0,"translation":[0.006635000000000002,1.35,0.0]},{"name":"LowerCrown","mesh":1,"translation":[0.0,2.75,0.0]},{"name":"MiddleCrown","mesh":2,"translation":[0.0,3.8499999999999996,0.0]},{"name":"TopCrown","mesh":3,"translation":[0.0,4.82,0.0]}],"meshes":[{"name":"Trunk","primitives":[{"attributes":{"POSITION":0,"NORMAL":1,"TEXCOORD_0":2},"indices":3,"material":0,"mode":4}]},{"name":"LowerCrown","primitives":[{"attributes":{"POSITION":4,"NORMAL":5,"TEXCOORD_0":6},"indices":7,"material":1,"mode":4}]},{"name":"MiddleCrown","primitives":[{"attributes":{"POSITION":8,"NORMAL":9,"TEXCOORD_0":10},"indices":11,"material":1,"mode":4}]},{"name":"TopCrown","primitives":[{"attributes":{"POSITION":12,"NORMAL":13,"TEXCOORD_0":14},"indices":15,"material":1,"mode":4}]}],"materials":[{"name":"Wood","pbrMetallicRoughness":{"baseColorFactor":[1.0,1.0,1.0,1.0],"roughnessFactor":0.92,"metallicFactor":0.0,"baseColorTexture":{"index":0}}},{"name":"Pine","pbrMetallicRoughness":{"baseColorFactor":[1.0,1.0,1.0,1.0],"roughnessFactor":0.95,"metallicFactor":0.0,"baseColorTexture":{"index":1}}}],"samplers":[{"magFilter":9729,"minFilter":9987,"wrapS":10497,"wrapT":10497}],"images":[{"uri":"../textures/trail_wood.png"},{"uri":"../textures/pine_needles.png"}],"textures":[{"source":0,"sampler":0},{"source":1,"sampler":0}],"buffers":[{"byteLength":9168,"uri":"data:application/octet-stream;base64,"}],"bufferViews":[{"buffer":0,"byteOffset":0,"byteLength":648,"target":34962},{"buffer":0,"byteOffset":648,"byteLength":648,"target":34962},{"buffer":0,"byteOffset":1296,"byteLength":432,"target":34962},{"buffer":0,"byteOffset":1728,"byteLength":384,"target":34963},{"buffer":0,"byteOffset":2112,"byteLength":720,"target":34962},{"buffer":0,"byteOffset":2832,"byteLength":720,"target":34962},{"buffer":0,"byteOffset":3552,"byteLength":480,"target":34962},{"buffer":0,"byteOffset":4032,"byteLength":432,"target":34963},{"buffer":0,"byteOffset":4464,"byteLength":720,"target":34962},{"buffer":0,"byteOffset":5184,"byteLength":720,"target":34962},{"buffer":0,"byteOffset":5904,"byteLength":480,"target":34962},{"buffer":0,"byteOffset":6384,"byteLength":432,"target":34963},{"buffer":0,"byteOffset":6816,"byteLength":720,"target":34962},{"buffer":0,"byteOffset":7536,"byteLength":720,"target":34962},{"buffer":0,"byteOffset":8256,"byteLength":480,"target":34962},{"buffer":0,"byteOffset":8736,"byteLength":432,"target":34963}],"accessors":[{"bufferView":0,"componentType":5126,"count":54,"type":"VEC3","min":[-0.213365,-1.35,-0.21666],"max":[0.213365,1.35,0.21666]},{"bufferView":1,"componentType":5126,"count":54,"type":"VEC3"},{"bufferView":2,"componentType":5126,"count":54,"type":"VEC2"},{"bufferView":3,"componentType":5125,"count":96,"type":"SCALAR"},{"bufferView":4,"componentType":5126,"count":60,"type":"VEC3","min":[-1.55,-1.275,-1.47414],"max":[1.55,1.2750000000000004,1.47414]},{"bufferView":5,"componentType":5126,"count":60,"type":"VEC3"},{"bufferView":6,"componentType":5126,"count":60,"type":"VEC2"},{"bufferView":7,"componentType":5125,"count":108,"type":"SCALAR"},{"bufferView":8,"componentType":5126,"count":60,"type":"VEC3","min":[-1.22,-1.1249999999999996,-1.16029],"max":[1.22,1.125,1.16029]},{"bufferView":9,"componentType":5126,"count":60,"type":"VEC3"},{"bufferView":10,"componentType":5126,"count":60,"type":"VEC2"},{"bufferView":11,"componentType":5125,"count":108,"type":"SCALAR"},{"bufferView":12,"componentType":5126,"count":60,"type":"VEC3","min":[-0.83,-0.9250000000000003,-0.78938],"max":[0.83,0.9249999999999998,0.78938]},{"bufferView":13,"componentType":5126,"count":60,"type":"VEC3"},{"bufferView":14,"componentType":5126,"count":60,"type":"VEC2"},{"bufferView":15,"componentType":5125,"count":108,"type":"SCALAR"}]}