{"asset":{"version":"2.0","generator":"Dustbound original low-poly asset generator"},"scene":0,"scenes":[{"nodes":[0]}],"nodes":[{"name":"rv_cockpit","mesh":0}],"meshes":[{"name":"rv_cockpit","primitives":[{"attributes":{"POSITION":0,"NORMAL":1,"TEXCOORD_0":2},"indices":3,"material":0,"mode":4},{"attributes":{"POSITION":4,"NORMAL":5,"TEXCOORD_0":6},"indices":7,"material":1,"mode":4},{"attributes":{"POSITION":8,"NORMAL":9,"TEXCOORD_0":10},"indices":11,"material":2,"mode":4},{"attributes":{"POSITION":12,"NORMAL":13,"TEXCOORD_0":14},"indices":15,"material":3,"mode":4},{"attributes":{"POSITION":16,"NORMAL":17,"TEXCOORD_0":18},"indices":19,"material":4,"mode":4}]}],"materials":[{"name":"DarkMetal","pbrMetallicRoughness":{"baseColorFactor":[0.15,0.16,0.16,1.0],"roughnessFactor":0.38,"metallicFactor":0.0}},{"name":"RV_Cream","pbrMetallicRoughness":{"baseColorFactor":[0.84,0.79,0.65,1.0],"roughnessFactor":0.9,"metallicFactor":0.0,"baseColorTexture":{"index":0}}},{"name":"Rubber","pbrMetallicRoughness":{"baseColorFactor":[0.035,0.04,0.045,1.0],"roughnessFactor":0.98,"metallicFactor":0.0}},{"name":"LightMetal","pbrMetallicRoughness":{"baseColorFactor":[0.48,0.5,0.48,1.0],"roughnessFactor":0.3,"metallicFactor":0.0}},{"name":"Lamp","pbrMetallicRoughness":{"baseColorFactor":[1.0,0.72,0.22,1.0],"roughnessFactor":0.45,"metallicFactor":0.0},"emissiveFactor":[0.35,0.18,0.04]}],"samplers":[{"magFilter":9729,"minFilter":9987,"wrapS":10497,"wrapT":10497}],"images":[{"uri":"../textures/rv_cream.png"}],"textures":[{"source":0,"sampler":0}],"buffers":[{"byteLength":25344,"uri":"data:application/octet-stream;base64,"}],"bufferViews":[{"buffer":0,"byteOffset":0,"byteLength":288,"target":34962},{"buffer":0,"byteOffset":288,"byteLength":288,"target":34962},{"buffer":0,"byteOffset":576,"byteLength":192,"target":34962},{"buffer":0,"byteOffset":768,"byteLength":144,"target":34963},{"buffer":0,"byteOffset":912,"byteLength":864,"target":34962},{"buffer":0,"byteOffset":1776,"byteLength":864,"target":34962},{"buffer":0,"byteOffset":2640,"byteLength":576,"target":34962},{"buffer":0,"byteOffset":3216,"byteLength":432,"target":34963},{"buffer":0,"byteOffset":3648,"byteLength":4032,"target":34962},{"buffer":0,"byteOffset":7680,"byteLength":4032,"target":34962},{"buffer":0,"byteOffset":11712,"byteLength":2688,"target":34962},{"buffer":0,"byteOffset":14400,"byteLength":2016,"target":34963},{"buffer":0,"byteOffset":16416,"byteLength":576,"target":34962},{"buffer":0,"byteOffset":16992,"byteLength":576,"target":34962},{"buffer":0,"byteOffset":17568,"byteLength":384,"target":34962},{"buffer":0,"byteOffset":17952,"byteLength":336,"target":34963},{"buffer":0,"byteOffset":18288,"byteLength":2160,"target":34962},{"buffer":0,"byteOffset":20448,"byteLength":2160,"target":34962},{"buffer":0,"byteOffset":22608,"byteLength":1440,"target":34962},{"buffer":0,"byteOffset":24048,"byteLength":1296,"target":34963}],"accessors":[{"bufferView":0,"componentType":5126,"count":24,"type":"VEC3","min":[-1.125,-0.66,-1.37],"max":[1.125,-0.28,-0.79]},{"bufferView":1,"componentType":5126,"count":24,"type":"VEC3"},{"bufferView":2,"componentType":5126,"count":24,"type":"VEC2"},{"bufferView":3,"componentType":5125,"count":36,"type":"SCALAR"},{"bufferView":4,"componentType":5126,"count":72,"type":"VEC3","min":[-1.14,-0.555,-1.49],"max":[1.14,0.795,-0.79]},{"bufferView":5,"componentType":5126,"count":72,"type":"VEC3"},{"bufferView":6,"componentType":5126,"count":72,"type":"VEC2"},{"bufferView":7,"componentType":5125,"count":108,"type":"SCALAR"},{"bufferView":8,"componentType":5126,"count":336,"type":"VEC3","min":[0.095,-0.73535,-0.77897],"max":[0.865,0.01535,-0.70103]},{"bufferView":9,"componentType":5126,"count":336,"type":"VEC3"},{"bufferView":10,"componentType":5126,"count":336,"type":"VEC2"},{"bufferView":11,"componentType":5125,"count":504,"type":"SCALAR"},{"bufferView":12,"componentType":5126,"count":48,"type":"VEC3","min":[0.425,-0.415,-1.165],"max":[0.535,-0.305,-0.715]},{"bufferView":13,"componentType":5126,"count":48,"type":"VEC3"},{"bufferView":14,"componentType":5126,"count":48,"type":"VEC2"},{"bufferView":15,"componentType":5125,"count":84,"type":"SCALAR"},{"bufferView":16,"componentType":5126,"count":180,"type":"VEC3","min":[-0.61,-0.4856,-1.3975],"max":[0.17,-0.3144,-1.3725]},{"bufferView":17,"componentType":5126,"count":180,"type":"VEC3"},{"bufferView":18,"componentType":5126,"count":180,"type":"VEC2"},{"bufferView":19,"componentType":5125,"count":324,"type":"SCALAR"}]}