{"asset":{"version":"2.0","generator":"Dustbound original low-poly asset generator"},"scene":0,"scenes":[{"nodes":[0]}],"nodes":[{"name":"rv_exterior","mesh":0}],"meshes":[{"name":"rv_exterior","primitives":[{"attributes":{"POSITION":0,"NORMAL":1,"TEXCOORD_0":2},"indices":3,"material":0,"mode":4},{"attributes":{"POSITION":4,"NORMAL":5,"TEXCOORD_0":6},"indices":7,"material":1,"mode":4},{"attributes":{"POSITION":8,"NORMAL":9,"TEXCOORD_0":10},"indices":11,"material":2,"mode":4},{"attributes":{"POSITION":12,"NORMAL":13,"TEXCOORD_0":14},"indices":15,"material":3,"mode":4},{"attributes":{"POSITION":16,"NORMAL":17,"TEXCOORD_0":18},"indices":19,"material":4,"mode":4},{"attributes":{"POSITION":20,"NORMAL":21,"TEXCOORD_0":22},"indices":23,"material":5,"mode":4},{"attributes":{"POSITION":24,"NORMAL":25,"TEXCOORD_0":26},"indices":27,"material":6,"mode":4},{"attributes":{"POSITION":28,"NORMAL":29,"TEXCOORD_0":30},"indices":31,"material":7,"mode":4},{"attributes":{"POSITION":32,"NORMAL":33,"TEXCOORD_0":34},"indices":35,"material":8,"mode":4}]}],"materials":[{"name":"RV_Cream","pbrMetallicRoughness":{"baseColorFactor":[1.0,1.0,1.0,1.0],"roughnessFactor":0.9,"metallicFactor":0.0,"baseColorTexture":{"index":0}}},{"name":"DarkMetal","pbrMetallicRoughness":{"baseColorFactor":[0.15,0.16,0.16,1.0],"roughnessFactor":0.38,"metallicFactor":0.0}},{"name":"RV_Stripe","pbrMetallicRoughness":{"baseColorFactor":[1.0,1.0,1.0,1.0],"roughnessFactor":0.88,"metallicFactor":0.0,"baseColorTexture":{"index":1}}},{"name":"LightMetal","pbrMetallicRoughness":{"baseColorFactor":[0.48,0.5,0.48,1.0],"roughnessFactor":0.3,"metallicFactor":0.0}},{"name":"Window","pbrMetallicRoughness":{"baseColorFactor":[0.1,0.2,0.23,0.72],"roughnessFactor":0.18,"metallicFactor":0.0},"alphaMode":"BLEND","doubleSided":true},{"name":"Canvas","pbrMetallicRoughness":{"baseColorFactor":[0.69,0.6,0.43,1.0],"roughnessFactor":0.94,"metallicFactor":0.0}},{"name":"Lamp","pbrMetallicRoughness":{"baseColorFactor":[1.0,0.72,0.22,1.0],"roughnessFactor":0.45,"metallicFactor":0.0},"emissiveFactor":[0.35,0.18,0.04]},{"name":"Wood","pbrMetallicRoughness":{"baseColorFactor":[1.0,1.0,1.0,1.0],"roughnessFactor":0.92,"metallicFactor":0.0,"baseColorTexture":{"index":2}}},{"name":"Rubber","pbrMetallicRoughness":{"baseColorFactor":[0.035,0.04,0.045,1.0],"roughnessFactor":0.98,"metallicFactor":0.0}}],"samplers":[{"magFilter":9729,"minFilter":9987,"wrapS":10497,"wrapT":10497}],"images":[{"uri":"../textures/rv_cream.png"},{"uri":"../textures/rv_stripe.png"},{"uri":"../textures/trail_wood.png"}],"textures":[{"source":0,"sampler":0},{"source":1,"sampler":0},{"source":2,"sampler":0}],"buffers":[{"byteLength":58176,"uri":"data:application/octet-stream;base64,"}],"bufferViews":[{"buffer":0,"byteOffset":0,"byteLength":1440,"target":34962},{"buffer":0,"byteOffset":1440,"byteLength":1440,"target":34962},{"buffer":0,"byteOffset":2880,"byteLength":960,"target":34962},{"buffer":0,"byteOffset":3840,"byteLength":720,"target":34963},{"buffer":0,"byteOffset":4560,"byteLength":6048,"target":34962},{"buffer":0,"byteOffset":10608,"byteLength":6048,"target":34962},{"buffer":0,"byteOffset":16656,"byteLength":4032,"target":34962},{"buffer":0,"byteOffset":20688,"byteLength":3024,"target":34963},{"buffer":0,"byteOffset":23712,"byteLength":1728,"target":34962},{"buffer":0,"byteOffset":25440,"byteLength":1728,"target":34962},{"buffer":0,"byteOffset":27168,"byteLength":1152,"target":34962},{"buffer":0,"byteOffset":28320,"byteLength":864,"target":34963},{"buffer":0,"byteOffset":29184,"byteLength":4032,"target":34962},{"buffer":0,"byteOffset":33216,"byteLength":4032,"target":34962},{"buffer":0,"byteOffset":37248,"byteLength":2688,"target":34962},{"buffer":0,"byteOffset":39936,"byteLength":2112,"target":34963},{"buffer":0,"byteOffset":42048,"byteLength":2592,"target":34962},{"buffer":0,"byteOffset":44640,"byteLength":2592,"target":34962},{"buffer":0,"byteOffset":47232,"byteLength":1728,"target":34962},{"buffer":0,"byteOffset":48960,"byteLength":1296,"target":34963},{"buffer":0,"byteOffset":50256,"byteLength":288,"target":34962},{"buffer":0,"byteOffset":50544,"byteLength":288,"target":34962},{"buffer":0,"byteOffset":50832,"byteLength":192,"target":34962},{"buffer":0,"byteOffset":51024,"byteLength":144,"target":34963},{"buffer":0,"byteOffset":51168,"byteLength":576,"target":34962},{"buffer":0,"byteOffset":51744,"byteLength":576,"target":34962},{"buffer":0,"byteOffset":52320,"byteLength":384,"target":34962},{"buffer":0,"byteOffset":52704,"byteLength":288,"target":34963},{"buffer":0,"byteOffset":52992,"byteLength":288,"target":34962},{"buffer":0,"byteOffset":53280,"byteLength":288,"target":34962},{"buffer":0,"byteOffset":53568,"byteLength":192,"target":34962},{"buffer":0,"byteOffset":53760,"byteLength":144,"target":34963},{"buffer":0,"byteOffset":53904,"byteLength":1296,"target":34962},{"buffer":0,"byteOffset":55200,"byteLength":1296,"target":34962},{"buffer":0,"byteOffset":56496,"byteLength":864,"target":34962},{"buffer":0,"byteOffset":57360,"byteLength":816,"target":34963}],"accessors":[{"bufferView":0,"componentType":5126,"count":120,"type":"VEC3","min":[-1.29,-0.295,-3.2],"max":[1.3075,2.11,2.88]},{"bufferView":1,"componentType":5126,"count":120,"type":"VEC3"},{"bufferView":2,"componentType":5126,"count":120,"type":"VEC2"},{"bufferView":3,"componentType":5125,"count":180,"type":"SCALAR"},{"bufferView":4,"componentType":5126,"count":504,"type":"VEC3","min":[-1.695,-0.2,-3.27],"max":[1.695,2.245,2.82]},{"bufferView":5,"componentType":5126,"count":504,"type":"VEC3"},{"bufferView":6,"componentType":5126,"count":504,"type":"VEC2"},{"bufferView":7,"componentType":5125,"count":756,"type":"SCALAR"},{"bufferView":8,"componentType":5126,"count":144,"type":"VEC3","min":[-1.2775,0.29,-3.2375],"max":[1.49,1.92,2.845]},{"bufferView":9,"componentType":5126,"count":144,"type":"VEC3"},{"bufferView":10,"componentType":5126,"count":144,"type":"VEC2"},{"bufferView":11,"componentType":5125,"count":216,"type":"SCALAR"},{"bufferView":12,"componentType":5126,"count":336,"type":"VEC3","min":[-1.29,-0.29,-3.46],"max":[1.29,2.36,3.075]},{"bufferView":13,"componentType":5126,"count":336,"type":"VEC3"},{"bufferView":14,"componentType":5126,"count":336,"type":"VEC2"},{"bufferView":15,"componentType":5125,"count":528,"type":"SCALAR"},{"bufferView":16,"componentType":5126,"count":216,"type":"VEC3","min":[-1.295,0.61,-3.2675],"max":[1.324,2.29,1.88]},{"bufferView":17,"componentType":5126,"count":216,"type":"VEC3"},{"bufferView":18,"componentType":5126,"count":216,"type":"VEC2"},{"bufferView":19,"componentType":5125,"count":324,"type":"SCALAR"},{"bufferView":20,"componentType":5126,"count":24,"type":"VEC3","min":[-0.29,-0.11,-3.4125],"max":[0.29,0.07,-3.3875]},{"bufferView":21,"componentType":5126,"count":24,"type":"VEC3"},{"bufferView":22,"componentType":5126,"count":24,"type":"VEC2"},{"bufferView":23,"componentType":5125,"count":36,"type":"SCALAR"},{"bufferView":24,"componentType":5126,"count":48,"type":"VEC3","min":[-1.0,0.245,-3.275],"max":[1.0,0.515,-3.225]},{"bufferView":25,"componentType":5126,"count":48,"type":"VEC3"},{"bufferView":26,"componentType":5126,"count":48,"type":"VEC2"},{"bufferView":27,"componentType":5125,"count":72,"type":"SCALAR"},{"bufferView":28,"componentType":5126,"count":24,"type":"VEC3","min":[-0.89,2.17,0.03],"max":[-0.07,2.59,1.21]},{"bufferView":29,"componentType":5126,"count":24,"type":"VEC3"},{"bufferView":30,"componentType":5126,"count":24,"type":"VEC2"},{"bufferView":31,"componentType":5125,"count":36,"type":"SCALAR"},{"bufferView":32,"componentType":5126,"count":108,"type":"VEC3","min":[-0.58,-0.02119,2.73],"max":[0.58,1.12119,2.99]},{"bufferView":33,"componentType":5126,"count":108,"type":"VEC3"},{"bufferView":34,"componentType":5126,"count":108,"type":"VEC2"},{"bufferView":35,"componentType":5125,"count":204,"type":"SCALAR"}]}