{"asset":{"version":"2.0","generator":"Dustbound original component-preserving asset generator"},"scene":0,"scenes":[{"nodes":[0]}],"nodes":[{"name":"rv_wheel","children":[1]},{"name":"DetailedWheelAssembly","mesh":0,"translation":[0.01625,0.0,0.0]}],"meshes":[{"name":"DetailedWheelAssembly","primitives":[{"attributes":{"POSITION":0,"NORMAL":1,"TEXCOORD_0":2},"indices":3,"material":0,"mode":4},{"attributes":{"POSITION":4,"NORMAL":5,"TEXCOORD_0":6},"indices":7,"material":1,"mode":4},{"attributes":{"POSITION":8,"NORMAL":9,"TEXCOORD_0":10},"indices":11,"material":2,"mode":4}]}],"materials":[{"name":"Rubber","pbrMetallicRoughness":{"baseColorFactor":[1.0,1.0,1.0,1.0],"roughnessFactor":0.98,"metallicFactor":0.0,"baseColorTexture":{"index":0}}},{"name":"Chrome","pbrMetallicRoughness":{"baseColorFactor":[1.0,1.0,1.0,1.0],"roughnessFactor":0.2,"metallicFactor":0.78,"baseColorTexture":{"index":1}}},{"name":"DarkMetal","pbrMetallicRoughness":{"baseColorFactor":[0.15,0.16,0.16,1.0],"roughnessFactor":0.38,"metallicFactor":0.0}}],"samplers":[{"magFilter":9729,"minFilter":9987,"wrapS":10497,"wrapT":10497}],"images":[{"uri":"../textures/rv_tire.png"},{"uri":"../textures/rv_metal.png"}],"textures":[{"source":0,"sampler":0},{"source":1,"sampler":0}],"buffers":[{"byteLength":68528,"uri":"data:application/octet-stream;base64,"}],"bufferViews":[{"buffer":0,"byteOffset":0,"byteLength":13440,"target":34962},{"buffer":0,"byteOffset":13440,"byteLength":13440,"target":34962},{"buffer":0,"byteOffset":26880,"byteLength":8960,"target":34962},{"buffer":0,"byteOffset":35840,"byteLength":6720,"target":34963},{"buffer":0,"byteOffset":42560,"byteLength":3024,"target":34962},{"buffer":0,"byteOffset":45584,"byteLength":3024,"target":34962},{"buffer":0,"byteOffset":48608,"byteLength":2016,"target":34962},{"buffer":0,"byteOffset":50624,"byteLength":1920,"target":34963},{"buffer":0,"byteOffset":52544,"byteLength":4896,"target":34962},{"buffer":0,"byteOffset":57440,"byteLength":4896,"target":34962},{"buffer":0,"byteOffset":62336,"byteLength":3264,"target":34962},{"buffer":0,"byteOffset":65600,"byteLength":2928,"target":34963}],"accessors":[{"bufferView":0,"componentType":5126,"count":1120,"type":"VEC3","min":[-0.14939999999999998,-0.61,-0.61],"max":[0.11689999999999999,0.61,0.61]},{"bufferView":1,"componentType":5126,"count":1120,"type":"VEC3"},{"bufferView":2,"componentType":5126,"count":1120,"type":"VEC2"},{"bufferView":3,"componentType":5125,"count":1680,"type":"SCALAR"},{"bufferView":4,"componentType":5126,"count":252,"type":"VEC3","min":[-0.19124999999999998,-0.315,-0.315],"max":[0.15875,0.315,0.315]},{"bufferView":5,"componentType":5126,"count":252,"type":"VEC3"},{"bufferView":6,"componentType":5126,"count":252,"type":"VEC2"},{"bufferView":7,"componentType":5125,"count":480,"type":"SCALAR"},{"bufferView":8,"componentType":5126,"count":408,"type":"VEC3","min":[-0.17875000000000002,-0.235,-0.235],"max":[0.19124999999999998,0.235,0.235]},{"bufferView":9,"componentType":5126,"count":408,"type":"VEC3"},{"bufferView":10,"componentType":5126,"count":408,"type":"VEC2"},{"bufferView":11,"componentType":5125,"count":732,"type":"SCALAR"}]}