{"asset":{"version":"2.0","generator":"Dustbound original component-preserving asset generator"},"scene":0,"scenes":[{"nodes":[0]}],"nodes":[{"name":"trail_crate","children":[1,2,3,4,5,6,7,8,9]},{"name":"CrateCore","mesh":0,"translation":[0.0,0.0,0.0]},{"name":"FrontSlat","mesh":1,"translation":[0.0,-0.27999999999999997,-0.375]},{"name":"BackSlat","mesh":2,"translation":[0.0,-0.27999999999999997,0.375]},{"name":"FrontSlat_02","mesh":3,"translation":[0.0,0.0,-0.375]},{"name":"BackSlat_02","mesh":4,"translation":[0.0,0.0,0.375]},{"name":"FrontSlat_03","mesh":5,"translation":[0.0,0.27999999999999997,-0.375]},{"name":"BackSlat_03","mesh":6,"translation":[0.0,0.27999999999999997,0.375]},{"name":"Band","mesh":7,"translation":[-0.39,0.0,0.0]},{"name":"Band_02","mesh":8,"translation":[0.39,0.0,0.0]}],"meshes":[{"name":"CrateCore","primitives":[{"attributes":{"POSITION":0,"NORMAL":1,"TEXCOORD_0":2},"indices":3,"material":0,"mode":4}]},{"name":"FrontSlat","primitives":[{"attributes":{"POSITION":4,"NORMAL":5,"TEXCOORD_0":6},"indices":7,"material":1,"mode":4}]},{"name":"BackSlat","primitives":[{"attributes":{"POSITION":8,"NORMAL":9,"TEXCOORD_0":10},"indices":11,"material":1,"mode":4}]},{"name":"FrontSlat_02","primitives":[{"attributes":{"POSITION":12,"NORMAL":13,"TEXCOORD_0":14},"indices":15,"material":1,"mode":4}]},{"name":"BackSlat_02","primitives":[{"attributes":{"POSITION":16,"NORMAL":17,"TEXCOORD_0":18},"indices":19,"material":1,"mode":4}]},{"name":"FrontSlat_03","primitives":[{"attributes":{"POSITION":20,"NORMAL":21,"TEXCOORD_0":22},"indices":23,"material":1,"mode":4}]},{"name":"BackSlat_03","primitives":[{"attributes":{"POSITION":24,"NORMAL":25,"TEXCOORD_0":26},"indices":27,"material":1,"mode":4}]},{"name":"Band","primitives":[{"attributes":{"POSITION":28,"NORMAL":29,"TEXCOORD_0":30},"indices":31,"material":2,"mode":4}]},{"name":"Band_02","primitives":[{"attributes":{"POSITION":32,"NORMAL":33,"TEXCOORD_0":34},"indices":35,"material":2,"mode":4}]}],"materials":[{"name":"Wood","pbrMetallicRoughness":{"baseColorFactor":[1.0,1.0,1.0,1.0],"roughnessFactor":0.92,"metallicFactor":0.0,"baseColorTexture":{"index":0}}},{"name":"Canvas","pbrMetallicRoughness":{"baseColorFactor":[0.69,0.6,0.43,1.0],"roughnessFactor":0.94,"metallicFactor":0.0}},{"name":"DarkMetal","pbrMetallicRoughness":{"baseColorFactor":[0.15,0.16,0.16,1.0],"roughnessFactor":0.38,"metallicFactor":0.0}}],"samplers":[{"magFilter":9729,"minFilter":9987,"wrapS":10497,"wrapT":10497}],"images":[{"uri":"../textures/trail_wood.png"}],"textures":[{"source":0,"sampler":0}],"buffers":[{"byteLength":8208,"uri":"data:application/octet-stream;base64,"}],"bufferViews":[{"buffer":0,"byteOffset":0,"byteLength":288,"target":34962},{"buffer":0,"byteOffset":288,"byteLength":288,"target":34962},{"buffer":0,"byteOffset":576,"byteLength":192,"target":34962},{"buffer":0,"byteOffset":768,"byteLength":144,"target":34963},{"buffer":0,"byteOffset":912,"byteLength":288,"target":34962},{"buffer":0,"byteOffset":1200,"byteLength":288,"target":34962},{"buffer":0,"byteOffset":1488,"byteLength":192,"target":34962},{"buffer":0,"byteOffset":1680,"byteLength":144,"target":34963},{"buffer":0,"byteOffset":1824,"byteLength":288,"target":34962},{"buffer":0,"byteOffset":2112,"byteLength":288,"target":34962},{"buffer":0,"byteOffset":2400,"byteLength":192,"target":34962},{"buffer":0,"byteOffset":2592,"byteLength":144,"target":34963},{"buffer":0,"byteOffset":2736,"byteLength":288,"target":34962},{"buffer":0,"byteOffset":3024,"byteLength":288,"target":34962},{"buffer":0,"byteOffset":3312,"byteLength":192,"target":34962},{"buffer":0,"byteOffset":3504,"byteLength":144,"target":34963},{"buffer":0,"byteOffset":3648,"byteLength":288,"target":34962},{"buffer":0,"byteOffset":3936,"byteLength":288,"target":34962},{"buffer":0,"byteOffset":4224,"byteLength":192,"target":34962},{"buffer":0,"byteOffset":4416,"byteLength":144,"target":34963},{"buffer":0,"byteOffset":4560,"byteLength":288,"target":34962},{"buffer":0,"byteOffset":4848,"byteLength":288,"target":34962},{"buffer":0,"byteOffset":5136,"byteLength":192,"target":34962},{"buffer":0,"byteOffset":5328,"byteLength":144,"target":34963},{"buffer":0,"byteOffset":5472,"byteLength":288,"target":34962},{"buffer":0,"byteOffset":5760,"byteLength":288,"target":34962},{"buffer":0,"byteOffset":6048,"byteLength":192,"target":34962},{"buffer":0,"byteOffset":6240,"byteLength":144,"target":34963},{"buffer":0,"byteOffset":6384,"byteLength":288,"target":34962},{"buffer":0,"byteOffset":6672,"byteLength":288,"target":34962},{"buffer":0,"byteOffset":6960,"byteLength":192,"target":34962},{"buffer":0,"byteOffset":7152,"byteLength":144,"target":34963},{"buffer":0,"byteOffset":7296,"byteLength":288,"target":34962},{"buffer":0,"byteOffset":7584,"byteLength":288,"target":34962},{"buffer":0,"byteOffset":7872,"byteLength":192,"target":34962},{"buffer":0,"byteOffset":8064,"byteLength":144,"target":34963}],"accessors":[{"bufferView":0,"componentType":5126,"count":24,"type":"VEC3","min":[-0.43,-0.35,-0.36],"max":[0.43,0.35,0.36]},{"bufferView":1,"componentType":5126,"count":24,"type":"VEC3"},{"bufferView":2,"componentType":5126,"count":24,"type":"VEC2"},{"bufferView":3,"componentType":5125,"count":36,"type":"SCALAR"},{"bufferView":4,"componentType":5126,"count":24,"type":"VEC3","min":[-0.46,-0.065,-0.030000000000000027],"max":[0.46,0.06499999999999997,0.030000000000000027]},{"bufferView":5,"componentType":5126,"count":24,"type":"VEC3"},{"bufferView":6,"componentType":5126,"count":24,"type":"VEC2"},{"bufferView":7,"componentType":5125,"count":36,"type":"SCALAR"},{"bufferView":8,"componentType":5126,"count":24,"type":"VEC3","min":[-0.46,-0.065,-0.030000000000000027],"max":[0.46,0.06499999999999997,0.030000000000000027]},{"bufferView":9,"componentType":5126,"count":24,"type":"VEC3"},{"bufferView":10,"componentType":5126,"count":24,"type":"VEC2"},{"bufferView":11,"componentType":5125,"count":36,"type":"SCALAR"},{"bufferView":12,"componentType":5126,"count":24,"type":"VEC3","min":[-0.46,-0.065,-0.030000000000000027],"max":[0.46,0.065,0.030000000000000027]},{"bufferView":13,"componentType":5126,"count":24,"type":"VEC3"},{"bufferView":14,"componentType":5126,"count":24,"type":"VEC2"},{"bufferView":15,"componentType":5125,"count":36,"type":"SCALAR"},{"bufferView":16,"componentType":5126,"count":24,"type":"VEC3","min":[-0.46,-0.065,-0.030000000000000027],"max":[0.46,0.065,0.030000000000000027]},{"bufferView":17,"componentType":5126,"count":24,"type":"VEC3"},{"bufferView":18,"componentType":5126,"count":24,"type":"VEC2"},{"bufferView":19,"componentType":5125,"count":36,"type":"SCALAR"},{"bufferView":20,"componentType":5126,"count":24,"type":"VEC3","min":[-0.46,-0.06499999999999997,-0.030000000000000027],"max":[0.46,0.065,0.030000000000000027]},{"bufferView":21,"componentType":5126,"count":24,"type":"VEC3"},{"bufferView":22,"componentType":5126,"count":24,"type":"VEC2"},{"bufferView":23,"componentType":5125,"count":36,"type":"SCALAR"},{"bufferView":24,"componentType":5126,"count":24,"type":"VEC3","min":[-0.46,-0.06499999999999997,-0.030000000000000027],"max":[0.46,0.065,0.030000000000000027]},{"bufferView":25,"componentType":5126,"count":24,"type":"VEC3"},{"bufferView":26,"componentType":5126,"count":24,"type":"VEC2"},{"bufferView":27,"componentType":5125,"count":36,"type":"SCALAR"},{"bufferView":28,"componentType":5126,"count":24,"type":"VEC3","min":[-0.03999999999999998,-0.38,-0.39],"max":[0.040000000000000036,0.38,0.39]},{"bufferView":29,"componentType":5126,"count":24,"type":"VEC3"},{"bufferView":30,"componentType":5126,"count":24,"type":"VEC2"},{"bufferView":31,"componentType":5125,"count":36,"type":"SCALAR"},{"bufferView":32,"componentType":5126,"count":24,"type":"VEC3","min":[-0.040000000000000036,-0.38,-0.39],"max":[0.03999999999999998,0.38,0.39]},{"bufferView":33,"componentType":5126,"count":24,"type":"VEC3"},{"bufferView":34,"componentType":5126,"count":24,"type":"VEC2"},{"bufferView":35,"componentType":5125,"count":36,"type":"SCALAR"}]}