{"asset":{"version":"2.0","generator":"Dustbound original low-poly asset generator"},"scene":0,"scenes":[{"nodes":[0]}],"nodes":[{"name":"trail_sign","mesh":0}],"meshes":[{"name":"trail_sign","primitives":[{"attributes":{"POSITION":0,"NORMAL":1,"TEXCOORD_0":2},"indices":3,"material":0,"mode":4},{"attributes":{"POSITION":4,"NORMAL":5,"TEXCOORD_0":6},"indices":7,"material":1,"mode":4}]}],"materials":[{"name":"Wood","pbrMetallicRoughness":{"baseColorFactor":[0.5,0.3,0.16,1.0],"roughnessFactor":0.92,"metallicFactor":0.0,"baseColorTexture":{"index":0}}},{"name":"Lamp","pbrMetallicRoughness":{"baseColorFactor":[1.0,0.72,0.22,1.0],"roughnessFactor":0.45,"metallicFactor":0.0},"emissiveFactor":[0.35,0.18,0.04]}],"samplers":[{"magFilter":9729,"minFilter":9987,"wrapS":10497,"wrapT":10497}],"images":[{"uri":"../textures/trail_wood.png"}],"textures":[{"source":0,"sampler":0}],"buffers":[{"byteLength":3936,"uri":"data:application/octet-stream;base64,"}],"bufferViews":[{"buffer":0,"byteOffset":0,"byteLength":936,"target":34962},{"buffer":0,"byteOffset":936,"byteLength":936,"target":34962},{"buffer":0,"byteOffset":1872,"byteLength":624,"target":34962},{"buffer":0,"byteOffset":2496,"byteLength":528,"target":34963},{"buffer":0,"byteOffset":3024,"byteLength":288,"target":34962},{"buffer":0,"byteOffset":3312,"byteLength":288,"target":34962},{"buffer":0,"byteOffset":3600,"byteLength":192,"target":34962},{"buffer":0,"byteOffset":3792,"byteLength":144,"target":34963}],"accessors":[{"bufferView":0,"componentType":5126,"count":78,"type":"VEC3","min":[-0.825,0.0,-0.09848],"max":[0.825,2.54,0.09848]},{"bufferView":1,"componentType":5126,"count":78,"type":"VEC3"},{"bufferView":2,"componentType":5126,"count":78,"type":"VEC2"},{"bufferView":3,"componentType":5125,"count":132,"type":"SCALAR"},{"bufferView":4,"componentType":5126,"count":24,"type":"VEC3","min":[-0.65,2.12,-0.0925],"max":[0.65,2.24,-0.0675]},{"bufferView":5,"componentType":5126,"count":24,"type":"VEC3"},{"bufferView":6,"componentType":5126,"count":24,"type":"VEC2"},{"bufferView":7,"componentType":5125,"count":36,"type":"SCALAR"}]}